<?xml version="1.0" encoding="utf-8"?>
<!-- Generator: Adobe Illustrator 19.0.0, SVG Export Plug-In . SVG Version: 6.00 Build 0)  -->
<svg version="1.1" id="Calque_1" xmlns="http://www.w3.org/2000/svg" xmlns:xlink="http://www.w3.org/1999/xlink" x="0px" y="0px"
	 viewBox="0 0 538.3887 78.431" enable-background="new 0 0 538.3887 78.431" xml:space="preserve">
<g>
	<g>
		<path fill="#D51224" d="M98.0171,33.3667c0-0.686,0.01-1.382,0.031-2.089c0.021-0.707,0.094-1.436,0.219-2.186l-4.525,0.257
			v-2.764c1.393,0,2.527-0.048,3.401-0.145c0.874-0.096,1.576-0.23,2.107-0.402c0.53-0.171,0.941-0.358,1.232-0.562
			c0.291-0.204,0.562-0.423,0.812-0.659h1.841c0.041,0.493,0.088,1.056,0.14,1.687c0.052,0.633,0.099,1.399,0.141,2.299
			c0.686-0.622,1.44-1.2,2.262-1.736c0.822-0.536,1.68-1.002,2.575-1.398c0.894-0.397,1.815-0.708,2.762-0.932
			c0.946-0.225,1.877-0.338,2.793-0.338c3.703,0,6.408,1.195,8.114,3.584c1.706,2.39,2.559,6.102,2.559,11.138v12.279
			c0,0.879-0.011,1.655-0.031,2.33c-0.021,0.675-0.094,1.388-0.219,2.138l4.026-0.193v2.7h-13.045v-1.961
			c0.978,0,1.721-0.198,2.232-0.595c0.509-0.396,0.878-0.948,1.107-1.655c0.229-0.707,0.359-1.553,0.391-2.539
			c0.031-0.986,0.046-2.068,0.046-3.247v-9.193c-0.042-3.793-0.645-6.648-1.81-8.566s-3.017-2.877-5.555-2.877
			c-0.77,0-1.54,0.118-2.309,0.353c-0.77,0.237-1.509,0.542-2.216,0.917s-1.373,0.819-1.997,1.334
			c-0.624,0.514-1.165,1.071-1.623,1.671c0.021,0.386,0.031,0.799,0.031,1.238v1.334l-0.062,16.811c0,0.879-0.011,1.655-0.031,2.33
			c-0.021,0.675-0.094,1.388-0.219,2.138l4.026-0.193v2.7h-13.045v-1.961c0.978,0,1.722-0.198,2.232-0.595
			c0.509-0.396,0.874-0.948,1.092-1.655c0.219-0.707,0.343-1.553,0.374-2.539c0.032-0.986,0.058-2.068,0.079-3.247L98.0171,33.3667z
			"/>
		<path fill="#D51224" d="M146.1256,26.9056c-1.685,0-3.126,0.387-4.322,1.159c-1.197,0.772-2.18,1.802-2.949,3.089
			c-0.77,1.287-1.337,2.767-1.701,4.441c-0.364,1.673-0.546,3.41-0.546,5.213c0,2.038,0.203,4.022,0.608,5.952
			c0.406,1.931,1.025,3.642,1.857,5.133c0.832,1.491,1.877,2.686,3.137,3.588c1.258,0.901,2.73,1.351,4.415,1.351
			c1.685,0,3.105-0.391,4.26-1.174c1.155-0.783,2.091-1.818,2.809-3.106c0.718-1.286,1.233-2.756,1.545-4.408
			c0.312-1.652,0.468-3.346,0.468-5.084c0-1.974-0.177-3.926-0.531-5.857c-0.354-1.93-0.916-3.657-1.685-5.18
			c-0.77-1.523-1.763-2.757-2.98-3.701C149.2936,27.3776,147.8316,26.9056,146.1256,26.9056 M146.1256,24.3986
			c2.247,0,4.348,0.423,6.304,1.27c1.955,0.847,3.656,2.014,5.102,3.504c1.446,1.489,2.591,3.257,3.433,5.303
			c0.843,2.047,1.264,4.259,1.264,6.638c0,2.55-0.411,4.939-1.233,7.168c-0.822,2.229-1.956,4.168-3.401,5.818
			c-1.447,1.65-3.152,2.952-5.118,3.905c-1.966,0.954-4.084,1.431-6.351,1.431c-2.247,0-4.343-0.413-6.288-1.238
			c-1.946-0.825-3.641-1.977-5.087-3.455c-1.446-1.479-2.585-3.241-3.417-5.288c-0.833-2.046-1.249-4.291-1.249-6.734
			c0-2.592,0.411-5.009,1.233-7.248c0.822-2.239,1.95-4.179,3.386-5.818c1.436-1.64,3.131-2.926,5.087-3.858
			C141.7456,24.8646,143.8576,24.3986,146.1256,24.3986"/>
		<path fill="#D51224" d="M163.1496,25.4594c1.123-0.021,2.143-0.338,3.058-0.948c0.916-0.611,1.722-1.371,2.419-2.282
			c0.697-0.911,1.284-1.902,1.763-2.974c0.478-1.071,0.853-2.078,1.124-3.021h2.184c0,1.757-0.005,3.396-0.015,4.918
			c-0.011,1.522-0.016,2.957-0.016,4.307h10.766v2.572l-10.766,0.128c-0.021,2.85-0.031,5.283-0.031,7.297s-0.006,3.696-0.016,5.046
			c-0.011,1.35-0.016,2.416-0.016,3.198c0,0.783-0.005,1.378-0.015,1.785c-0.011,0.407-0.016,0.669-0.016,0.787v0.209
			c0,1.5,0.078,2.824,0.234,3.97c0.156,1.146,0.422,2.111,0.796,2.893c0.375,0.782,0.869,1.371,1.483,1.768
			c0.613,0.396,1.388,0.594,2.324,0.594c1.103,0,2.195-0.342,3.277-1.028s2.039-1.661,2.871-2.925l1.717,1.446
			c-0.937,1.457-1.868,2.599-2.793,3.423c-0.926,0.826-1.806,1.447-2.637,1.865c-0.833,0.417-1.608,0.68-2.325,0.787
			c-0.718,0.107-1.348,0.161-1.888,0.161c-0.646,0-1.306-0.054-1.982-0.161s-1.342-0.316-1.997-0.627
			c-0.656-0.31-1.27-0.75-1.842-1.318c-0.572-0.567-1.076-1.301-1.513-2.201c-0.437-0.9-0.78-1.993-1.03-3.279
			s-0.364-2.807-0.343-4.564l0.125-19.03l-4.9,0.033V25.4594z"/>
		<path fill="#D51224" d="M206.3845,27.9986c-0.811-0.021-1.634,0.134-2.465,0.466c-0.833,0.333-1.649,0.82-2.45,1.463
			s-1.556,1.414-2.263,2.314c-0.707,0.9-1.342,1.897-1.903,2.989l0.062,16.169c0,0.879-0.011,1.655-0.031,2.33
			c-0.021,0.675-0.094,1.388-0.219,2.138l4.026-0.193v2.7h-13.107v-1.961c0.978,0,1.721-0.198,2.231-0.595
			c0.51-0.396,0.879-0.948,1.108-1.655c0.229-0.707,0.359-1.553,0.39-2.539c0.032-0.986,0.047-2.068,0.047-3.247v-15.043
			c0-0.685,0.01-1.377,0.031-2.073c0.021-0.696,0.094-1.42,0.219-2.17l-4.525,0.193v-2.7h1.966c0.915,0,1.674-0.048,2.278-0.145
			c0.603-0.096,1.108-0.23,1.514-0.402c0.405-0.171,0.743-0.358,1.014-0.562c0.27-0.203,0.53-0.423,0.78-0.659h1.841
			c0.063,0.686,0.12,1.538,0.172,2.555c0.051,1.018,0.098,2.331,0.14,3.938c0.479-0.814,1.093-1.634,1.841-2.459
			c0.749-0.825,1.592-1.564,2.528-2.218c0.936-0.653,1.945-1.189,3.027-1.607c1.082-0.418,2.195-0.627,3.34-0.627
			c0.582,0,1.149,0.08,1.7,0.241c0.551,0.161,1.03,0.413,1.436,0.756c0.406,0.343,0.733,0.771,0.983,1.285
			c0.25,0.515,0.374,1.136,0.374,1.865c0,0.3-0.057,0.632-0.171,0.996c-0.115,0.365-0.302,0.707-0.562,1.029
			c-0.26,0.321-0.588,0.589-0.983,0.803c-0.395,0.215-0.885,0.322-1.467,0.322c-0.479,0-0.91-0.107-1.295-0.322
			c-0.385-0.214-0.707-0.487-0.967-0.819c-0.261-0.332-0.448-0.718-0.562-1.158C206.3475,28.9576,206.3225,28.4916,206.3845,27.9986
			"/>
		<path fill="#D51224" d="M229.1995,27.0029c-2.496,0-4.556,0.752-6.179,2.258c-1.623,1.506-2.695,3.946-3.214,7.32h16.29
			c0-1.153-0.125-2.3-0.375-3.444c-0.249-1.142-0.65-2.167-1.201-3.075c-0.552-0.907-1.264-1.644-2.138-2.21
			C231.5085,27.2859,230.4475,27.0029,229.1995,27.0029 M242.1195,38.9599l-22.501,0.386c-0.021,2.533,0.167,4.831,0.562,6.892
			s1.019,3.822,1.873,5.281c0.852,1.461,1.95,2.588,3.292,3.382c1.342,0.795,2.949,1.192,4.822,1.192
			c0.998,0,2.017-0.141,3.058-0.421c1.04-0.28,2.044-0.662,3.011-1.148c0.968-0.485,1.857-1.066,2.669-1.745
			c0.811-0.679,1.487-1.407,2.028-2.183l1.56,1.318c-0.873,1.371-1.888,2.534-3.042,3.487c-1.155,0.954-2.352,1.731-3.589,2.331
			c-1.238,0.6-2.481,1.034-3.729,1.302c-1.249,0.267-2.414,0.401-3.496,0.401c-2.205,0-4.259-0.407-6.163-1.221
			c-1.904-0.814-3.553-1.982-4.946-3.504c-1.395-1.521-2.492-3.353-3.293-5.496c-0.801-2.143-1.201-4.554-1.201-7.233
			c0-2.314,0.384-4.526,1.154-6.637c0.77-2.111,1.862-3.98,3.277-5.609c1.415-1.628,3.11-2.925,5.087-3.89
			c1.976-0.964,4.171-1.446,6.585-1.446c1.768,0,3.437,0.3,5.008,0.9c1.571,0.6,2.95,1.5,4.135,2.7
			c1.186,1.2,2.123,2.716,2.809,4.548C241.7765,34.3789,242.1195,36.5169,242.1195,38.9599"/>
	</g>
	<polygon fill="#646363" points="286.9868,58.3745 277.6248,58.3745 277.6248,38.9015 259.3678,38.9015 259.3678,58.3745 
		250.0058,58.3745 250.0058,12.9365 259.3678,12.9365 259.3678,31.3485 277.6248,31.3485 277.6248,12.9365 286.9868,12.9365 	"/>
	<g>
		<path fill="#646363" d="M302.5485,58.3741h-9.05v-33.766h9.05V58.3741z M292.9675,15.8701c0-1.352,0.452-2.465,1.358-3.339
			c0.905-0.874,2.137-1.311,3.698-1.311c1.539,0,2.766,0.437,3.682,1.311c0.915,0.874,1.373,1.987,1.373,3.339
			c0,1.373-0.463,2.497-1.388,3.37c-0.927,0.874-2.149,1.311-3.667,1.311c-1.519,0-2.742-0.437-3.667-1.311
			C293.4305,18.3671,292.9675,17.2431,292.9675,15.8701"/>
		<path fill="#646363" d="M326.301,49.0434c0-1.102-0.546-1.971-1.638-2.606c-1.093-0.634-2.846-1.201-5.259-1.701
			c-8.031-1.685-12.046-5.096-12.046-10.236c0-2.995,1.243-5.497,3.729-7.505c2.486-2.008,5.737-3.011,9.753-3.011
			c4.285,0,7.713,1.009,10.282,3.027c2.57,2.018,3.855,4.639,3.855,7.864h-9.019c0-1.29-0.417-2.356-1.249-3.199
			c-0.832-0.842-2.132-1.264-3.901-1.264c-1.519,0-2.694,0.344-3.526,1.03c-0.832,0.687-1.248,1.56-1.248,2.622
			c0,0.998,0.473,1.805,1.42,2.418c0.946,0.614,2.543,1.144,4.79,1.592c2.247,0.447,4.14,0.952,5.68,1.513
			c4.764,1.748,7.146,4.775,7.146,9.082c0,3.079-1.321,5.57-3.963,7.474c-2.643,1.903-6.054,2.855-10.236,2.855
			c-2.83,0-5.342-0.504-7.537-1.513c-2.195-1.009-3.916-2.393-5.165-4.151c-1.248-1.758-1.872-3.656-1.872-5.695h8.551
			c0.083,1.602,0.676,2.829,1.779,3.682c1.102,0.854,2.579,1.28,4.431,1.28c1.727,0,3.032-0.328,3.917-0.983
			C325.859,50.9624,326.301,50.1044,326.301,49.0434"/>
		<path fill="#646363" d="M350.5796,16.3068v8.301h5.773v6.616h-5.773v16.852c0,1.249,0.239,2.143,0.718,2.684
			c0.478,0.541,1.393,0.811,2.746,0.811c0.999,0,1.883-0.072,2.653-0.218v6.835c-1.769,0.54-3.589,0.811-5.462,0.811
			c-6.324,0-9.549-3.194-9.674-9.581v-18.194h-4.931v-6.616h4.931v-8.301H350.5796z"/>
		<path fill="#646363" d="M366.7552,41.8193c0,3.209,0.603,5.663,1.81,7.361c1.206,1.698,2.934,2.547,5.18,2.547
			c2.185,0,3.891-0.839,5.118-2.516c1.228-1.677,1.842-4.36,1.842-8.048c0-3.146-0.614-5.584-1.842-7.314
			c-1.227-1.729-2.954-2.594-5.18-2.594c-2.206,0-3.912,0.86-5.118,2.578C367.3582,35.5533,366.7552,38.2153,366.7552,41.8193
			 M357.7362,41.1793c0-3.349,0.645-6.335,1.935-8.957c1.29-2.621,3.146-4.65,5.57-6.085c2.424-1.436,5.238-2.153,8.442-2.153
			c4.556,0,8.2749,1.394,11.157,4.181c2.8809,2.789,4.4879,6.575,4.821,11.36l0.062,2.309c0,5.181-1.445,9.337-4.337,12.468
			s-6.772,4.696-11.641,4.696c-4.868,0-8.753-1.56-11.656-4.681c-2.902-3.121-4.353-7.365-4.353-12.732V41.1793z"/>
		<path fill="#646363" d="M402.7904,58.3741h-9.0501v-33.766h9.0501V58.3741z M393.2094,15.8701c0-1.352,0.4519-2.465,1.357-3.339
			c0.9049-0.874,2.138-1.311,3.6989-1.311c1.539,0,2.766,0.437,3.682,1.311c0.915,0.874,1.373,1.987,1.373,3.339
			c0,1.373-0.463,2.497-1.3889,3.37c-0.925,0.874-2.1481,1.311-3.6661,1.311c-1.5189,0-2.742-0.437-3.667-1.311
			C393.6723,18.3671,393.2094,17.2431,393.2094,15.8701"/>
		<path fill="#646363" d="M427.4596,33.0652c-1.228-0.166-2.309-0.25-3.246-0.25c-3.412,0-5.648,1.155-6.709,3.464v22.095h-9.019
			v-33.766h8.519l0.25,4.026c1.81-3.1,4.317-4.65,7.521-4.65c0.999,0,1.935,0.135,2.809,0.405L427.4596,33.0652z"/>
		<path fill="#646363" d="M444.5256,31.2555c-1.789,0-3.241,0.606-4.353,1.818c-1.114,1.212-1.826,2.947-2.138,5.203h12.545v-0.721
			c-0.042-2.006-0.582-3.557-1.623-4.655C447.9166,31.8035,446.4396,31.2555,444.5256,31.2555 M445.5556,58.9985
			c-4.952,0-8.983-1.518-12.093-4.556c-3.11-3.038-4.666-7.084-4.666-12.14v-0.874c0-3.391,0.656-6.423,1.966-9.097
			c1.311-2.673,3.168-4.732,5.571-6.179c2.403-1.445,5.144-2.169,8.223-2.169c4.619,0,8.255,1.457,10.907,4.369
			c2.653,2.914,3.979,7.043,3.979,12.39v3.682h-21.502c0.291,2.206,1.171,3.974,2.637,5.306c1.467,1.331,3.324,1.997,5.571,1.997
			c3.474,0,6.189-1.259,8.145-3.776l4.431,4.962c-1.352,1.914-3.183,3.407-5.492,4.478
			C450.9226,58.4625,448.3646,58.9985,445.5556,58.9985"/>
		<path fill="#646363" d="M462.6641,52.543c0-1.436,0.4839-2.6,1.451-3.495c0.967-0.894,2.1789-1.342,3.636-1.342
			c1.4769,0,2.6989,0.448,3.6669,1.342c0.967,0.895,1.451,2.059,1.451,3.495c0,1.415-0.479,2.564-1.4359,3.449
			c-0.9571,0.884-2.1841,1.326-3.682,1.326c-1.4781,0-2.6951-0.442-3.651-1.326C463.142,55.107,462.6641,53.958,462.6641,52.543"/>
		<path fill="#646363" d="M491.4331,51.7273c1.664,0,3.016-0.457,4.057-1.373c1.04-0.915,1.581-2.133,1.623-3.651h8.457
			c-0.021,2.288-0.645,4.384-1.873,6.288c-1.227,1.904-2.907,3.381-5.04,4.431c-2.132,1.051-4.489,1.576-7.068,1.576
			c-4.827,0-8.634-1.534-11.422-4.603c-2.788-3.068-4.182-7.307-4.182-12.717v-0.593c0-5.201,1.384-9.351,4.151-12.451
			s6.564-4.65,11.391-4.65c4.223,0,7.609,1.201,10.158,3.604c2.548,2.403,3.843,5.602,3.885,9.596h-8.457
			c-0.042-1.756-0.583-3.184-1.623-4.282c-1.041-1.098-2.414-1.647-4.119-1.647c-2.102,0-3.688,0.766-4.76,2.297
			c-1.071,1.532-1.607,4.017-1.607,7.454v0.938c0,3.48,0.531,5.981,1.592,7.501C487.6571,50.9673,489.2691,51.7273,491.4331,51.7273
			"/>
		<path fill="#646363" d="M518.2287,28.2906c2.392-2.871,5.399-4.307,9.019-4.307c7.323,0,11.037,4.255,11.141,12.764v21.627h-9.019
			v-21.377c0-1.935-0.416-3.365-1.248-4.291c-0.832-0.926-2.216-1.389-4.151-1.389c-2.642,0-4.556,1.02-5.742,3.059v23.998h-9.019
			v-47.935h9.019V28.2906z"/>
		<g>
			<path fill="#646363" d="M43.0993,78.431c-0.2749,0-0.5542-0.0547-0.8227-0.1689c-0.5498-0.2344-13.523-5.8799-18.4619-17.7325
				c-2.8658-6.8779-2.9737-13.1113-0.3042-17.5527c1.9174-3.1904,5.1718-5.1543,9.1635-5.5293
				c3.3379-0.311,6.1743,0.4751,8.4248,2.3457c3.8462,3.1953,4.503,8.4512,4.5957,9.4727c0.0064,0.0722,0.8579,7.3896,8.1358,6.8457
				c2.8662-0.2159,4.9487-1.1651,6.1894-2.8233c1.418-1.8935,1.7686-4.7627,1.0137-8.2949
				c-0.7964-3.7256-5.8701-22.313-27.5801-22.313c-9.0073,0-16.9521,3.6641-21.7978,10.0523
				C6.2951,39.8006,5.0402,49.7562,8.1228,60.764c0.3125,1.1172-0.3394,2.2764-1.4561,2.5889
				c-1.1201,0.3115-2.2764-0.3389-2.5889-1.4561C0.633,49.5931,2.1355,38.3343,8.3093,30.1947
				c5.6465-7.4444,14.811-11.7144,25.144-11.7144c19.3433,0,29.1592,13.8101,31.6875,25.6353
				c1.0157,4.7539,0.4077,8.7959-1.7588,11.6904c-1.9716,2.6338-5.166,4.1875-9.2373,4.4932
				c-8.437,0.6504-12.2265-6.1973-12.6328-10.6534c-0.0405-0.4492-0.4731-4.4414-3.0971-6.622
				c-1.3799-1.1465-3.1275-1.6006-5.3482-1.3946c-2.6665,0.251-4.7261,1.4649-5.9565,3.5118
				c-1.9356,3.2207-1.7237,8.2412,0.5815,13.7734c4.2886,10.292,16.1138,15.4336,16.2324,15.4844
				c1.0669,0.4551,1.563,1.6885,1.1079,2.7558C44.6916,77.9525,43.9152,78.431,43.0993,78.431z M25.1696,77.1048
				c-0.52,0-1.041-0.1914-1.4477-0.5791C16.2736,69.4339,13.34,61.8197,12.1906,56.68c-1.4604-6.5302-0.8828-12.7724,1.5855-17.1274
				c2.7275-4.8101,10.8056-15.5337,26.8652-11.2515C51.073,31.1117,54.9148,42.7572,56.0832,47.638
				c0.0571,0.1631,0.0947,0.336,0.1099,0.5166c0.0918,1.0948-0.6753,2.0996-1.7598,2.2735
				c-0.1948,0.0312-1.9409,0.251-2.4336-1.8096c-0.7749-3.2363-3.9614-13.9746-12.4458-16.2602
				c-12.7485-3.4004-19.334,4.3457-22.124,9.2661c-3.4312,6.0527-2.8838,20.3652,9.1885,31.8603
				c0.8398,0.7998,0.8725,2.1289,0.0727,2.9688C26.278,76.8871,25.7243,77.1048,25.1696,77.1048z M52.2312,69.7181
				c-4.9019,0-9.0987-1.3808-12.5166-4.124c-7.4585-5.9863-8.3223-16.2451-8.355-16.6787c-0.0884-1.1572,0.7773-2.166,1.9341-2.2539
				c1.1474-0.0811,2.163,0.7754,2.2534,1.9306c0.0107,0.1309,0.7969,8.9307,6.8183,13.7442
				c3.4053,2.7207,7.9268,3.7021,13.438,2.915c1.1499-0.168,2.2115,0.6338,2.376,1.7822c0.1641,1.1485-0.6338,2.212-1.7822,2.376
				C54.9577,69.6146,53.5676,69.7181,52.2312,69.7181z M67.1145,31.1971c-0.7159,0.0005-1.4136-0.3662-1.8062-1.0259
				c-0.4009-0.6665-10.1172-16.416-31.7378-16.416c-20.1269,0-29.6411,13.6201-29.7348,13.7578
				c-0.6529,0.9576-1.961,1.2051-2.918,0.5528c-0.9585-0.6529-1.2061-1.9595-0.5528-2.918
				C0.7985,24.5111,11.2468,9.555,33.5705,9.555c24.0747,0,34.8975,17.7139,35.3462,18.4678
				c0.5938,0.9966,0.2666,2.2852-0.73,2.8784C67.8503,31.1019,67.4797,31.1971,67.1145,31.1971z M10.8225,10.3729
				c-0.7305,0-1.44-0.3818-1.8272-1.062C8.4216,8.3031,8.7741,7.0208,9.7819,6.4471C34.6706-7.7169,57.0124,5.7884,57.9514,6.37
				c0.9858,0.6108,1.29,1.9052,0.6792,2.8911c-0.6104,0.9848-1.9038,1.29-2.8887,0.6806
				C55.5222,9.807,34.5241-2.8009,11.8591,10.0975C11.5315,10.284,11.1745,10.3729,10.8225,10.3729z"/>
		</g>
	</g>
</g>
</svg>
