<?xml version="1.0" encoding="utf-8"?>
<!-- Generator: Adobe Illustrator 19.0.0, SVG Export Plug-In . SVG Version: 6.00 Build 0)  -->
<svg version="1.1" id="XMLID_1_" xmlns="http://www.w3.org/2000/svg" xmlns:xlink="http://www.w3.org/1999/xlink" x="0px" y="0px"
	 viewBox="0 0 1751.1398 254.8962" enable-background="new 0 0 1751.1398 254.8962" xml:space="preserve">
<g id="nh-brand">
	<g>
		<g>
			<path fill="#D21419" d="M318.8059,108.323c0-2.2312,0.0325-4.495,0.1008-6.7946c0.0683-2.2996,0.3057-4.6707,0.7123-7.1101
				l-14.7178,0.8359v-8.9901c4.5308,0,8.2192-0.1561,11.062-0.4716c2.8427-0.3122,5.126-0.7481,6.8531-1.3075
				c1.7238-0.5562,3.0607-1.1644,4.0072-1.8279c0.9465-0.6635,1.8279-1.3758,2.6411-2.1434h5.988
				c0.1334,1.6035,0.2862,3.4347,0.4554,5.4871c0.1691,2.0589,0.322,4.5503,0.4586,7.4776
				c2.2313-2.0231,4.6837-3.9031,7.3573-5.6464c2.6736-1.7434,5.4643-3.2591,8.3754-4.5471
				c2.9078-1.2913,5.9034-2.3028,8.9835-3.0314c3.0769-0.7318,6.1051-1.0994,9.0844-1.0994
				c12.0442,0,20.8424,3.8868,26.3912,11.6572c5.5489,7.7736,8.3233,19.8471,8.3233,36.227v39.9381
				c0,2.859-0.0358,5.383-0.1008,7.5785c-0.0683,2.1955-0.3058,4.5145-0.7123,6.9539l13.0948-0.6277v8.7819h-42.4296v-6.3783
				c3.181,0,5.5977-0.644,7.2597-1.9353c1.6555-1.288,2.8557-3.0834,3.6006-5.383c0.7448-2.2996,1.1677-5.0512,1.2717-8.2583
				c0.1008-3.207,0.1496-6.7263,0.1496-10.5611v-29.9007c-0.1366-12.3369-2.0979-21.623-5.8871-27.8614
				c-3.7892-6.2384-9.813-9.3576-18.068-9.3576c-2.5045,0-5.0089,0.3838-7.5102,1.1482c-2.5045,0.7709-4.9081,1.7629-7.2077,2.9826
				c-2.2996,1.2197-4.4657,2.6638-6.4953,4.3389c-2.0296,1.6718-3.7892,3.4835-5.2789,5.435
				c0.0683,1.2555,0.1008,2.5988,0.1008,4.0267v4.3389l-0.2017,54.6787c0,2.859-0.0357,5.383-0.1008,7.5785
				c-0.0683,2.1955-0.3058,4.5145-0.7123,6.9539l13.0948-0.6277v8.7819h-42.4296v-6.3783c3.181,0,5.6009-0.644,7.2597-1.9353
				c1.6555-1.288,2.8427-3.0834,3.5518-5.383c0.7123-2.2996,1.1156-5.0512,1.2165-8.2583c0.1041-3.207,0.1887-6.7263,0.257-10.5611
				L318.8059,108.323z"/>
		</g>
		<g>
			<path fill="#D21419" d="M475.2816,87.3079c-5.4806,0-10.1675,1.2587-14.0576,3.7697c-3.8933,2.511-7.0906,5.8611-9.5918,10.0471
				c-2.5044,4.186-4.3486,8.9998-5.5326,14.4446c-1.184,5.4415-1.7759,11.0912-1.7759,16.9556
				c0,6.6287,0.6603,13.0818,1.9775,19.3592c1.3205,6.2807,3.3339,11.8458,6.04,16.6954
				c2.7061,4.8496,6.1051,8.7364,10.2033,11.6702c4.0917,2.9306,8.8795,4.3942,14.36,4.3942c5.4806,0,10.0992-1.2717,13.8559-3.8185
				c3.7567-2.5468,6.8011-5.9132,9.1365-10.1024c2.3353-4.1828,4.0104-8.9641,5.0252-14.3373
				c1.0148-5.3732,1.5222-10.8831,1.5222-16.536c0-6.4205-0.5757-12.7695-1.7271-19.0502
				c-1.1514-6.2774-2.9793-11.8946-5.4805-16.8482c-2.5045-4.9536-5.7343-8.9673-9.6926-12.0377S480.8304,87.3079,475.2816,87.3079
				 M475.2816,79.1537c7.3085,0,14.1421,1.3758,20.5041,4.1308c6.3588,2.7549,11.8914,6.5506,16.5945,11.397
				c4.7032,4.8431,8.4274,10.5936,11.166,17.2483c2.7419,6.658,4.1113,13.8526,4.1113,21.5905
				c0,8.294-1.3369,16.0644-4.0104,23.3143c-2.6736,7.25-6.3621,13.5567-11.062,18.9234
				c-4.7065,5.3667-10.2521,9.6015-16.6466,12.7012c-6.3946,3.1029-13.2834,4.6544-20.657,4.6544
				c-7.3085,0-14.1259-1.3433-20.4521-4.0267c-6.3295-2.6834-11.8425-6.4303-16.5457-11.2376
				c-4.7032-4.8105-8.4079-10.5415-11.114-17.1995c-2.7094-6.6547-4.0624-13.9567-4.0624-21.9027
				c0-8.4306,1.3368-16.2921,4.0104-23.5745c2.6736-7.2825,6.3457-13.5924,11.0132-18.9234
				c4.6707-5.3342,10.1838-9.517,16.5458-12.5484C461.0354,80.6694,467.9048,79.1537,475.2816,79.1537"/>
		</g>
		<g>
			<path fill="#D21419" d="M530.6534,82.6044c3.6526-0.0683,6.9702-1.0994,9.9464-3.0834c2.9793-1.9873,5.6009-4.4593,7.8679-7.4223
				c2.267-2.9631,4.1763-6.1864,5.7343-9.6731c1.5547-3.4835,2.7744-6.7588,3.6559-9.826h7.1035
				c0,5.7147-0.0162,11.0457-0.0488,15.9961c-0.0358,4.9504-0.052,9.6178-0.052,14.0088h35.017V90.97l-35.017,0.4163
				c-0.0684,9.2698-0.1008,17.1833-0.1008,23.7339c0,6.5506-0.0195,12.0214-0.0521,16.4124
				c-0.0358,4.3909-0.0488,7.8582-0.0488,10.4017c0,2.5468-0.0195,4.482-0.052,5.8058c-0.0358,1.3238-0.0521,2.1759-0.0521,2.5598
				v0.6798c0,4.8788,0.2537,9.1852,0.7612,12.9127c0.5073,3.7274,1.3726,6.8661,2.589,9.4096
				c1.2197,2.5435,2.8265,4.4593,4.8235,5.7505c1.9938,1.288,4.5145,1.932,7.559,1.932c3.5875,0,7.1393-1.1124,10.6586-3.3436
				c3.5193-2.2312,6.632-5.4025,9.3381-9.5137l5.5847,4.7032c-3.0477,4.739-6.0758,8.4534-9.0844,11.1335
				c-3.0119,2.6866-5.8741,4.7065-8.577,6.066c-2.7094,1.3563-5.2301,2.2117-7.5621,2.5598
				c-2.3354,0.348-4.3845,0.5237-6.1409,0.5237c-2.1011,0-4.2478-0.1756-6.4465-0.5237c-2.1987-0.348-4.365-1.0278-6.4954-2.0394
				c-2.1337-1.0083-4.1308-2.4394-5.9912-4.2869c-1.8605-1.8442-3.4998-4.2316-4.9211-7.1589
				c-1.4213-2.9273-2.537-6.4823-3.3501-10.6651c-0.8132-4.1828-1.184-9.1299-1.1157-14.8447l0.4066-61.8961l-15.9375,0.1073
				V82.6044z"/>
		</g>
		<g>
			<path fill="#D21419" d="M671.277,90.8633c-2.6378-0.0683-5.3147,0.4359-8.0176,1.5157
				c-2.7094,1.0831-5.3635,2.6671-7.9688,4.7585c-2.6053,2.0914-5.061,4.5991-7.3605,7.5264
				c-2.2996,2.9273-4.3649,6.1701-6.1896,9.7219l0.2017,52.5906c0,2.859-0.0358,5.383-0.1008,7.5785
				c-0.0683,2.1955-0.3057,4.5145-0.7123,6.9539l13.0948-0.6277v8.7819h-42.6313v-6.3783c3.181,0,5.5977-0.644,7.2565-1.9353
				c1.6588-1.288,2.859-3.0834,3.6038-5.383c0.7448-2.2996,1.1677-5.0512,1.2686-8.2583c0.1041-3.207,0.1528-6.7263,0.1528-10.5611
				v-48.9282c0-2.228,0.0325-4.4788,0.1008-6.7426c0.0684-2.2638,0.3058-4.6186,0.7123-7.058l-14.7178,0.6277v-8.7819h6.3945
				c2.9761,0,5.4448-0.1561,7.4094-0.4716c1.9612-0.3122,3.6038-0.7481,4.9244-1.3075c1.3173-0.5562,2.4166-1.1644,3.2981-1.8279
				c0.8782-0.6603,1.7238-1.3758,2.537-2.1434h5.9879c0.205,2.2313,0.3903,5.0024,0.5594,8.3103
				c0.1659,3.3111,0.3188,7.5817,0.4554,12.8086c1.558-2.6476,3.5551-5.3147,5.988-7.998c2.4362-2.6834,5.178-5.087,8.2224-7.2142
				c3.0444-2.1239,6.3263-3.8673,9.8455-5.2269c3.5193-1.3596,7.1393-2.0394,10.8635-2.0394c1.893,0,3.7372,0.2602,5.5294,0.7839
				c1.7921,0.5237,3.3501,1.3433,4.6707,2.4589c1.3206,1.1156,2.3842,2.5077,3.1973,4.1795
				c0.8131,1.6751,1.2164,3.6949,1.2164,6.066c0,0.9758-0.1854,2.0556-0.5562,3.2396c-0.374,1.1872-0.9822,2.2995-1.8279,3.3469
				c-0.8456,1.0441-1.9125,1.9158-3.1973,2.6118c-1.2847,0.6993-2.8785,1.0473-4.7715,1.0473c-1.558,0-2.9598-0.348-4.212-1.0473
				c-1.2523-0.696-2.2996-1.584-3.1452-2.6638c-0.8489-1.0798-1.4572-2.3353-1.828-3.7665
				C671.1567,93.9825,671.0753,92.4668,671.277,90.8633"/>
		</g>
		<g>
			<path fill="#D21419" d="M745.4841,87.6244c-8.1183,0-14.8187,2.4459-20.0975,7.3443s-8.7656,12.8346-10.4537,23.8087h52.9841
				c0-3.7502-0.4066-7.4809-1.2197-11.2018c-0.8099-3.7144-2.1141-7.0483-3.9063-10.0016c-1.7954-2.9501-4.1112-5.3472-6.954-7.1881
				C752.9943,88.5449,749.5433,87.6244,745.4841,87.6244 M787.5071,126.5152l-73.1858,1.2555
				c-0.0683,8.2387,0.5432,15.7131,1.8279,22.4166c1.2848,6.7035,3.3143,12.4313,6.092,17.1768
				c2.7712,4.752,6.3425,8.4176,10.7075,11.0001c4.3649,2.5858,9.5917,3.877,15.6838,3.877c3.246,0,6.5604-0.4586,9.9463-1.3693
				c3.3827-0.9107,6.6483-2.1532,9.7935-3.7339c3.1485-1.5775,6.04-3.4672,8.6811-5.6757c2.6378-2.2085,4.8365-4.5764,6.5962-7.1003
				l5.074,4.2869c-2.8395,4.4593-6.1408,8.242-9.8943,11.3417c-3.7567,3.1029-7.65,5.6302-11.6734,7.5817
				c-4.0267,1.9515-8.0696,3.3631-12.1288,4.2348c-4.0624,0.8684-7.8517,1.3043-11.371,1.3043
				c-7.1719,0-13.8526-1.3238-20.0455-3.9714s-11.5563-6.4466-16.0872-11.397c-4.5373-4.9471-8.1053-10.9058-10.7106-17.8761
				c-2.6053-6.9702-3.9063-14.8121-3.9063-23.5257c0-7.5264,1.249-14.7211,3.7534-21.5872s6.0563-12.9452,10.6586-18.2436
				c4.6024-5.2952,10.1155-9.5137,16.5458-12.6524c6.4271-3.1355,13.5664-4.7032,21.418-4.7032
				c5.7505,0,11.1791,0.9758,16.2888,2.9273c5.1098,1.9515,9.5951,4.8788,13.4493,8.7819
				c3.8575,3.9031,6.9052,8.8339,9.1364,14.7926C786.3915,111.6152,787.5071,118.5692,787.5071,126.5152"/>
		</g>
	</g>
	<g>
		<polygon fill="#646464" points="933.4406,189.6626 902.9901,189.6626 902.9901,126.3256 843.6082,126.3256 843.6082,189.6626 
			813.1578,189.6626 813.1578,41.873 843.6082,41.873 843.6082,101.759 902.9901,101.759 902.9901,41.873 933.4406,41.873 		"/>
	</g>
	<g>
		<g>
			<path fill="#646464" d="M984.0558,189.661h-29.4357V79.8352h29.4357V189.661z M952.8931,51.4143
				c0-4.3974,1.4702-8.0175,4.4169-10.8603c2.9435-2.8427,6.9508-4.2641,12.0281-4.2641c5.0056,0,8.9965,1.4214,11.9758,4.2641
				c2.9761,2.8427,4.4658,6.4628,4.4658,10.8603c0,4.4658-1.506,8.1216-4.5146,10.9611c-3.0151,2.8427-6.9898,4.2641-11.9271,4.2641
				c-4.9407,0-8.9185-1.4214-11.9272-4.2641C954.399,59.536,952.8931,55.8801,952.8931,51.4143"/>
		</g>
		<g>
			<path fill="#646464" d="M1061.3123,159.3127c0-3.5843-1.776-6.4108-5.3278-8.4762c-3.5551-2.0621-9.2568-3.9063-17.1052-5.5326
				c-26.1213-5.4806-39.1803-16.575-39.1803-33.2932c0-9.7414,4.043-17.8793,12.1288-24.4104
				c8.0858-6.5311,18.6599-9.7935,31.7222-9.7935c13.9371,0,25.087,3.2818,33.4427,9.8455
				c8.3591,6.5637,12.5387,15.0886,12.5387,25.5781h-29.3348c0-4.1958-1.3563-7.663-4.0624-10.4049
				c-2.7062-2.7386-6.9346-4.1112-12.6882-4.1112c-4.9407,0-8.7625,1.1189-11.4685,3.3501
				c-2.7062,2.2345-4.0593,5.074-4.0593,8.5282c0,3.2461,1.5386,5.8709,4.6187,7.8647c3.077,1.9971,8.2712,3.7209,15.5798,5.1781
				c7.3085,1.4539,13.4656,3.0964,18.4745,4.9211c15.4952,5.6855,23.2428,15.531,23.2428,29.5397
				c0,10.0146-4.2966,18.1167-12.8899,24.3096c-8.5966,6.1896-19.691,9.286-33.2932,9.286c-9.2047,0-17.3751-1.6393-24.5145-4.9211
				c-7.1394-3.2818-12.7371-7.7834-16.7995-13.5014c-4.0591-5.718-6.0888-11.8913-6.0888-18.5233h27.8127
				c0.2699,5.2106,2.1987,9.2015,5.7863,11.9759c3.5844,2.7777,8.3884,4.1633,14.4121,4.1633c5.6171,0,9.8617-1.0668,12.7402-3.1973
				C1059.8745,165.5543,1061.3123,162.7636,1061.3123,159.3127"/>
		</g>
		<g>
			<path fill="#646464" d="M1140.2798,52.8347v26.9995h18.777v21.5189h-18.777v54.8121c0,4.0625,0.7773,6.9702,2.3353,8.7299
				c1.5547,1.7596,4.5309,2.6378,8.9315,2.6378c3.2493,0,6.1245-0.2342,8.629-0.7091v22.2312
				c-5.7538,1.7564-11.6735,2.6378-17.7654,2.6378c-20.5692,0-31.0587-10.3887-31.4653-31.1628v-59.177h-16.0383V79.8342h16.0383
				V52.8347H1140.2798z"/>
		</g>
		<g>
			<path fill="#646464" d="M1192.8917,135.8159c0,10.4375,1.9613,18.4192,5.8872,23.9421c3.9225,5.5228,9.543,8.2843,16.8481,8.2843
				c7.1069,0,12.6558-2.7289,16.6466-8.1834c3.9941-5.4545,5.9913-14.1811,5.9913-26.1766c0-10.2326-1.9972-18.1623-5.9913-23.7892
				c-3.9908-5.6237-9.608-8.4371-16.8481-8.4371c-7.1752,0-12.7241,2.7972-16.6466,8.3851
				C1194.853,115.4354,1192.8917,124.0937,1192.8917,135.8159 M1163.557,133.7343c0-10.8928,2.0979-20.6049,6.2937-29.1331
				c4.1957-8.525,10.2325-15.1244,18.1167-19.7918c7.8842-4.6707,17.0369-7.0028,27.4581-7.0028
				c14.8186,0,26.9148,4.5341,36.2887,13.5989c9.3706,9.0714,14.5975,21.3856,15.6807,36.949l0.2017,7.5102
				c0,16.8515-4.7,30.3691-14.1063,40.5529c-9.4065,10.1837-22.0264,15.274-37.8632,15.274
				c-15.8334,0-28.4696-5.074-37.9117-15.2252c-9.4388-10.1512-14.1583-23.9551-14.1583-41.4115V133.7343z"/>
		</g>
		<g>
			<path fill="#646464" d="M1310.0984,189.661h-29.4358V79.8352h29.4358V189.661z M1278.9357,51.4143
				c0-4.3974,1.4701-8.0175,4.4137-10.8603c2.9435-2.8427,6.954-4.2641,12.0311-4.2641c5.0056,0,8.9966,1.4214,11.976,4.2641
				c2.9761,2.8427,4.4657,6.4628,4.4657,10.8603c0,4.4658-1.5059,8.1216-4.5178,10.9611
				c-3.0085,2.8427-6.9865,4.2641-11.9238,4.2641c-4.9407,0-8.9185-1.4214-11.9271-4.2641
				C1280.4415,59.536,1278.9357,55.8801,1278.9357,51.4143"/>
		</g>
		<g>
			<path fill="#646464" d="M1390.3359,107.3424c-3.9941-0.5399-7.5101-0.8131-10.5577-0.8131
				c-11.0978,0-18.3705,3.7567-21.8214,11.2669v71.8652h-29.335V79.8355h27.7119l0.8098,13.0948
				c5.8872-10.0829,14.0414-15.1244,24.4625-15.1244c3.2493,0,6.2937,0.4391,9.1365,1.3173L1390.3359,107.3424z"/>
		</g>
		<g>
			<path fill="#646464" d="M1445.8444,101.4565c-5.8187,0-10.5415,1.971-14.1583,5.9132c-3.6234,3.9421-5.9392,9.5853-6.954,16.923
				h40.8033v-2.3451c-0.1366-6.5246-1.8931-11.5693-5.2789-15.1406C1456.8738,103.2389,1452.0697,101.4565,1445.8444,101.4565
				 M1449.1946,191.6922c-16.1068,0-29.2178-4.9374-39.3333-14.8186c-10.1154-9.8813-15.1764-23.0411-15.1764-39.486v-2.8427
				c0-11.0294,2.1337-20.8912,6.3945-29.5885c4.264-8.6941,10.3041-15.3911,18.12-20.0975
				c7.8159-4.6999,16.7312-7.0548,26.7457-7.0548c15.0237,0,26.8499,4.739,35.4757,14.2104
				c8.6289,9.4779,12.9419,22.9078,12.9419,40.2992v11.9759h-69.9365c0.9465,7.1751,3.8088,12.9257,8.577,17.2581
				c4.7715,4.3292,10.8115,6.4954,18.12,6.4954c11.2994,0,20.13-4.095,26.4921-12.2817l14.4153,16.1392
				c-4.4006,6.2254-10.3561,11.0815-17.8663,14.565C1466.651,189.9488,1458.3309,191.6922,1449.1946,191.6922"/>
		</g>
		<g>
			<path fill="#646464" d="M1504.8409,170.695c0-4.6707,1.5741-8.4566,4.7194-11.3677c3.1453-2.9078,7.0873-4.3649,11.8263-4.3649
				c4.8041,0,8.7787,1.4571,11.9271,4.3649c3.1453,2.911,4.7195,6.697,4.7195,11.3677c0,4.6024-1.558,8.3396-4.6707,11.2181
				c-3.1128,2.8753-7.1036,4.3129-11.976,4.3129c-4.8073,0-8.7656-1.4376-11.8751-4.3129
				C1506.3956,179.0346,1504.8409,175.2974,1504.8409,170.695"/>
		</g>
		<g>
			<path fill="#646464" d="M1598.4135,168.0422c5.4121,0,9.8097-1.4864,13.1956-4.4658c3.3827-2.9761,5.1422-6.9377,5.2789-11.8751
				h27.5068c-0.0682,7.4418-2.0979,14.2592-6.092,20.4521c-3.9908,6.1929-9.4551,10.9969-16.3928,14.4121
				c-6.9346,3.4184-14.5975,5.126-22.9891,5.126c-15.7001,0-28.0826-4.9894-37.1508-14.9715
				c-9.068-9.9789-13.6022-23.7664-13.6022-41.3628v-1.9288c0-16.9165,4.5016-30.4147,13.5013-40.4976
				c8.9999-10.0829,21.3499-15.1244,37.0499-15.1244c13.7356,0,24.7487,3.9063,33.0396,11.7222
				c8.2875,7.8159,12.4995,18.2208,12.6361,31.2115h-27.5068c-0.1367-5.7115-1.8962-10.3561-5.2789-13.9275
				c-3.3859-3.5713-7.8517-5.357-13.3972-5.357c-6.8369,0-11.9955,2.4915-15.4823,7.4711
				c-3.4834,4.9829-5.2268,13.0655-5.2268,24.2446v3.0509c0,11.3189,1.7272,19.4535,5.1781,24.3974
				C1586.1318,165.5703,1591.3749,168.0422,1598.4135,168.0422"/>
		</g>
		<g>
			<path fill="#646464" d="M1685.5684,91.813c7.78-9.3381,17.5604-14.0088,29.3347-14.0088
				c23.8185,0,35.8984,13.8396,36.2367,41.5156v70.343h-29.3347V120.133c0-6.2937-1.3531-10.9448-4.0593-13.9567
				c-2.7092-3.0119-7.2078-4.5178-13.5015-4.5178c-8.5931,0-14.8185,3.3176-18.6759,9.9496v78.0548h-29.3348V33.7517h29.3348V91.813
				z"/>
		</g>
		<g>
			<path fill="#D9D9D9" d="M140.1831,254.8962c-0.894,0-1.8022-0.1768-2.6768-0.5488c-1.7881-0.7627-43.9834-19.124-60.0474-57.6748
				c-9.3203-22.3691-9.6724-42.6436-0.9907-57.0898c6.2373-10.3789,16.8223-16.7666,29.8047-17.9868
				c10.8657-1.0186,20.084,1.5469,27.4033,7.6294c12.5093,10.3945,14.6465,27.4883,14.9478,30.8096
				c0.022,0.2373,2.8374,24.0518,26.4609,22.2656c9.3228-0.7002,16.0967-3.7891,20.1328-9.1807
				c4.6123-6.1611,5.7524-15.4893,3.2974-26.9775c-2.5908-12.1191-19.0942-72.5772-89.7066-72.5772
				c-29.2974,0-55.1387,11.917-70.8984,32.6958c-17.436,22.9888-21.5171,55.3677-11.4917,91.1733
				c1.0176,3.6328-1.103,7.4023-4.7354,8.4189c-3.6323,1.0195-7.4019-1.1025-8.4189-4.7354
				C2.0586,161.0993,6.9463,124.4802,27.0259,98.0056C45.3911,73.7917,75.1997,59.904,108.8086,59.904
				c31.6104,0,57.4224,10.7319,76.7202,31.8975c18.084,19.835,24.4482,42.6123,26.3452,51.4854
				c3.3042,15.4609,1.3257,28.6074-5.7207,38.0195c-6.4136,8.5674-16.8027,13.6211-30.0449,14.6172
				c-27.4409,2.0498-39.7676-20.1602-41.0889-34.6514c-0.1323-1.46-1.5391-14.4473-10.0742-21.54
				c-4.4878-3.7295-10.1763-5.2178-17.395-4.5352c-8.6724,0.8154-15.3721,4.7646-19.373,11.4229
				c-6.2954,10.4756-5.6064,26.8037,1.8916,44.7988c13.9492,33.4756,52.4102,50.1973,52.7969,50.3623
				c3.4697,1.4805,5.083,5.4932,3.603,8.9629C145.3618,253.3396,142.8369,254.8962,140.1831,254.8962z M81.8667,250.5847
				c-1.6919,0-3.3867-0.624-4.709-1.8828c-24.2275-23.0664-33.7695-47.834-37.5078-64.5488
				c-4.7505-21.2412-2.8706-41.5469,5.1587-55.71c8.8696-15.645,35.1357-50.5327,87.3799-36.5957
				c33.9282,9.1411,46.4243,47.0176,50.2251,62.8926c0.1855,0.5312,0.3071,1.0938,0.3564,1.6807
				c0.2993,3.5596-2.1953,6.8291-5.7222,7.3955c-0.6421,0.1055-6.314,0.8135-7.917-5.8848
				c-2.519-10.5273-12.8843-45.4541-40.4795-52.8892c-41.4702-11.0601-62.8862,14.1348-71.959,30.1382
				c-11.1616,19.6895-9.3823,66.2412,29.8853,103.627c2.7319,2.6016,2.8379,6.9248,0.2368,9.6572
				C85.4721,249.8747,83.6709,250.5847,81.8667,250.5847z M169.8848,226.5564c-15.9419,0-29.5947-4.4893-40.7119-13.4131
				c-24.2583-19.4707-27.0669-52.8369-27.1748-54.248c-0.2871-3.7607,2.5293-7.043,6.2905-7.3301
				c3.7559-0.2861,7.0371,2.5234,7.3296,6.2793c0.0352,0.4229,2.5908,29.0459,22.1773,44.7031
				c11.0752,8.8525,25.7808,12.0449,43.708,9.4824c3.729-0.5342,7.1938,2.0605,7.7275,5.7959
				c0.5337,3.7344-2.0615,7.1943-5.7959,7.7275C178.7514,226.2224,174.2329,226.5564,169.8848,226.5564z M218.2925,101.2683
				c-2.3286,0-4.5977-1.1914-5.8755-3.3374c-0.0732-0.1226-8.2817-13.6069-25.1206-26.8584
				c-22.3755-17.6084-48.6548-26.5366-78.1074-26.5366c-65.4639,0-96.4087,44.2998-96.7134,44.7471
				c-2.1245,3.1167-6.373,3.9233-9.4907,1.7983c-3.1177-2.1245-3.9224-6.3735-1.7983-9.4907
				c1.4111-2.0708,35.394-50.7158,108.0024-50.7158c40.8784,0,69.897,16.2314,87.0425,29.8477
				c18.6255,14.7915,27.5527,29.5972,27.9238,30.2202c1.9297,3.2412,0.8662,7.4336-2.375,9.3633
				C220.685,100.9577,219.4809,101.2683,218.2925,101.2683z M35.1997,33.5334c-2.376,0-4.6841-1.2412-5.9429-3.4536
				c-1.8657-3.2783-0.7202-7.4487,2.5586-9.3145C74.122-3.3084,114.4092-2.1326,140.7568,3.091
				c28.5176,5.6543,46.9624,16.9468,47.7339,17.4243c3.2065,1.9873,4.1948,6.1978,2.208,9.4043
				c-1.9858,3.2031-6.1919,4.1934-9.3955,2.2129c-0.2012-0.1235-17.5093-10.6387-43.7197-15.7432
				c-34.8325-6.7837-68.1436-1.3159-99.0122,16.249C37.5053,33.2453,36.3447,33.5334,35.1997,33.5334z"/>
		</g>
	</g>
</g>
</svg>
