<?xml version="1.0" encoding="utf-8"?>
<!-- Generator: Adobe Illustrator 19.0.0, SVG Export Plug-In . SVG Version: 6.00 Build 0)  -->
<svg version="1.1" id="Calque_1" xmlns="http://www.w3.org/2000/svg" xmlns:xlink="http://www.w3.org/1999/xlink" x="0px" y="0px"
	 viewBox="0 0 269.2 40" style="enable-background:new 0 0 269.2 40;" xml:space="preserve">
<style type="text/css">
	.st0{fill:#E74915;}
	.st1{fill:#3D3C3B;}
</style>
<g id="XMLID_20_">
	<g id="XMLID_23_">
		<path id="XMLID_19_" class="st0" d="M5.6,18.9c0-0.5,0-1,0-1.5c0-0.5,0.1-1,0.2-1.6L2.5,16v-2c1,0,1.8,0,2.5-0.1
			c0.6-0.1,1.1-0.2,1.5-0.3c0.4-0.1,0.7-0.3,0.9-0.4C7.6,13,7.8,12.8,8,12.7h1.3c0,0.4,0.1,0.8,0.1,1.2c0,0.5,0.1,1,0.1,1.7
			c0.5-0.5,1-0.9,1.6-1.3c0.6-0.4,1.2-0.7,1.9-1c0.7-0.3,1.3-0.5,2-0.7c0.7-0.2,1.4-0.2,2-0.2c2.7,0,4.7,0.9,5.9,2.6
			c1.2,1.7,1.9,4.4,1.9,8.1V32c0,0.6,0,1.2,0,1.7c0,0.5-0.1,1-0.2,1.6l2.9-0.1v2h-9.5v-1.4c0.7,0,1.3-0.1,1.6-0.4
			c0.4-0.3,0.6-0.7,0.8-1.2c0.2-0.5,0.3-1.1,0.3-1.8c0-0.7,0-1.5,0-2.4v-6.7c0-2.8-0.5-4.8-1.3-6.2c-0.8-1.4-2.2-2.1-4-2.1
			c-0.6,0-1.1,0.1-1.7,0.3c-0.6,0.2-1.1,0.4-1.6,0.7c-0.5,0.3-1,0.6-1.5,1c-0.5,0.4-0.8,0.8-1.2,1.2c0,0.3,0,0.6,0,0.9v1l0,12.2
			c0,0.6,0,1.2,0,1.7c0,0.5-0.1,1-0.2,1.6l2.9-0.1v2H2.8v-1.4c0.7,0,1.3-0.1,1.6-0.4c0.4-0.3,0.6-0.7,0.8-1.2
			c0.2-0.5,0.2-1.1,0.3-1.8c0-0.7,0-1.5,0.1-2.4L5.6,18.9z"/>
		<path id="XMLID_45_" class="st0" d="M40.6,12.4c1.6,0,3.2,0.3,4.6,0.9c1.4,0.6,2.7,1.5,3.7,2.5c1.1,1.1,1.9,2.4,2.5,3.8
			c0.6,1.5,0.9,3.1,0.9,4.8c0,1.9-0.3,3.6-0.9,5.2c-0.6,1.6-1.4,3-2.5,4.2c-1.1,1.2-2.3,2.1-3.7,2.8c-1.4,0.7-3,1-4.6,1
			c-1.6,0-3.2-0.3-4.6-0.9c-1.4-0.6-2.6-1.4-3.7-2.5c-1.1-1.1-1.9-2.4-2.5-3.8c-0.6-1.5-0.9-3.1-0.9-4.9c0-1.9,0.3-3.6,0.9-5.3
			c0.6-1.6,1.4-3,2.5-4.2c1-1.2,2.3-2.1,3.7-2.8C37.4,12.7,39,12.4,40.6,12.4 M40.6,14.2c-1.2,0-2.3,0.3-3.1,0.8
			c-0.9,0.6-1.6,1.3-2.1,2.2c-0.6,0.9-1,2-1.2,3.2c-0.3,1.2-0.4,2.5-0.4,3.8c0,1.5,0.1,2.9,0.4,4.3c0.3,1.4,0.7,2.6,1.4,3.7
			c0.6,1.1,1.4,2,2.3,2.6c0.9,0.7,2,1,3.2,1c1.2,0,2.3-0.3,3.1-0.9c0.8-0.6,1.5-1.3,2-2.3c0.5-0.9,0.9-2,1.1-3.2
			c0.2-1.2,0.3-2.4,0.3-3.7c0-1.4-0.1-2.8-0.4-4.3c-0.3-1.4-0.7-2.7-1.2-3.8c-0.6-1.1-1.3-2-2.2-2.7C42.9,14.5,41.8,14.2,40.6,14.2"
			/>
		<path id="XMLID_16_" class="st0" d="M53,13.1c0.8,0,1.6-0.2,2.2-0.7c0.7-0.4,1.3-1,1.8-1.7c0.5-0.7,0.9-1.4,1.3-2.2
			c0.3-0.8,0.6-1.5,0.8-2.2h1.6c0,1.3,0,2.5,0,3.6c0,1.1,0,2.1,0,3.1h7.8V15l-7.8,0.1c0,2.1,0,3.8,0,5.3c0,1.5,0,2.7,0,3.7
			c0,1,0,1.8,0,2.3c0,0.6,0,1,0,1.3c0,0.3,0,0.5,0,0.6v0.2c0,1.1,0.1,2,0.2,2.9c0.1,0.8,0.3,1.5,0.6,2.1c0.3,0.6,0.6,1,1.1,1.3
			c0.4,0.3,1,0.4,1.7,0.4c0.8,0,1.6-0.2,2.4-0.7c0.8-0.5,1.5-1.2,2.1-2.1l1.2,1.1c-0.7,1.1-1.4,1.9-2,2.5c-0.7,0.6-1.3,1-1.9,1.4
			c-0.6,0.3-1.2,0.5-1.7,0.6c-0.5,0.1-1,0.1-1.4,0.1c-0.5,0-0.9,0-1.4-0.1c-0.5-0.1-1-0.2-1.5-0.5c-0.5-0.2-0.9-0.5-1.3-1
			c-0.4-0.4-0.8-0.9-1.1-1.6c-0.3-0.7-0.6-1.4-0.7-2.4c-0.2-0.9-0.3-2-0.2-3.3l0.1-13.8l-3.6,0V13.1z"/>
		<path id="XMLID_15_" class="st0" d="M84.4,15c-0.6,0-1.2,0.1-1.8,0.3c-0.6,0.2-1.2,0.6-1.8,1.1c-0.6,0.5-1.1,1-1.6,1.7
			c-0.5,0.7-1,1.4-1.4,2.2l0,11.7c0,0.6,0,1.2,0,1.7c0,0.5-0.1,1-0.2,1.6l2.9-0.1v2h-9.5v-1.4c0.7,0,1.3-0.1,1.6-0.4
			c0.4-0.3,0.6-0.7,0.8-1.2c0.2-0.5,0.3-1.1,0.3-1.8c0-0.7,0-1.5,0-2.4V18.9c0-0.5,0-1,0-1.5c0-0.5,0.1-1,0.2-1.6l-3.3,0.1v-2h1.4
			c0.7,0,1.2,0,1.7-0.1c0.4-0.1,0.8-0.2,1.1-0.3c0.3-0.1,0.5-0.3,0.7-0.4c0.2-0.1,0.4-0.3,0.6-0.5h1.3c0,0.5,0.1,1.1,0.1,1.9
			c0,0.7,0.1,1.7,0.1,2.9c0.3-0.6,0.8-1.2,1.3-1.8c0.5-0.6,1.2-1.1,1.8-1.6c0.7-0.5,1.4-0.9,2.2-1.2c0.8-0.3,1.6-0.5,2.4-0.5
			c0.4,0,0.8,0.1,1.2,0.2c0.4,0.1,0.7,0.3,1,0.5c0.3,0.2,0.5,0.6,0.7,0.9c0.2,0.4,0.3,0.8,0.3,1.4c0,0.2,0,0.5-0.1,0.7
			c-0.1,0.3-0.2,0.5-0.4,0.7c-0.2,0.2-0.4,0.4-0.7,0.6c-0.3,0.2-0.6,0.2-1.1,0.2c-0.3,0-0.7-0.1-0.9-0.2c-0.3-0.2-0.5-0.4-0.7-0.6
			c-0.2-0.2-0.3-0.5-0.4-0.8C84.4,15.7,84.4,15.3,84.4,15"/>
		<path id="XMLID_40_" class="st0" d="M110.1,22.9l-16.4,0.3c0,1.8,0.1,3.5,0.4,5c0.3,1.5,0.7,2.8,1.4,3.8c0.6,1.1,1.4,1.9,2.4,2.5
			c1,0.6,2.1,0.9,3.5,0.9c0.7,0,1.5-0.1,2.2-0.3c0.8-0.2,1.5-0.5,2.2-0.8c0.7-0.4,1.4-0.8,1.9-1.3c0.6-0.5,1.1-1,1.5-1.6l1.1,1
			c-0.6,1-1.4,1.8-2.2,2.5c-0.8,0.7-1.7,1.3-2.6,1.7c-0.9,0.4-1.8,0.8-2.7,0.9c-0.9,0.2-1.8,0.3-2.5,0.3c-1.6,0-3.1-0.3-4.5-0.9
			c-1.4-0.6-2.6-1.4-3.6-2.5c-1-1.1-1.8-2.4-2.4-4c-0.6-1.6-0.9-3.3-0.9-5.3c0-1.7,0.3-3.3,0.8-4.8c0.6-1.5,1.4-2.9,2.4-4.1
			c1-1.2,2.3-2.1,3.7-2.8c1.4-0.7,3-1,4.8-1c1.3,0,2.5,0.2,3.6,0.7c1.1,0.4,2.1,1.1,3,2c0.9,0.9,1.5,2,2,3.3
			C109.8,19.6,110.1,21.2,110.1,22.9 M100.7,14.3c-1.8,0-3.3,0.5-4.5,1.6c-1.2,1.1-2,2.9-2.3,5.3h11.8c0-0.8-0.1-1.7-0.3-2.5
			c-0.2-0.8-0.5-1.6-0.9-2.2c-0.4-0.7-0.9-1.2-1.6-1.6C102.3,14.5,101.6,14.3,100.7,14.3"/>
		<polygon id="XMLID_12_" class="st1" points="142.3,37 135.5,37 135.5,22.9 122.2,22.9 122.2,37 115.4,37 115.4,4 122.2,4 
			122.2,17.4 135.5,17.4 135.5,4 142.3,4 		"/>
		<path id="XMLID_36_" class="st1" d="M146.7,6.2c0-1,0.3-1.8,1-2.4c0.7-0.6,1.6-1,2.7-1c1.1,0,2,0.3,2.7,1c0.7,0.6,1,1.4,1,2.4
			c0,1-0.3,1.8-1,2.4c-0.7,0.6-1.6,1-2.7,1c-1.1,0-2-0.3-2.7-1C147,8,146.7,7.2,146.7,6.2 M153.6,37h-6.6V12.5h6.6V37z"/>
		<path id="XMLID_9_" class="st1" d="M170.9,30.3c0-0.8-0.4-1.4-1.2-1.9c-0.8-0.5-2.1-0.9-3.8-1.2c-5.8-1.2-8.8-3.7-8.8-7.4
			c0-2.2,0.9-4,2.7-5.4c1.8-1.5,4.2-2.2,7.1-2.2c3.1,0,5.6,0.7,7.5,2.2c1.9,1.5,2.8,3.4,2.8,5.7h-6.6c0-0.9-0.3-1.7-0.9-2.3
			c-0.6-0.6-1.6-0.9-2.8-0.9c-1.1,0-2,0.2-2.6,0.7c-0.6,0.5-0.9,1.1-0.9,1.9c0,0.7,0.3,1.3,1,1.8c0.7,0.4,1.8,0.8,3.5,1.2
			c1.6,0.3,3,0.7,4.1,1.1c3.5,1.3,5.2,3.5,5.2,6.6c0,2.2-1,4-2.9,5.4c-1.9,1.4-4.4,2.1-7.4,2.1c-2.1,0-3.9-0.4-5.5-1.1
			c-1.6-0.7-2.8-1.7-3.8-3c-0.9-1.3-1.4-2.7-1.4-4.1h6.2c0.1,1.2,0.5,2.1,1.3,2.7c0.8,0.6,1.9,0.9,3.2,0.9c1.3,0,2.2-0.2,2.8-0.7
			C170.6,31.6,170.9,31,170.9,30.3"/>
		<path id="XMLID_8_" class="st1" d="M188.6,6.5v6h4.2v4.8h-4.2v12.2c0,0.9,0.2,1.6,0.5,1.9c0.3,0.4,1,0.6,2,0.6
			c0.7,0,1.4-0.1,1.9-0.2v5c-1.3,0.4-2.6,0.6-4,0.6c-4.6,0-6.9-2.3-7-7V17.3h-3.6v-4.8h3.6v-6H188.6z"/>
		<path id="XMLID_31_" class="st1" d="M193.8,24.5c0-2.4,0.5-4.6,1.4-6.5c0.9-1.9,2.3-3.4,4.1-4.4c1.8-1,3.8-1.6,6.1-1.6
			c3.3,0,6,1,8.1,3c2.1,2,3.3,4.8,3.5,8.2l0,1.7c0,3.8-1.1,6.8-3.2,9.1c-2.1,2.3-4.9,3.4-8.5,3.4c-3.5,0-6.4-1.1-8.5-3.4
			c-2.1-2.3-3.2-5.3-3.2-9.2V24.5z M200.3,25c0,2.3,0.4,4.1,1.3,5.3c0.9,1.2,2.1,1.8,3.8,1.8c1.6,0,2.8-0.6,3.7-1.8
			c0.9-1.2,1.3-3.2,1.3-5.8c0-2.3-0.4-4.1-1.3-5.3c-0.9-1.3-2.1-1.9-3.8-1.9c-1.6,0-2.8,0.6-3.7,1.9C200.8,20.5,200.3,22.4,200.3,25
			"/>
		<path id="XMLID_28_" class="st1" d="M219.6,6.2c0-1,0.3-1.8,1-2.4c0.7-0.6,1.6-1,2.7-1c1.1,0,2,0.3,2.7,1c0.7,0.6,1,1.4,1,2.4
			c0,1-0.3,1.8-1,2.4c-0.7,0.6-1.6,1-2.7,1c-1.1,0-2-0.3-2.7-1C219.9,8,219.6,7.2,219.6,6.2 M226.5,37H220V12.5h6.6V37z"/>
		<path id="XMLID_3_" class="st1" d="M244.5,18.7c-0.9-0.1-1.7-0.2-2.4-0.2c-2.5,0-4.1,0.8-4.9,2.5v16h-6.6V12.5h6.2l0.2,2.9
			c1.3-2.3,3.1-3.4,5.5-3.4c0.7,0,1.4,0.1,2,0.3L244.5,18.7z"/>
		<path id="XMLID_24_" class="st1" d="M257.6,37.5c-3.6,0-6.5-1.1-8.8-3.3c-2.3-2.2-3.4-5.1-3.4-8.8v-0.6c0-2.5,0.5-4.7,1.4-6.6
			c1-1.9,2.3-3.4,4.1-4.5c1.7-1,3.7-1.6,6-1.6c3.4,0,6,1.1,7.9,3.2c1.9,2.1,2.9,5.1,2.9,9v2.7h-15.6c0.2,1.6,0.9,2.9,1.9,3.9
			c1.1,1,2.4,1.4,4.1,1.4c2.5,0,4.5-0.9,5.9-2.7l3.2,3.6c-1,1.4-2.3,2.5-4,3.3C261.5,37.1,259.7,37.5,257.6,37.5 M256.9,17.3
			c-1.3,0-2.4,0.4-3.2,1.3c-0.8,0.9-1.3,2.1-1.6,3.8h9.1v-0.5c0-1.5-0.4-2.6-1.2-3.4C259.4,17.7,258.3,17.3,256.9,17.3"/>
	</g>
</g>
</svg>
