<?xml version="1.0" encoding="utf-8"?>
<!-- Generator: Adobe Illustrator 19.0.0, SVG Export Plug-In . SVG Version: 6.00 Build 0)  -->
<svg version="1.1" id="XMLID_1_" xmlns="http://www.w3.org/2000/svg" xmlns:xlink="http://www.w3.org/1999/xlink" x="0px" y="0px"
	 viewBox="0 0 983.3386 353.6108" enable-background="new 0 0 983.3386 353.6108" xml:space="preserve">
<g id="waves">
	<path fill="#F2D0D3" d="M308.7511,151.2581c0.01,0,0.006,0,0.015,0c22.645,0,45.45,3.052,68.0239,10.0111
		c214.7961,66.213,404.769,130.8409,545.7311,130.849c0.004,0,0.014,0,0.0189,0c21.4279,0,41.717-1.5094,60.7986-4.7239v-1.0161
		c-19.0693,3.2229-39.3628,4.738-60.8175,4.7389c-140.67,0.0081-330.635-64.579-545.436-130.8038
		c-22.677-6.9912-45.584-10.0559-68.319-10.0559c-81.116,0.0059-160.014,38.9949-218.6484,77.9578
		C46.123,257.4525,13.5364,286.6843,0,299.4655v1.3778c14.1263-13.3948,51.4855-47.0654,101.8811-79.0811
		C159.062,185.4312,233.02,151.2581,308.7511,151.2581z"/>
	<path fill="#F2D0D3" d="M95.7816,241.8762c54.3245-36.99,125.1395-71.781,199.1715-71.781c0.009,0,0.0049,0,0.0139,0
		c23.042,0,46.399,3.3669,69.6801,11.0819c219.478,72.7321,414.736,132.5641,556.576,132.5699
		c22.0289,0.0005,42.7673-1.4507,62.1155-4.5173v-1.012c-19.3286,3.0732-40.0662,4.5288-62.1155,4.5293
		c-141.572,0.0061-336.806-59.7869-556.262-132.5189c-23.3881-7.751-46.8551-11.1329-69.9941-11.1329
		c-79.319,0.0059-154.772,39.71-210.4088,79.385C43.3019,277.9027,12.9454,307.3152,0,320.5635v1.4321
		C13.5199,308.094,48.3707,274.155,95.7816,241.8762z"/>
	<path fill="#F2D0D3" d="M423.6471,19.8704c0.005,0,0.009,0,0.015,0c13.012,0,25.762,0.6492,38.152,2.0366
		c78.3302,8.771,151.4039,40.5481,223.722,70.1592c72.3169,29.6069,143.884,57.052,219.2239,57.0549c0.0032,0,0.0093,0,0.0121,0
		c25.6942,0,51.8268-3.2047,78.5665-10.595v-1.0393c-26.7468,7.4193-52.8787,10.6333-78.5786,10.6343
		c-75.0909,0.0031-146.5389-27.374-218.8447-56.98C613.6101,61.5391,540.4551,29.7102,461.925,20.9133
		c-12.4309-1.3923-25.218-2.0432-38.2629-2.0432c-94.146,0.0037-201.735,33.88-285.813,67.744
		C70.3488,113.804,18.019,140.9863,0,150.652v1.1351c18.8924-10.1505,78.5025-41.171,154.2422-70.583
		C235.6172,49.6021,335.6101,19.8704,423.6471,19.8704z"/>
	<path fill="#F2D0D3" d="M385.467,57.3721c0.0051,0,0.0071,0,0.0121,0c17.723,0,35.146,1.3621,52.037,4.353
		c88.542,15.6799,171.2532,47.4241,249.978,75.2631c78.726,27.8369,153.468,51.7738,226.0989,51.776c0.0031,0,0.0121,0,0.0161,0
		c23.4454,0,46.6692-2.5042,69.7295-8.1719v-1.0281c-23.0596,5.6896-46.2848,8.199-69.7456,8.2
		c-72.408,0.002-147.0569-23.884-225.7649-51.719c-78.709-27.8301-161.473-59.6011-250.1379-75.304
		c-16.9561-3.0032-34.436-4.3691-52.2111-4.3691C295.05,56.3762,196.9971,91.7202,121.5291,127.05
		C62.025,154.9083,16.5747,182.7596,0,193.3015v1.1848c17.3492-11.058,69.2096-42.9146,136.3472-73.1411
		C209.5581,88.3821,300.937,57.3721,385.467,57.3721z"/>
	<path fill="#F2D0D3" d="M301.8141,160.6741c0.004,0,0.0079,0,0.0131,0c22.8589,0,45.9529,3.2101,68.8909,10.5491
		c217.2621,69.505,409.9683,131.656,551.3,131.6631c0.005,0,0.012,0,0.0161,0c21.6738,0,42.1392-1.4689,61.3044-4.5955v-1.0159
		c-19.1521,3.1344-39.6204,4.6096-61.3206,4.6102c-141.053,0.0079-333.7429-62.104-550.995-131.6139
		c-23.043-7.373-46.244-10.5972-69.1959-10.5972c-80.2151,0.0051-157.3811,39.353-214.5071,78.6721
		C44.702,267.6826,13.2403,297.0094,0,310.0222v1.4032c13.827-13.6493,49.9238-47.4591,98.8115-79.6073
		C154.5591,195.155,226.9291,160.6741,301.8141,160.6741z"/>
	<path fill="#F2D0D3" d="M446.2351,0.9998c0.006,0,0.0071,0,0.012,0c9.4241,0,18.676,0.322,27.719,0.9973
		c72.863,5.4387,140.786,37.2952,209.733,67.8291c68.9441,30.5281,138.92,59.7339,215.9139,59.7371c0.0031,0,0.0061,0,0.009,0
		c26.9646,0,54.788-3.5978,83.7166-11.9614v-1.0398c-28.9407,8.395-56.7625,12-83.7256,12.0012
		c-76.7329,0.002-146.575-29.123-215.5089-59.6521C615.1702,38.3892,547.1511,6.4634,474.04,1.0002
		C464.9711,0.3226,455.6941,0,446.2471,0c-95.811,0.0032-209.042,33.175-298.3459,66.3372
		C75.5278,93.2131,18.8821,120.0854,0,129.3115v1.1135c19.822-9.6982,84.295-40.3301,165.2532-69.3569
		C251.5641,30.119,356.6261,0.9998,446.2351,0.9998z"/>
	<path fill="#F2D0D3" d="M86.8899,272.0612c50.1542-37.973,116.3722-73.683,187.8892-73.683c0.009,0,0.0051,0,0.014,0
		c23.4291,0.001,47.4301,3.829,71.64,12.662c224.704,81.983,426.563,135.876,570.6581,135.88
		c23.7008-0.0005,45.8236-1.4744,66.2474-4.5082v-1.0109c-20.4058,3.0398-42.5281,4.519-66.2426,4.519c-0.0031,0-0.002,0-0.0049,0
		c-143.8571,0.0039-345.6681-53.8511-570.3151-135.8201c-24.323-8.874-48.446-12.7209-71.983-12.7209
		c-76.661,0.005-147.078,40.7781-198.3398,81.5139C39.1943,308.5049,12.0555,338.1042,0,352.0763v1.5345
		C12.5892,338.9358,43.8039,304.679,86.8899,272.0612z"/>
	<path fill="#F2D0D3" d="M92.7868,251.9362c52.9212-37.318,122.1893-72.416,195.3782-72.416c0.009,0,0.0051,0,0.014,0
		c23.196,0,46.79,3.521,70.3971,11.6122c221.45,75.8878,419.083,133.5669,561.5588,133.5728
		c22.4861-0.0005,43.5863-1.4517,63.2036-4.4834v-1.0115c-19.6002,3.0386-40.7,4.4949-63.1995,4.4949c-0.0021,0-0.0021,0-0.0042,0
		c-142.219,0.0051-339.8188-57.635-561.2358-133.5189c-23.7151-8.1281-47.4221-11.666-70.7201-11.666
		c-78.428,0.005-152.1859,40.067-206.3502,80.0961C41.9221,288.1118,12.6519,317.5984,0,331.0865v1.4648
		C13.208,318.3989,46.8287,284.3423,92.7868,251.9362z"/>
	<path fill="#F2D0D3" d="M394.3672,48.0051c0.0049,0,0.0089,0,0.0139,0c16.777,0,33.246,1.1831,49.209,3.7661
		c86.098,13.928,166.494,45.6638,243.6641,73.9329c77.1699,28.2661,151.116,53.074,224.3409,53.077c0.0031,0,0.01,0,0.014,0
		c23.9608,0,47.8438-2.672,71.7295-8.7377v-1.0325c-23.8862,6.089-47.7698,8.7688-71.7435,8.7701
		c-72.995,0.0018-146.843-24.751-223.9969-53.016c-77.1541-28.262-157.6099-60.0281-243.848-73.981
		c-16.0231-2.593-32.545-3.7791-49.369-3.7791c-91.375,0.0039-191.651,34.979-269.1069,69.9399
		C63.9301,144.6365,16.9134,172.321,0,182.6448v1.1716c17.7141-10.8348,71.3395-42.4814,140.4551-72.5012
		C215.5531,78.6951,308.9441,48.0051,394.3672,48.0051z"/>
	<path fill="#F2D0D3" d="M89.8242,261.9982c51.5309-37.646,119.2678-73.05,191.6189-73.05c0.009,0,0.005,0,0.0139,0
		c23.3241,0,47.1321,3.675,71.0471,12.1381c223.189,78.9729,423.02,134.6709,566.251,134.676
		c23.0425-0.0005,44.6056-1.459,64.5835-4.4802v-1.0118c-19.96,3.0282-41.5217,4.4921-64.5796,4.4921c-0.002,0-0.002,0-0.0039,0
		c-142.983,0.0039-342.774-55.655-565.917-134.6191c-24.0271-8.502-47.952-12.1959-71.3811-12.1949
		c-77.543,0.005-149.6229,40.423-202.329,80.806C40.553,298.3129,12.3551,327.8623,0,341.5917v1.4985
		C12.8978,328.6797,45.3068,294.5173,89.8242,261.9982z"/>
	<path fill="#F2D0D3" d="M403.6501,38.6372c0.0049,0,0.009,0,0.0139,0c15.692,0,31.0811,1.0029,46,3.179
		c83.577,12.1919,161.592,43.9299,237.175,72.6389c75.5811,28.7061,148.734,54.3899,222.61,54.3931c0.0031,0,0.0079,0,0.011,0
		c24.5123,0,49.1024-2.833,73.8785-9.3203v-1.0356c-24.7781,6.5122-49.3677,9.3545-73.8895,9.355
		c-73.6389,0.0029-146.688-25.6221-222.255-54.327c-75.568-28.701-153.651-60.476-237.385-72.693
		c-14.9729-2.1851-30.4099-3.1899-46.145-3.1899c-92.3149,0.0029-194.9099,34.6099-274.449,69.2029
		C65.9429,134.3597,17.269,161.876,0,171.9839v1.1587c18.0894-10.6078,73.5798-42.0439,144.7771-71.8584
		C221.8521,69.0051,317.3391,38.6372,403.6501,38.6372z"/>
	<path fill="#F2D0D3" d="M337.5121,113.6392c0.005,0,0.0079,0,0.0131,0c21.3999,0,42.705,2.402,63.553,7.813
		c202.4412,52.53,379.7419,128.443,520.67,128.4551c0.0039,0,0.017,0,0.0209,0c21.373,0,41.9082-1.7583,61.5696-5.604v-1.0181
		c-19.6531,3.8582-40.1931,5.621-61.5905,5.6221c-0.0081,0-0.025,0-0.0331,0c-140.579,0.0029-317.8831-75.8611-520.386-128.4231
		c-20.938-5.4341-42.3301-7.845-63.804-7.845c-84.78,0.005-170.858,37.551-235.76,75.0759
		C52.0171,216.4814,14.7142,245.2424,0,257.1106v1.2863c15.3571-12.4283,58.0302-45.454,114.6621-76.8347
		C177.8191,146.5621,258.3141,113.6392,337.5121,113.6392z"/>
	<path fill="#F2D0D3" d="M345.0171,104.248c0.005,0,0.009,0,0.0129,0c20.969,0,41.791,2.2351,62.1201,7.25
		c198.7479,49.019,372.4719,128.0391,513.7649,128.0531c0.004,0,0.0151,0,0.0181,0c21.5671,0,42.377-1.8541,62.4055-5.932v-1.0216
		c-20.021,4.0914-40.8339,5.9525-62.4236,5.9536c-0.0079,0-0.0289,0-0.0369,0c-140.9291,0.005-314.6571-78.9659-513.488-128.024
		c-20.416-5.0369-41.3201-7.2791-62.3601-7.2791c-85.709,0.0051-173.6619,37.187-240.2059,74.3491
		C53.5599,206.229,15.0098,234.8522,0,246.4946v1.2668c15.6766-12.1967,59.7594-45.0422,118.0181-76.2423
		C182.7401,136.8552,264.9402,104.248,345.0171,104.248z"/>
	<path fill="#F2D0D3" d="M360.5321,85.4832c0.005,0,0.0079,0,0.0131,0c19.917,0,39.6029,1.892,58.751,6.106
		c190.6909,41.949,356.8171,127.4431,499.2789,127.46c0.004,0,0.015,0,0.0179,0c22.1544,0,43.7354-2.0803,64.7456-6.7095v-1.0253
		c-21.0051,4.6456-42.5886,6.7336-64.7635,6.7347c-0.0089,0-0.0341,0-0.042,0c-142.068,0.0071-308.2001-85.4359-499.022-127.437
		c-19.2269-4.231-38.986-6.1279-58.9659-6.1279c-87.5872,0.004-179.4131,36.4541-249.363,72.887
		C56.7802,185.7081,15.6189,214.0378,0,225.2379v1.2314c16.3347-11.7446,63.3643-44.2101,124.9941-75.0272
		C192.958,117.4551,278.6841,85.4832,360.5321,85.4832z"/>
	<path fill="#F2D0D3" d="M413.3831,29.2605c0.0051,0,0.0081,0,0.0131,0c14.4469,0,28.605,0.8245,42.3429,2.6013
		c80.9851,10.4713,156.5581,42.2234,230.5221,71.3813c73.964,29.1531,146.323,55.7161,220.906,55.719c0.0031,0,0.0089,0,0.012,0
		c25.0909,0,50.4315-3.0212,76.1595-9.9507v-1.0352c-25.7327,6.9567-51.0723,9.9849-76.1715,9.9858
		c-74.339,0.002-146.588-26.4971-220.5389-55.65c-73.9501-29.149-149.5981-60.9449-230.761-71.4423
		c-13.7852-1.7825-27.9861-2.6093-42.4711-2.6093c-93.2421,0.0038-198.2679,34.2426-280.006,68.4696
		C68.0716,124.0837,17.6349,151.4316,0,161.3196v1.1471c18.4783-10.3793,75.954-41.6063,149.3541-71.2186
		C228.5142,59.3091,326.1981,29.2605,413.3831,29.2605z"/>
	<path fill="#F2D0D3" d="M352.6821,94.863c0.0049,0,0.009,0,0.0139,0c20.4771,0,40.762,2.0641,60.5271,6.6802
		c194.8279,45.4897,364.824,127.708,506.6289,127.7239c0.004,0,0.0151,0,0.0181,0c21.8292,0,42.9889-1.9631,63.4685-6.3019v-1.0221
		c-20.4727,4.3538-41.6355,6.3219-63.4866,6.323c-0.0079,0-0.031,0-0.04,0c-141.4249,0.0061-311.427-82.1619-506.3608-127.696
		c-19.8491-4.636-40.2111-6.7069-60.7551-6.7069c-86.646,0.004-176.512,36.8219-244.7369,73.62
		C55.1457,195.9711,15.3112,224.4507,0,235.8706v1.2484c16.0031-11.9705,61.5364-44.629,121.458-75.6398
		C187.7811,127.1531,271.7222,94.863,352.6821,94.863z"/>
	<path fill="#F2D0D3" d="M322.9081,132.4382c0.005,0,0.01,0,0.014,0c22.1079,0,44.24,2.731,66.012,8.9219
		c209.113,59.4609,393.0901,129.478,533.738,129.4871c0.0039,0,0.017,0,0.021,0c21.2209,0,41.4579-1.597,60.6455-5.0684v-1.0186
		c-19.1782,3.4817-39.4194,5.0859-60.6665,5.0869c-140.3311,0.01-324.314-69.9651-533.4651-129.448
		c-21.8689-6.219-44.095-8.9609-66.2849-8.9609c-82.936,0.0049-165.368,38.2749-227.0836,76.521
		C49.0124,236.9817,14.1199,265.9943,0,278.312v1.3291c14.7338-12.9023,54.6919-46.2666,108.1581-77.9839
		C168.28,165.9882,245.4521,132.4382,322.9081,132.4382z"/>
	<path fill="#F2D0D3" d="M315.7811,141.845c0.005,0,0.0089,0,0.014,0c22.395,0,44.8809,2.8931,67.0669,9.4702
		c212.0801,62.8619,399.1431,130.115,539.874,130.124c0.004,0,0.016,0,0.021,0c21.2781,0,41.4922-1.5526,60.5815-4.8816v-1.0151
		c-19.0782,3.3384-39.2979,4.8959-60.6025,4.8967c-140.427,0.0089-327.49-67.2041-539.59-130.083
		c-22.286-6.6072-44.87-9.511-67.351-9.511c-82.024,0.0049-162.677,38.636-222.84,77.241
		C47.5544,247.2212,13.8269,276.3474,0,288.8948v1.353c14.4286-13.1455,53.074-46.6677,104.9951-78.5397
		C163.6371,175.7061,239.186,141.845,315.7811,141.845z"/>
	<path fill="#F2D0D3" d="M434.5541,10.4551c0.005,0,0.0079,0,0.0131,0c11.3519,0,22.4819,0.48,33.322,1.4972
		c75.6208,7.0924,146.1431,38.9049,216.788,68.976c70.6442,30.0649,141.4159,58.3918,217.5619,58.3939
		c26.3236,0.0005,53.2883-3.3929,81.0996-11.2633v-1.0369c-27.8176,7.9001-54.7766,11.2996-81.0996,11.3
		c-75.8899,0.0022-146.5369-28.2489-217.1709-58.3149c-70.6311-30.0599-141.2419-61.9319-217.085-69.0503
		c-10.875-1.0205-22.0361-1.5017-33.416-1.5017c-95.009,0.0034-205.323,33.5229-291.9091,67.03
		C72.8182,103.515,18.4324,130.5377,0,139.9832v1.1226c19.3387-9.9243,81.2663-40.7443,159.5111-69.9585
		C243.2571,39.8762,345.7021,10.4551,434.5541,10.4551z"/>
	<path fill="#F2D0D3" d="M330.1471,123.0361c0.01,0,0.005,0,0.014,0c21.778,0,43.5179,2.568,64.845,8.37
		c205.8979,56.014,386.62,128.921,527.333,128.932c0.0029,0,0.016,0,0.02,0c21.2573,0,41.5979-1.6799,60.9795-5.3242v-1.0187
		c-19.3722,3.6559-39.7169,5.3419-60.9995,5.3429c-140.3821,0.011-321.118-72.855-527.071-128.897
		c-21.4209-5.828-43.251-8.405-65.1069-8.405c-83.855,0.005-168.095,37.9139-231.3883,75.8
		C50.4997,226.7339,14.416,255.6245,0,267.7166v1.3068c15.0428-12.6625,56.3425-45.8615,111.3782-77.4152
		C173.0001,156.2751,251.8271,123.0361,330.1471,123.0361z"/>
	<path fill="#F2D0D3" d="M368.5901,76.1091c0.005,0,0.0081,0,0.0129,0c19.2781,0,38.2961,1.717,56.7661,5.5259
		c186.3479,38.4061,348.468,127.2412,491.728,127.2601c0.0029,0,0.012,0,0.015,0c22.5366,0,44.6058-2.213,66.2264-7.1613v-1.0245
		c-21.616,4.9662-43.6871,7.1846-66.2415,7.1858c-0.009,0-0.0381,0-0.047,0c-142.849,0.0079-304.973-88.775-491.4791-127.2401
		c-18.5449-3.8229-37.6299-5.5459-56.968-5.5459c-88.532,0.004-182.3708,36.0869-254.0969,72.1528
		C58.4709,175.4401,15.9352,203.6151,0,214.5981v1.2156C16.662,204.3,65.2362,172.0339,128.6421,141.408
		C198.2961,107.7612,285.8491,76.1091,368.5901,76.1091z"/>
	<path fill="#F2D0D3" d="M376.8882,66.7391c0.0049,0,0.0079,0,0.0129,0c18.553,0,36.819,1.5409,54.542,4.941
		c90.901,17.4409,175.856,49.208,256.1021,76.627c80.2469,27.416,155.7859,50.4919,227.886,50.494c0.0029,0,0.012,0,0.0159,0
		c22.9688,0,45.5872-2.3555,67.8916-7.6503v-1.0286c-22.302,5.3147-44.9214,7.678-67.9075,7.6788
		c-71.8831,0.0031-147.3351-23.027-227.563-50.441c-80.228-27.4109-165.228-59.2-256.2371-76.662
		c-17.792-3.4139-36.1221-4.959-54.73-4.959c-89.479,0.004-185.39,35.718-258.953,71.416
		C60.2098,165.1765,16.2493,193.1917,0,203.9526v1.2002c16.9995-11.2852,67.1806-43.3488,132.4191-73.7766
		C203.8191,98.071,293.2532,66.7391,376.8882,66.7391z"/>
</g>
</svg>
