<svg id="Calque_1" xmlns="http://www.w3.org/2000/svg" viewBox="0 0 538.3887 78.431"><g fill="#D51224"><path d="M98.017 33.367c0-.686.01-1.382.03-2.09.022-.706.095-1.435.22-2.185l-4.525.257v-2.765c1.393 0 2.527-.048 3.4-.145.875-.096 1.577-.23 2.108-.402.53-.17.94-.358 1.232-.562.29-.204.562-.423.812-.66h1.84c.042.494.09 1.057.14 1.688.053.633.1 1.4.142 2.3a17.97 17.97 0 0 1 2.262-1.737 18.157 18.157 0 0 1 2.575-1.398 15.694 15.694 0 0 1 2.762-.933 12.044 12.044 0 0 1 2.793-.338c3.703 0 6.408 1.194 8.114 3.583 1.706 2.39 2.56 6.102 2.56 11.138V51.4c0 .88-.012 1.655-.032 2.33s-.094 1.388-.22 2.138l4.027-.193v2.7h-13.045v-1.96c.978 0 1.72-.2 2.232-.596.51-.397.878-.95 1.107-1.656.23-.707.36-1.553.392-2.54.03-.985.046-2.067.046-3.246v-9.193c-.042-3.793-.645-6.648-1.81-8.566s-3.017-2.878-5.555-2.878c-.77 0-1.54.118-2.31.353-.77.237-1.508.542-2.215.917s-1.373.82-1.997 1.334a10.136 10.136 0 0 0-1.622 1.67c.02.387.03.8.03 1.24v1.333l-.06 16.81c0 .88-.012 1.655-.032 2.33s-.094 1.388-.22 2.138l4.027-.193v2.7H94.178v-1.96c.978 0 1.722-.2 2.232-.596.51-.397.874-.95 1.092-1.656.22-.707.343-1.553.374-2.54.032-.985.058-2.067.08-3.246l.06-15.01zM146.126 26.906c-1.685 0-3.126.387-4.322 1.16-1.197.77-2.18 1.8-2.95 3.088-.77 1.287-1.336 2.767-1.7 4.44a24.45 24.45 0 0 0-.546 5.214c0 2.038.203 4.022.608 5.952.406 1.93 1.025 3.642 1.857 5.133.832 1.49 1.877 2.686 3.137 3.588 1.258.902 2.73 1.352 4.415 1.352s3.105-.39 4.26-1.174c1.155-.783 2.09-1.818 2.81-3.106.717-1.286 1.232-2.756 1.544-4.408.31-1.652.467-3.346.467-5.084a32.41 32.41 0 0 0-.53-5.857c-.355-1.93-.917-3.657-1.686-5.18-.77-1.523-1.762-2.757-2.98-3.7-1.216-.945-2.678-1.417-4.384-1.417m0-2.507c2.247 0 4.348.422 6.304 1.27a15.76 15.76 0 0 1 5.102 3.503c1.446 1.49 2.59 3.257 3.433 5.303.843 2.047 1.264 4.26 1.264 6.638 0 2.55-.412 4.94-1.234 7.168-.822 2.23-1.956 4.168-3.4 5.818a16.06 16.06 0 0 1-5.12 3.905c-1.965.954-4.083 1.43-6.35 1.43-2.247 0-4.343-.412-6.288-1.237a15.504 15.504 0 0 1-5.087-3.455c-1.445-1.48-2.584-3.24-3.416-5.288-.833-2.046-1.25-4.29-1.25-6.734 0-2.59.412-5.008 1.234-7.247.822-2.24 1.95-4.18 3.386-5.818a15.634 15.634 0 0 1 5.087-3.858c1.956-.932 4.068-1.398 6.336-1.398M163.15 25.46a5.59 5.59 0 0 0 3.058-.95c.916-.61 1.722-1.37 2.42-2.28a14.827 14.827 0 0 0 1.762-2.975c.478-1.07.853-2.078 1.124-3.02h2.184c0 1.756-.005 3.395-.015 4.917-.01 1.522-.016 2.957-.016 4.307h10.766v2.57l-10.766.13c-.02 2.85-.03 5.282-.03 7.296s-.007 3.696-.017 5.046a410.47 410.47 0 0 0-.016 3.198c0 .783-.005 1.378-.015 1.785-.012.407-.017.67-.017.787v.21c0 1.5.078 2.823.234 3.97.156 1.145.422 2.11.796 2.892.375.782.87 1.37 1.483 1.768.613.396 1.388.594 2.324.594 1.103 0 2.195-.342 3.277-1.028s2.04-1.66 2.87-2.925l1.718 1.446c-.937 1.456-1.868 2.598-2.793 3.422-.926.826-1.806 1.447-2.637 1.865-.833.417-1.608.68-2.325.787-.718.107-1.348.16-1.888.16-.646 0-1.306-.053-1.982-.16s-1.342-.316-1.997-.627a6.654 6.654 0 0 1-1.842-1.318c-.57-.568-1.075-1.302-1.512-2.202-.437-.9-.78-1.993-1.03-3.28s-.364-2.806-.343-4.563l.125-19.03-4.9.033v-2.83zM206.385 28c-.81-.022-1.634.133-2.465.465-.833.333-1.65.82-2.45 1.463s-1.556 1.414-2.263 2.314c-.707.9-1.342 1.897-1.903 2.99l.062 16.168c0 .88-.01 1.655-.03 2.33-.022.675-.095 1.388-.22 2.138l4.026-.193v2.7h-13.107v-1.96c.978 0 1.72-.2 2.23-.596.51-.397.88-.95 1.11-1.656.228-.707.358-1.553.39-2.54.03-.985.046-2.067.046-3.246V33.335c0-.685.01-1.377.032-2.073.02-.696.094-1.42.22-2.17l-4.526.193v-2.7h1.966c.915 0 1.674-.048 2.278-.145.603-.096 1.108-.23 1.514-.402.405-.17.743-.358 1.014-.562.27-.203.53-.423.78-.66h1.84c.064.687.12 1.54.173 2.556.052 1.018.1 2.33.14 3.938.48-.814 1.094-1.634 1.842-2.46a15.015 15.015 0 0 1 2.528-2.217 14.235 14.235 0 0 1 3.027-1.607 9.192 9.192 0 0 1 3.34-.627c.582 0 1.15.08 1.7.24.55.16 1.03.413 1.436.756.406.343.733.77.983 1.285.25.516.374 1.137.374 1.866 0 .3-.057.632-.17.996a3.125 3.125 0 0 1-.563 1.03c-.26.32-.588.588-.983.802-.395.215-.885.322-1.467.322-.48 0-.91-.107-1.296-.322a3.165 3.165 0 0 1-.966-.82 3.11 3.11 0 0 1-.562-1.157 3.668 3.668 0 0 1-.077-1.398M229.2 27.003c-2.496 0-4.556.752-6.18 2.258-1.623 1.507-2.695 3.947-3.214 7.32h16.29c0-1.152-.125-2.3-.375-3.443-.248-1.142-.65-2.167-1.2-3.075a6.815 6.815 0 0 0-2.138-2.21c-.874-.566-1.935-.85-3.183-.85m12.92 11.958l-22.502.386c-.02 2.533.167 4.83.562 6.892s1.02 3.822 1.873 5.28c.852 1.462 1.95 2.59 3.292 3.383 1.342.796 2.95 1.193 4.822 1.193.998 0 2.017-.14 3.058-.42 1.04-.28 2.044-.663 3.01-1.15a13.728 13.728 0 0 0 2.67-1.744c.81-.68 1.487-1.408 2.028-2.184l1.56 1.318c-.873 1.37-1.888 2.534-3.042 3.487a17.93 17.93 0 0 1-3.588 2.332 16.47 16.47 0 0 1-3.73 1.302c-1.248.267-2.413.4-3.495.4-2.205 0-4.26-.406-6.163-1.22a14.19 14.19 0 0 1-4.946-3.504c-1.395-1.52-2.492-3.353-3.293-5.496-.8-2.143-1.2-4.554-1.2-7.233 0-2.313.383-4.525 1.153-6.636.77-2.11 1.862-3.98 3.277-5.61a15.91 15.91 0 0 1 5.087-3.89c1.976-.963 4.17-1.445 6.585-1.445 1.768 0 3.437.3 5.008.9 1.57.6 2.95 1.5 4.135 2.7 1.186 1.2 2.123 2.715 2.81 4.547.686 1.832 1.03 3.97 1.03 6.413"/></g><path fill="#646363" d="M286.987 58.374h-9.362V38.901l-18.257.002v19.472h-9.362V12.936h9.362V31.35l18.257-.002V12.94l9.362-.002zM302.548 58.374h-9.05V24.608h9.05v33.766zm-9.58-42.504c0-1.352.45-2.465 1.357-3.34.905-.873 2.137-1.31 3.698-1.31 1.54 0 2.766.437 3.682 1.31.915.875 1.373 1.988 1.373 3.34 0 1.373-.463 2.497-1.388 3.37-.927.874-2.15 1.31-3.667 1.31-1.52 0-2.742-.436-3.667-1.31-.925-.873-1.39-1.997-1.39-3.37M326.3 49.043c0-1.102-.545-1.97-1.637-2.606-1.093-.634-2.846-1.2-5.26-1.7-8.03-1.686-12.045-5.097-12.045-10.237 0-2.995 1.243-5.497 3.73-7.505 2.485-2.008 5.736-3.01 9.752-3.01 4.285 0 7.713 1.008 10.282 3.026 2.57 2.02 3.855 4.64 3.855 7.865h-9.02c0-1.29-.416-2.356-1.248-3.2-.833-.84-2.133-1.263-3.902-1.263-1.52 0-2.694.344-3.526 1.03-.832.687-1.248 1.56-1.248 2.622 0 .998.473 1.805 1.42 2.418.946.614 2.543 1.144 4.79 1.592 2.247.447 4.14.952 5.68 1.513 4.764 1.748 7.146 4.775 7.146 9.082 0 3.078-1.32 5.57-3.963 7.473-2.643 1.903-6.054 2.855-10.236 2.855-2.83 0-5.34-.504-7.536-1.513-2.195-1.01-3.916-2.393-5.165-4.15-1.25-1.76-1.873-3.657-1.873-5.696h8.55c.084 1.6.677 2.828 1.78 3.68 1.102.855 2.58 1.28 4.43 1.28 1.728 0 3.033-.327 3.918-.982.884-.656 1.326-1.514 1.326-2.575M350.58 16.307v8.3h5.773v6.617h-5.773v16.852c0 1.25.24 2.143.718 2.684.478.54 1.393.81 2.746.81 1 0 1.883-.07 2.653-.217v6.835c-1.77.54-3.59.81-5.462.81-6.324 0-9.55-3.193-9.674-9.58V31.224h-4.93v-6.616h4.93v-8.3h9.02zM366.755 41.82c0 3.208.603 5.662 1.81 7.36 1.206 1.698 2.934 2.547 5.18 2.547 2.185 0 3.89-.84 5.118-2.516 1.228-1.676 1.842-4.36 1.842-8.047 0-3.146-.614-5.584-1.842-7.314-1.227-1.73-2.954-2.595-5.18-2.595-2.206 0-3.912.86-5.118 2.578-1.207 1.72-1.81 4.382-1.81 7.986m-9.02-.64c0-3.35.646-6.336 1.936-8.958 1.29-2.62 3.147-4.65 5.57-6.085 2.425-1.436 5.24-2.153 8.443-2.153 4.556 0 8.275 1.394 11.157 4.18 2.88 2.79 4.488 6.576 4.82 11.36l.063 2.31c0 5.18-1.445 9.337-4.337 12.468s-6.772 4.696-11.64 4.696c-4.87 0-8.754-1.56-11.657-4.68-2.903-3.122-4.354-7.366-4.354-12.733v-.406zM402.79 58.374h-9.05V24.608h9.05v33.766zm-9.58-42.504c0-1.352.45-2.465 1.356-3.34.905-.873 2.138-1.31 3.7-1.31 1.538 0 2.765.437 3.68 1.31.916.875 1.374 1.988 1.374 3.34 0 1.373-.463 2.497-1.39 3.37-.924.874-2.147 1.31-3.665 1.31-1.52 0-2.742-.436-3.667-1.31-.926-.873-1.39-1.997-1.39-3.37M427.46 33.065c-1.228-.166-2.31-.25-3.246-.25-3.412 0-5.648 1.155-6.71 3.464v22.094h-9.018V24.608h8.52l.25 4.026c1.81-3.1 4.316-4.65 7.52-4.65 1 0 1.935.135 2.81.405l-.126 8.675zM444.526 31.256c-1.79 0-3.24.606-4.353 1.818-1.114 1.212-1.826 2.947-2.138 5.203h12.545v-.72c-.042-2.007-.582-3.558-1.623-4.656-1.04-1.096-2.517-1.644-4.43-1.644m1.03 27.742c-4.953 0-8.984-1.517-12.094-4.555-3.11-3.038-4.666-7.084-4.666-12.14v-.874c0-3.393.656-6.425 1.966-9.098 1.31-2.674 3.168-4.733 5.57-6.18 2.404-1.445 5.145-2.17 8.224-2.17 4.62 0 8.255 1.458 10.907 4.37 2.653 2.914 3.98 7.043 3.98 12.39v3.682H437.94c.292 2.206 1.172 3.974 2.638 5.306 1.467 1.33 3.324 1.997 5.57 1.997 3.475 0 6.19-1.26 8.146-3.776l4.43 4.963c-1.35 1.915-3.182 3.408-5.49 4.48-2.31 1.07-4.87 1.605-7.678 1.605M462.664 52.543c0-1.436.484-2.6 1.45-3.495.968-.894 2.18-1.342 3.637-1.342 1.478 0 2.7.448 3.668 1.342.967.895 1.45 2.06 1.45 3.495 0 1.415-.478 2.564-1.435 3.45-.957.883-2.184 1.325-3.682 1.325-1.477 0-2.694-.442-3.65-1.326-.958-.885-1.436-2.034-1.436-3.45M491.433 51.727c1.664 0 3.016-.457 4.057-1.373 1.04-.915 1.58-2.133 1.623-3.65h8.457c-.02 2.287-.645 4.383-1.873 6.287-1.227 1.905-2.907 3.382-5.04 4.432-2.132 1.05-4.49 1.576-7.068 1.576-4.828 0-8.635-1.534-11.423-4.603-2.788-3.068-4.182-7.307-4.182-12.717v-.593c0-5.2 1.384-9.35 4.15-12.45s6.565-4.65 11.392-4.65c4.223 0 7.61 1.2 10.158 3.603 2.548 2.403 3.843 5.602 3.885 9.596h-8.457c-.042-1.756-.583-3.184-1.623-4.282-1.04-1.098-2.414-1.647-4.12-1.647-2.1 0-3.687.766-4.76 2.297-1.07 1.532-1.606 4.017-1.606 7.454v.938c0 3.48.53 5.98 1.592 7.5 1.06 1.523 2.673 2.283 4.837 2.283M518.23 28.29c2.39-2.87 5.398-4.306 9.018-4.306 7.323 0 11.037 4.255 11.14 12.764v21.627h-9.018V36.998c0-1.935-.416-3.365-1.248-4.29-.832-.927-2.216-1.39-4.15-1.39-2.643 0-4.557 1.02-5.743 3.06v23.997h-9.02V10.44h9.02v17.85zM43.1 78.43a2.1 2.1 0 0 1-.823-.168c-.55-.234-13.523-5.88-18.462-17.732-2.866-6.878-2.974-13.112-.304-17.553 1.918-3.19 5.172-5.154 9.164-5.53 3.338-.31 6.174.476 8.425 2.346 3.845 3.196 4.502 8.452 4.594 9.473.007.072.858 7.39 8.136 6.846 2.866-.216 4.95-1.165 6.19-2.824 1.418-1.893 1.768-4.762 1.013-8.294-.796-3.726-5.87-22.313-27.58-22.313-9.007 0-16.952 3.665-21.798 10.053-5.36 7.068-6.615 17.023-3.532 28.03a2.1 2.1 0 0 1-4.045 1.134C.633 49.593 2.135 38.334 8.308 30.195 13.957 22.75 23.12 18.48 33.454 18.48c19.344 0 29.16 13.81 31.688 25.636 1.016 4.754.408 8.796-1.758 11.69-1.972 2.634-5.166 4.188-9.237 4.493-8.437.65-12.227-6.198-12.633-10.654-.04-.45-.473-4.442-3.097-6.622-1.38-1.147-3.128-1.6-5.348-1.395-2.667.25-4.726 1.464-5.957 3.51-1.935 3.222-1.724 8.242.582 13.774C31.98 69.206 43.805 74.348 43.924 74.4a2.1 2.1 0 0 1-.825 4.03zm-17.93-1.325c-.52 0-1.04-.192-1.448-.58-7.448-7.09-10.382-14.705-11.53-19.845-1.462-6.53-.884-12.772 1.584-17.127C16.504 34.743 24.582 24.02 40.64 28.3c10.433 2.812 14.275 14.457 15.443 19.338.057.163.095.336.11.517.092 1.094-.675 2.1-1.76 2.273-.194.03-1.94.25-2.433-1.81-.775-3.236-3.962-13.974-12.446-16.26-12.75-3.4-19.334 4.346-22.124 9.266-3.43 6.053-2.884 20.366 9.188 31.86a2.1 2.1 0 0 1-1.448 3.62zm27.06-7.387c-4.9 0-9.097-1.38-12.515-4.124-7.46-5.986-8.323-16.245-8.355-16.68a2.1 2.1 0 0 1 1.934-2.252 2.11 2.11 0 0 1 2.253 1.93c.01.13.797 8.93 6.818 13.744 3.406 2.72 7.927 3.702 13.438 2.915a2.097 2.097 0 0 1 2.376 1.784 2.1 2.1 0 0 1-1.783 2.376c-1.44.205-2.83.308-4.166.308zm14.885-38.52a2.097 2.097 0 0 1-1.807-1.027c-.4-.665-10.117-16.415-31.738-16.415-20.126 0-29.64 13.62-29.734 13.758a2.1 2.1 0 1 1-3.47-2.365C.797 24.51 11.245 9.555 33.57 9.555c24.075 0 34.898 17.714 35.347 18.468a2.1 2.1 0 0 1-1.802 3.174zM10.823 10.372a2.1 2.1 0 0 1-1.04-3.926c24.888-14.164 47.23-.66 48.168-.077a2.1 2.1 0 0 1-2.208 3.572c-.22-.135-21.218-12.743-43.883.155a2.09 2.09 0 0 1-1.037.276z"/></svg>