<svg id="Calque_1" xmlns="http://www.w3.org/2000/svg" viewBox="0 0 444.8 78.4"><style>.st0{fill:#d51224}.st1{fill:#646363}</style><path class="st0" d="M4.4 33.4v-2.1c0-.7.1-1.4.2-2.2l-4.5.3v-2.8c1.4 0 2.5 0 3.4-.1.9-.1 1.6-.2 2.1-.4s.9-.4 1.2-.6.6-.4.8-.7h1.8c0 .5.1 1.1.1 1.7.1.6.1 1.4.1 2.3.7-.6 1.4-1.2 2.3-1.7s1.7-1 2.6-1.4c.9-.4 1.8-.7 2.8-.9.9-.2 1.9-.3 2.8-.3 3.7 0 6.4 1.2 8.1 3.6 1.7 2.4 2.6 6.1 2.6 11.1V53.8c0 .7-.1 1.4-.2 2.1l4-.2v2.7h-13v-2c1 0 1.7-.2 2.2-.6.5-.4.9-.9 1.1-1.7.2-.7.4-1.6.4-2.5V39.2c0-3.8-.6-6.6-1.8-8.6s-3-2.9-5.6-2.9c-.8 0-1.5.1-2.3.4-.8.2-1.5.5-2.2.9s-1.4.8-2 1.3c-.6.5-1.2 1.1-1.6 1.7v2.5l.1 16.9v2.3c0 .7-.1 1.4-.2 2.1l4-.2v2.7H.7v-2c1 0 1.7-.2 2.2-.6.5-.4.9-.9 1.1-1.7.2-.7.3-1.6.4-2.5 0-1 .1-2.1.1-3.2l-.1-14.9zM52.6 26.9c-1.7 0-3.1.4-4.3 1.2-1.2.8-2.2 1.8-2.9 3.1-.8 1.3-1.3 2.8-1.7 4.4-.5 1.7-.7 3.4-.7 5.2 0 2 .2 4 .6 6 .4 1.9 1 3.6 1.9 5.1s1.9 2.7 3.1 3.6c1.3.9 2.7 1.4 4.4 1.4s3.1-.4 4.3-1.2 2.1-1.8 2.8-3.1c.7-1.3 1.2-2.8 1.5-4.4s.5-3.3.5-5.1c0-2-.2-3.9-.5-5.9-.4-1.9-.9-3.7-1.7-5.2-.8-1.5-1.8-2.8-3-3.7-1.2-.9-2.6-1.4-4.3-1.4m0-2.5c2.2 0 4.3.4 6.3 1.3 2 .8 3.7 2 5.1 3.5 1.4 1.5 2.6 3.3 3.4 5.3.8 2 1.3 4.3 1.3 6.6 0 2.5-.4 4.9-1.2 7.2s-2 4.2-3.4 5.8c-1.4 1.7-3.2 3-5.1 3.9-2 1-4.1 1.4-6.4 1.4-2.2 0-4.3-.4-6.3-1.2-1.9-.8-3.6-2-5.1-3.5-1.4-1.5-2.6-3.2-3.4-5.3-.8-2-1.2-4.3-1.2-6.7 0-2.6.4-5 1.2-7.2.8-2.2 1.9-4.2 3.4-5.8 1.4-1.6 3.1-2.9 5.1-3.9 1.9-.9 4-1.4 6.3-1.4M69.6 25.5c1.1 0 2.1-.3 3.1-.9.9-.6 1.7-1.4 2.4-2.3s1.3-1.9 1.8-3 .9-2.1 1.1-3h2.2v9.2H91V28l-10.8.1v18.3c0 1.5.1 2.8.2 4 .2 1.1.4 2.1.8 2.9.4.8.9 1.4 1.5 1.8.6.4 1.4.6 2.3.6 1.1 0 2.2-.3 3.3-1s2-1.7 2.9-2.9l1.7 1.4c-.9 1.5-1.9 2.6-2.8 3.4-.9.8-1.8 1.4-2.6 1.9-.8.4-1.6.7-2.3.8-.7.1-1.3.2-1.9.2-.6 0-1.3-.1-2-.2s-1.3-.3-2-.6-1.3-.8-1.8-1.3c-.6-.6-1.1-1.3-1.5-2.2s-.8-2-1-3.3-.4-2.8-.3-4.6l.1-19h-4.9v-2.8zM112.8 28c-.8 0-1.6.1-2.5.5-.8.3-1.6.8-2.4 1.5s-1.6 1.4-2.3 2.3-1.3 1.9-1.9 3l.1 16.2v2.3c0 .7-.1 1.4-.2 2.1l4-.2v2.7H94.5v-2c1 0 1.7-.2 2.2-.6.5-.4.9-.9 1.1-1.7.2-.7.4-1.6.4-2.5V33.4v-2.1c0-.7.1-1.4.2-2.2l-4.4.2v-2.7h2c.9 0 1.7 0 2.3-.1.6-.1 1.1-.2 1.5-.4.4-.2.7-.4 1-.6.3-.2.5-.4.8-.7h1.8c.1.7.1 1.5.2 2.6.1 1 .1 2.3.1 3.9.5-.8 1.1-1.6 1.8-2.5.7-.8 1.6-1.6 2.5-2.2.9-.7 1.9-1.2 3-1.6 1.1-.4 2.2-.6 3.3-.6.6 0 1.1.1 1.7.2s1 .4 1.4.8.7.8 1 1.3c.2.5.4 1.1.4 1.9 0 .3-.1.6-.2 1s-.3.7-.6 1c-.3.3-.6.6-1 .8-.4.2-.9.3-1.5.3-.5 0-.9-.1-1.3-.3-.4-.2-.7-.5-1-.8-.3-.3-.4-.7-.6-1.2.2-.4.2-.9.2-1.4M135.6 27c-2.5 0-4.6.8-6.2 2.3-1.6 1.5-2.7 3.9-3.2 7.3h16.3c0-1.2-.1-2.3-.4-3.4-.2-1.1-.6-2.2-1.2-3.1-.6-.9-1.3-1.6-2.1-2.2s-1.9-.9-3.2-.9m12.9 12l-22.5.3c0 2.5.2 4.8.6 6.9s1 3.8 1.9 5.3c.9 1.5 1.9 2.6 3.3 3.4 1.3.8 2.9 1.2 4.8 1.2 1 0 2-.1 3.1-.4 1-.3 2-.7 3-1.1 1-.5 1.9-1.1 2.7-1.7.8-.7 1.5-1.4 2-2.2L149 52c-.9 1.4-1.9 2.5-3 3.5-1.2 1-2.4 1.7-3.6 2.3-1.2.6-2.5 1-3.7 1.3-1.2.3-2.4.4-3.5.4-2.2 0-4.3-.4-6.2-1.2-1.9-.8-3.6-2-4.9-3.5-1.4-1.5-2.5-3.4-3.3-5.5-.8-2.1-1.2-4.6-1.2-7.2 0-2.3.4-4.5 1.2-6.6s1.9-4 3.3-5.6c1.4-1.6 3.1-2.9 5.1-3.9 2-1 4.2-1.4 6.6-1.4 1.8 0 3.4.3 5 .9s2.9 1.5 4.1 2.7c1.2 1.2 2.1 2.7 2.8 4.5.5 1.7.8 3.8.8 6.3"/><path class="st1" d="M193.4 58.4h-9.3V38.9h-18.3v19.5h-9.4V12.9h9.4v18.4h18.3V12.9h9.3z"/><g><path class="st1" d="M209 58.4h-9V24.6h9v33.8zm-9.6-42.5c0-1.4.5-2.5 1.4-3.3.9-.9 2.1-1.3 3.7-1.3 1.5 0 2.8.4 3.7 1.3.9.9 1.4 2 1.4 3.3 0 1.4-.5 2.5-1.4 3.4-.9.9-2.1 1.3-3.7 1.3-1.5 0-2.7-.4-3.7-1.3-.9-.9-1.4-2.1-1.4-3.4M232.7 49c0-1.1-.5-2-1.6-2.6-1.1-.6-2.8-1.2-5.3-1.7-8-1.7-12-5.1-12-10.2 0-3 1.2-5.5 3.7-7.5s5.7-3 9.8-3c4.3 0 7.7 1 10.3 3 2.6 2 3.9 4.6 3.9 7.9h-9c0-1.3-.4-2.4-1.2-3.2-.8-.8-2.1-1.3-3.9-1.3-1.5 0-2.7.3-3.5 1-.8.7-1.2 1.6-1.2 2.6s.5 1.8 1.4 2.4c.9.6 2.5 1.1 4.8 1.6 2.2.4 4.1 1 5.7 1.5 4.8 1.7 7.1 4.8 7.1 9.1 0 3.1-1.3 5.6-4 7.5-2.6 1.9-6.1 2.9-10.2 2.9-2.8 0-5.3-.5-7.5-1.5s-3.9-2.4-5.2-4.2c-1.2-1.8-1.9-3.7-1.9-5.7h8.6c.1 1.6.7 2.8 1.8 3.7 1.1.9 2.6 1.3 4.4 1.3 1.7 0 3-.3 3.9-1 .7-.6 1.1-1.5 1.1-2.6M257 16.3v8.3h5.8v6.6H257v16.9c0 1.2.2 2.1.7 2.7.5.5 1.4.8 2.7.8 1 0 1.9-.1 2.7-.2v6.8c-1.8.5-3.6.8-5.5.8-6.3 0-9.5-3.2-9.7-9.6V31.2H243v-6.6h4.9v-8.3h9.1zM273.2 41.8c0 3.2.6 5.7 1.8 7.4 1.2 1.7 2.9 2.5 5.2 2.5 2.2 0 3.9-.8 5.1-2.5 1.2-1.7 1.8-4.4 1.8-8 0-3.1-.6-5.6-1.8-7.3-1.2-1.7-3-2.6-5.2-2.6s-3.9.9-5.1 2.6c-1.2 1.7-1.8 4.3-1.8 7.9m-9-.6c0-3.3.6-6.3 1.9-9 1.3-2.6 3.1-4.6 5.6-6.1 2.4-1.4 5.2-2.2 8.4-2.2 4.6 0 8.3 1.4 11.2 4.2 2.9 2.8 4.5 6.6 4.8 11.4l.1 2.3c0 5.2-1.4 9.3-4.3 12.5S285 59 280.2 59c-4.9 0-8.8-1.6-11.7-4.7-2.9-3.1-4.4-7.4-4.4-12.7l.1-.4zM309.2 58.4h-9.1V24.6h9.1v33.8zm-9.6-42.5c0-1.4.5-2.5 1.4-3.3.9-.9 2.1-1.3 3.7-1.3 1.5 0 2.8.4 3.7 1.3.9.9 1.4 2 1.4 3.3 0 1.4-.5 2.5-1.4 3.4-.9.9-2.1 1.3-3.7 1.3-1.5 0-2.7-.4-3.7-1.3-.9-.9-1.4-2.1-1.4-3.4M333.9 33.1c-1.2-.2-2.3-.2-3.2-.2-3.4 0-5.6 1.2-6.7 3.5v22.1h-9V24.6h8.5l.2 4c1.8-3.1 4.3-4.6 7.5-4.6 1 0 1.9.1 2.8.4l-.1 8.7zM351 31.3c-1.8 0-3.2.6-4.4 1.8-1.1 1.2-1.8 2.9-2.1 5.2H357v-.7c0-2-.6-3.6-1.6-4.7-1.1-1.1-2.5-1.6-4.4-1.6m1 27.7c-5 0-9-1.5-12.1-4.6s-4.7-7.1-4.7-12.1v-.9c0-3.4.7-6.4 2-9.1 1.3-2.7 3.2-4.7 5.6-6.2 2.4-1.4 5.1-2.2 8.2-2.2 4.6 0 8.3 1.5 10.9 4.4 2.7 2.9 4 7 4 12.4v3.7h-21.5c.3 2.2 1.2 4 2.6 5.3 1.5 1.3 3.3 2 5.6 2 3.5 0 6.2-1.3 8.1-3.8l4.4 5c-1.4 1.9-3.2 3.4-5.5 4.5-2.2 1.1-4.8 1.6-7.6 1.6M369.1 52.5c0-1.4.5-2.6 1.5-3.5 1-.9 2.2-1.3 3.6-1.3 1.5 0 2.7.4 3.7 1.3s1.5 2.1 1.5 3.5-.5 2.6-1.4 3.4c-1 .9-2.2 1.3-3.7 1.3s-2.7-.4-3.7-1.3c-1-.8-1.5-1.9-1.5-3.4M397.9 51.7c1.7 0 3-.5 4.1-1.4 1-.9 1.6-2.1 1.6-3.7h8.5c0 2.3-.6 4.4-1.9 6.3-1.2 1.9-2.9 3.4-5 4.4-2.1 1.1-4.5 1.6-7.1 1.6-4.8 0-8.6-1.5-11.4-4.6-2.8-3.1-4.2-7.3-4.2-12.7V41c0-5.2 1.4-9.4 4.2-12.5S393.1 24 398 24c4.2 0 7.6 1.2 10.2 3.6 2.5 2.4 3.8 5.6 3.9 9.6h-8.5c0-1.8-.6-3.2-1.6-4.3-1-1.1-2.4-1.6-4.1-1.6-2.1 0-3.7.8-4.8 2.3-1.1 1.5-1.6 4-1.6 7.5v.9c0 3.5.5 6 1.6 7.5 1 1.5 2.6 2.2 4.8 2.2M424.7 28.3c2.4-2.9 5.4-4.3 9-4.3 7.3 0 11 4.3 11.1 12.8v21.6h-9V37c0-1.9-.4-3.4-1.2-4.3-.8-.9-2.2-1.4-4.2-1.4-2.6 0-4.6 1-5.7 3.1v24h-9v-48h9v17.9z"/></g></svg>