<svg id="XMLID_1_" xmlns="http://www.w3.org/2000/svg" viewBox="0 0 1751.1398 254.8962"><g id="nh-brand"><path fill="#D21419" d="M318.806 108.323c0-2.231.032-4.495.1-6.795.069-2.3.306-4.67.713-7.11l-14.718.836v-8.99c4.531 0 8.22-.156 11.062-.472 2.843-.312 5.126-.748 6.853-1.307 1.724-.556 3.061-1.164 4.008-1.828a23.426 23.426 0 0 0 2.64-2.143h5.989c.133 1.603.286 3.434.455 5.487.17 2.059.322 4.55.459 7.477a58.442 58.442 0 0 1 7.357-5.646 59.049 59.049 0 0 1 8.375-4.547 51.048 51.048 0 0 1 8.984-3.032c3.077-.731 6.105-1.099 9.084-1.099 12.044 0 20.843 3.887 26.391 11.657 5.55 7.774 8.324 19.847 8.324 36.227v39.938c0 2.86-.036 5.383-.101 7.579-.068 2.195-.306 4.514-.712 6.954l13.094-.628v8.782h-42.43v-6.378c3.182 0 5.599-.644 7.26-1.936 1.656-1.288 2.856-3.083 3.601-5.383.745-2.3 1.168-5.05 1.272-8.258.1-3.207.15-6.726.15-10.561v-29.9c-.137-12.338-2.098-21.624-5.888-27.862-3.789-6.239-9.813-9.358-18.068-9.358-2.504 0-5.009.384-7.51 1.148a41.23 41.23 0 0 0-7.208 2.983 38.57 38.57 0 0 0-6.495 4.339c-2.03 1.672-3.79 3.483-5.279 5.435.069 1.255.101 2.599.101 4.027v4.339l-.202 54.678c0 2.86-.035 5.383-.1 7.579-.069 2.195-.306 4.514-.713 6.954l13.095-.628v8.782h-42.43v-6.378c3.181 0 5.601-.644 7.26-1.936 1.656-1.288 2.843-3.083 3.552-5.383.712-2.3 1.116-5.05 1.216-8.258.105-3.207.19-6.726.257-10.561l.202-48.824zM475.282 87.308c-5.481 0-10.168 1.259-14.058 3.77-3.893 2.51-7.09 5.86-9.592 10.047-2.504 4.186-4.348 9-5.532 14.444-1.184 5.442-1.776 11.091-1.776 16.956 0 6.629.66 13.082 1.977 19.36 1.32 6.28 3.334 11.845 6.04 16.694 2.706 4.85 6.105 8.737 10.204 11.67 4.091 2.931 8.879 4.395 14.36 4.395 5.48 0 10.099-1.272 13.855-3.819 3.757-2.546 6.802-5.913 9.137-10.102 2.335-4.183 4.01-8.964 5.025-14.337 1.015-5.373 1.522-10.883 1.522-16.536 0-6.42-.575-12.77-1.727-19.05-1.151-6.278-2.98-11.895-5.48-16.849-2.505-4.953-5.735-8.967-9.693-12.037s-8.714-4.606-14.262-4.606m0-8.154c7.308 0 14.142 1.376 20.504 4.13 6.359 2.755 11.891 6.551 16.594 11.397 4.703 4.844 8.428 10.594 11.166 17.249 2.742 6.658 4.112 13.852 4.112 21.59 0 8.294-1.337 16.065-4.01 23.315-2.674 7.25-6.363 13.556-11.063 18.923-4.706 5.367-10.252 9.601-16.646 12.701-6.395 3.103-13.284 4.655-20.657 4.655-7.309 0-14.126-1.344-20.453-4.027-6.33-2.684-11.842-6.43-16.545-11.238-4.703-4.81-8.408-10.541-11.114-17.2-2.71-6.654-4.063-13.956-4.063-21.902 0-8.43 1.337-16.292 4.01-23.574 2.674-7.283 6.346-13.593 11.014-18.924 4.67-5.334 10.184-9.517 16.546-12.548 6.358-3.032 13.228-4.547 20.605-4.547M530.653 82.604c3.653-.068 6.97-1.099 9.947-3.083 2.98-1.987 5.6-4.46 7.868-7.422a48.23 48.23 0 0 0 5.734-9.673c1.555-3.484 2.774-6.76 3.656-9.826h7.103c0 5.714-.016 11.045-.048 15.996-.036 4.95-.052 9.618-.052 14.009h35.017v8.365l-35.017.416c-.069 9.27-.101 17.184-.101 23.734 0 6.55-.02 12.022-.052 16.413-.036 4.39-.05 7.858-.05 10.401 0 2.547-.019 4.482-.051 5.806a121.16 121.16 0 0 0-.052 2.56v.68c0 4.879.253 9.185.761 12.912.507 3.728 1.373 6.867 2.589 9.41 1.22 2.544 2.826 4.46 4.824 5.75 1.993 1.289 4.514 1.933 7.558 1.933 3.588 0 7.14-1.113 10.66-3.344 3.518-2.231 6.631-5.403 9.337-9.514l5.585 4.703c-3.048 4.74-6.076 8.454-9.085 11.134-3.011 2.686-5.874 4.706-8.577 6.066-2.709 1.356-5.23 2.212-7.562 2.56-2.335.348-4.384.523-6.14.523a41.18 41.18 0 0 1-6.447-.523c-2.199-.348-4.365-1.028-6.495-2.04-2.134-1.008-4.131-2.44-5.992-4.287-1.86-1.844-3.5-4.231-4.92-7.159-1.422-2.927-2.538-6.482-3.35-10.665-.814-4.182-1.185-9.13-1.117-14.844l.407-61.896-15.937.107v-9.202zM671.277 90.863c-2.638-.068-5.315.436-8.018 1.516-2.709 1.083-5.363 2.667-7.968 4.758-2.606 2.092-5.061 4.6-7.36 7.527-2.3 2.927-4.366 6.17-6.19 9.722l.201 52.59c0 2.86-.036 5.383-.1 7.579-.069 2.195-.306 4.514-.713 6.954l13.095-.628v8.782h-42.631v-6.378c3.18 0 5.597-.644 7.256-1.936 1.659-1.288 2.86-3.083 3.604-5.383.745-2.3 1.168-5.05 1.268-8.258.105-3.207.153-6.726.153-10.561v-48.928c0-2.228.033-4.479.101-6.743.068-2.264.306-4.618.712-7.058l-14.717.628v-8.782h6.394c2.976 0 5.445-.156 7.41-.472 1.96-.312 3.603-.748 4.924-1.307 1.317-.556 2.416-1.165 3.298-1.828a29.696 29.696 0 0 0 2.537-2.143h5.988c.205 2.23.39 5.002.56 8.31.165 3.311.318 7.582.455 12.808 1.558-2.647 3.555-5.314 5.988-7.998a48.838 48.838 0 0 1 8.222-7.214 46.305 46.305 0 0 1 9.846-5.227c3.519-1.36 7.139-2.039 10.863-2.039 1.893 0 3.737.26 5.53.784 1.792.524 3.35 1.343 4.67 2.459 1.32 1.115 2.384 2.507 3.197 4.18.814 1.674 1.217 3.694 1.217 6.065 0 .976-.185 2.056-.556 3.24-.374 1.187-.983 2.3-1.828 3.347-.846 1.044-1.913 1.916-3.197 2.612-1.285.699-2.879 1.047-4.772 1.047-1.558 0-2.96-.348-4.212-1.047a10.293 10.293 0 0 1-3.145-2.664c-.85-1.08-1.457-2.336-1.828-3.767-.374-1.427-.456-2.943-.254-4.547M745.484 87.624c-8.118 0-14.819 2.446-20.097 7.345s-8.766 12.834-10.454 23.808h52.984c0-3.75-.407-7.48-1.22-11.201-.81-3.715-2.114-7.049-3.906-10.002-1.795-2.95-4.111-5.347-6.954-7.188-2.843-1.841-6.294-2.762-10.353-2.762m42.023 38.891l-73.186 1.256c-.068 8.238.544 15.713 1.828 22.416 1.285 6.704 3.315 12.432 6.092 17.177 2.771 4.752 6.343 8.418 10.708 11 4.365 2.586 9.591 3.877 15.684 3.877 3.246 0 6.56-.458 9.946-1.37a51.66 51.66 0 0 0 9.793-3.733 44.65 44.65 0 0 0 8.681-5.676c2.638-2.208 4.837-4.576 6.597-7.1l5.074 4.287c-2.84 4.46-6.141 8.242-9.895 11.342-3.756 3.102-7.65 5.63-11.673 7.581-4.027 1.952-8.07 3.363-12.129 4.235-4.062.869-7.852 1.304-11.37 1.304-7.173 0-13.854-1.323-20.046-3.971s-11.557-6.447-16.088-11.397c-4.537-4.947-8.105-10.906-10.71-17.876-2.606-6.97-3.907-14.812-3.907-23.526 0-7.526 1.25-14.72 3.754-21.587s6.056-12.945 10.659-18.244c4.602-5.295 10.115-9.513 16.545-12.652 6.427-3.135 13.567-4.703 21.418-4.703 5.75 0 11.18.976 16.29 2.927a37.496 37.496 0 0 1 13.448 8.782c3.858 3.903 6.906 8.834 9.137 14.793 2.234 5.958 3.35 12.912 3.35 20.858"/><g><path fill="#646464" d="M933.44 189.663h-30.45v-63.337h-59.382v63.337h-30.45V41.873h30.45v59.886h59.382V41.873h30.45z"/></g><g><path fill="#646464" d="M984.056 189.661H954.62V79.835h29.436v109.826zM952.893 51.414c0-4.397 1.47-8.017 4.417-10.86 2.944-2.843 6.95-4.264 12.028-4.264 5.006 0 8.997 1.421 11.976 4.264 2.976 2.843 4.466 6.463 4.466 10.86 0 4.466-1.506 8.122-4.515 10.961-3.015 2.843-6.99 4.264-11.927 4.264-4.94 0-8.918-1.42-11.927-4.264-3.012-2.839-4.518-6.495-4.518-10.96M1061.312 159.313c0-3.585-1.776-6.411-5.327-8.476-3.556-2.063-9.257-3.907-17.106-5.533-26.121-5.48-39.18-16.575-39.18-33.293 0-9.742 4.043-17.88 12.129-24.41 8.086-6.532 18.66-9.794 31.722-9.794 13.937 0 25.087 3.282 33.443 9.845 8.359 6.564 12.538 15.089 12.538 25.578h-29.334c0-4.195-1.357-7.663-4.063-10.405-2.706-2.738-6.934-4.11-12.688-4.11-4.94 0-8.762 1.118-11.469 3.35-2.706 2.234-4.059 5.073-4.059 8.528 0 3.246 1.539 5.87 4.619 7.864 3.077 1.997 8.271 3.721 15.58 5.178 7.308 1.454 13.465 3.097 18.474 4.921 15.495 5.686 23.243 15.531 23.243 29.54 0 10.015-4.297 18.117-12.89 24.31-8.596 6.19-19.69 9.286-33.293 9.286-9.205 0-17.375-1.64-24.515-4.921-7.139-3.282-12.737-7.784-16.8-13.502-4.058-5.718-6.088-11.891-6.088-18.523h27.813c.27 5.21 2.199 9.201 5.786 11.976 3.585 2.778 8.389 4.163 14.412 4.163 5.617 0 9.862-1.067 12.74-3.197 2.875-2.134 4.313-4.924 4.313-8.375M1140.28 52.835v27h18.777v21.518h-18.777v54.812c0 4.063.777 6.97 2.335 8.73 1.555 1.76 4.531 2.638 8.932 2.638 3.249 0 6.124-.234 8.629-.71v22.232a60.503 60.503 0 0 1-17.766 2.638c-20.569 0-31.059-10.389-31.465-31.163v-59.177h-16.038V79.834h16.038v-27h29.335zM1192.892 135.816c0 10.437 1.961 18.42 5.887 23.942 3.922 5.523 9.543 8.284 16.848 8.284 7.107 0 12.656-2.729 16.647-8.183 3.994-5.455 5.99-14.181 5.99-26.177 0-10.232-1.996-18.162-5.99-23.789-3.991-5.624-9.608-8.437-16.849-8.437-7.175 0-12.724 2.797-16.646 8.385-3.926 5.594-5.887 14.253-5.887 25.975m-29.335-2.082c0-10.893 2.098-20.605 6.294-29.133 4.195-8.525 10.232-15.124 18.116-19.792 7.885-4.67 17.037-7.002 27.458-7.002 14.82 0 26.915 4.534 36.29 13.599 9.37 9.07 14.597 21.385 15.68 36.948l.202 7.51c0 16.852-4.7 30.37-14.107 40.554-9.406 10.183-22.026 15.274-37.863 15.274-15.833 0-28.47-5.074-37.912-15.226-9.438-10.15-14.158-23.955-14.158-41.411v-1.32zM1310.098 189.661h-29.435V79.835h29.435v109.826zm-31.162-138.247c0-4.397 1.47-8.017 4.413-10.86 2.944-2.843 6.954-4.264 12.032-4.264 5.005 0 8.996 1.421 11.975 4.264 2.977 2.843 4.466 6.463 4.466 10.86 0 4.466-1.506 8.122-4.518 10.961-3.008 2.843-6.986 4.264-11.923 4.264-4.941 0-8.919-1.42-11.928-4.264-3.012-2.839-4.517-6.495-4.517-10.96M1390.336 107.342c-3.994-.54-7.51-.813-10.558-.813-11.098 0-18.37 3.757-21.821 11.267v71.865h-29.335V79.835h27.712l.81 13.095c5.887-10.083 14.04-15.124 24.462-15.124 3.25 0 6.294.439 9.136 1.317l-.406 28.22zM1445.844 101.457c-5.818 0-10.541 1.97-14.158 5.913-3.623 3.942-5.94 9.585-6.954 16.923h40.803v-2.345c-.136-6.525-1.893-11.57-5.279-15.141-3.382-3.568-8.186-5.35-14.412-5.35m3.35 90.235c-16.106 0-29.217-4.937-39.333-14.818-10.115-9.882-15.176-23.041-15.176-39.486v-2.843c0-11.03 2.134-20.891 6.394-29.589 4.264-8.694 10.305-15.39 18.12-20.097 7.816-4.7 16.732-7.055 26.746-7.055 15.024 0 26.85 4.74 35.476 14.21 8.629 9.478 12.942 22.908 12.942 40.3v11.976h-69.937c.947 7.175 3.809 12.925 8.577 17.258 4.772 4.329 10.812 6.495 18.12 6.495 11.3 0 20.13-4.095 26.492-12.282l14.416 16.14c-4.401 6.225-10.357 11.081-17.867 14.565-7.513 3.483-15.833 5.226-24.97 5.226M1504.84 170.695c0-4.67 1.575-8.457 4.72-11.368 3.146-2.908 7.088-4.365 11.827-4.365 4.804 0 8.778 1.457 11.927 4.365 3.145 2.911 4.72 6.697 4.72 11.368 0 4.602-1.559 8.34-4.672 11.218-3.112 2.875-7.103 4.313-11.976 4.313-4.807 0-8.765-1.438-11.875-4.313-3.115-2.878-4.67-6.616-4.67-11.218M1598.414 168.042c5.412 0 9.81-1.486 13.195-4.466 3.383-2.976 5.142-6.937 5.279-11.875h27.507c-.068 7.442-2.098 14.26-6.092 20.452-3.991 6.193-9.455 10.997-16.393 14.413-6.935 3.418-14.598 5.126-22.99 5.126-15.7 0-28.082-4.99-37.15-14.972-9.068-9.979-13.602-23.766-13.602-41.363v-1.929c0-16.916 4.502-30.414 13.501-40.497 9-10.083 21.35-15.125 37.05-15.125 13.736 0 24.749 3.907 33.04 11.723 8.287 7.816 12.5 18.22 12.636 31.211h-27.507c-.137-5.711-1.896-10.356-5.279-13.927-3.386-3.572-7.852-5.357-13.397-5.357-6.837 0-11.996 2.491-15.482 7.47-3.484 4.984-5.227 13.066-5.227 24.245v3.051c0 11.32 1.727 19.454 5.178 24.398 3.45 4.95 8.694 7.422 15.733 7.422M1685.568 91.813c7.78-9.338 17.56-14.009 29.335-14.009 23.819 0 35.899 13.84 36.237 41.516v70.343h-29.335v-69.53c0-6.294-1.353-10.945-4.06-13.957-2.708-3.012-7.207-4.518-13.5-4.518-8.594 0-14.82 3.318-18.677 9.95v78.055h-29.334V33.752h29.334v58.061z"/><path fill="#D9D9D9" d="M140.183 254.896a6.825 6.825 0 0 1-2.677-.549c-1.788-.762-43.983-19.124-60.047-57.674-9.32-22.37-9.673-42.644-.99-57.09 6.237-10.38 16.822-16.767 29.804-17.987 10.866-1.019 20.084 1.547 27.403 7.63 12.51 10.394 14.647 27.488 14.948 30.809.022.237 2.837 24.052 26.46 22.266 9.324-.7 16.098-3.79 20.134-9.181 4.612-6.161 5.752-15.49 3.297-26.978-2.59-12.119-19.094-72.577-89.706-72.577-29.298 0-55.14 11.917-70.899 32.696-17.436 22.989-21.517 55.368-11.492 91.173a6.83 6.83 0 0 1-4.735 8.42 6.828 6.828 0 0 1-8.419-4.736C2.06 161.099 6.946 124.48 27.026 98.006 45.39 73.792 75.2 59.904 108.809 59.904c31.61 0 57.422 10.732 76.72 31.898 18.084 19.834 24.448 42.612 26.345 51.485 3.304 15.46 1.326 28.607-5.72 38.02-6.414 8.567-16.803 13.62-30.046 14.617-27.44 2.05-39.767-20.16-41.088-34.652-.133-1.46-1.54-14.447-10.075-21.54-4.487-3.73-10.176-5.218-17.395-4.535-8.672.815-15.372 4.765-19.373 11.423-6.295 10.475-5.606 26.804 1.892 44.799 13.95 33.475 52.41 50.197 52.797 50.362a6.831 6.831 0 0 1-2.683 13.115zm-58.316-4.311a6.807 6.807 0 0 1-4.71-1.883c-24.227-23.067-33.769-47.834-37.507-64.549-4.75-21.241-2.87-41.547 5.159-55.71 8.87-15.645 35.135-50.533 87.38-36.596 33.928 9.141 46.424 47.018 50.225 62.893.185.531.307 1.094.356 1.68.3 3.56-2.195 6.83-5.722 7.396-.642.106-6.314.814-7.917-5.885-2.52-10.527-12.885-45.454-40.48-52.889-41.47-11.06-62.886 14.135-71.959 30.138-11.161 19.69-9.382 66.242 29.886 103.627a6.831 6.831 0 0 1-4.711 11.778zm88.018-24.029c-15.942 0-29.595-4.489-40.712-13.413-24.258-19.47-27.067-52.837-27.175-54.248a6.83 6.83 0 0 1 13.62-1.05c.035.422 2.591 29.045 22.178 44.703 11.075 8.852 25.78 12.045 43.708 9.482a6.83 6.83 0 1 1 1.932 13.523c-4.685.67-9.203 1.003-13.551 1.003zm48.407-125.288a6.827 6.827 0 0 1-5.875-3.337c-.073-.123-8.282-13.607-25.12-26.859-22.376-17.608-48.655-26.536-78.108-26.536-65.464 0-96.409 44.3-96.713 44.747a6.83 6.83 0 1 1-11.29-7.692C2.599 79.52 36.582 30.875 109.19 30.875c40.878 0 69.897 16.231 87.043 29.847 18.625 14.792 27.552 29.598 27.923 30.22a6.83 6.83 0 0 1-5.863 10.326zM35.2 33.533a6.83 6.83 0 0 1-3.384-12.768C74.121-3.308 114.408-2.133 140.755 3.091c28.518 5.654 46.963 16.947 47.735 17.424a6.831 6.831 0 0 1-7.188 11.617c-.201-.123-17.51-10.638-43.72-15.743-34.832-6.783-68.143-1.316-99.012 16.25a6.795 6.795 0 0 1-3.371.894z"/></g></g></svg>