<svg id="Calque_1" xmlns="http://www.w3.org/2000/svg" viewBox="0 0 538.3887 78.431"><g fill="#D51224"><path d="M98.017 33.367c0-.686.01-1.382.031-2.09.021-.706.094-1.435.22-2.185l-4.526.257v-2.764c1.393 0 2.527-.048 3.401-.145.874-.096 1.576-.23 2.107-.402.53-.171.941-.358 1.232-.562.291-.204.562-.423.812-.66h1.841l.14 1.688c.052.633.1 1.399.141 2.299a17.97 17.97 0 0 1 2.262-1.736 18.157 18.157 0 0 1 2.575-1.398 15.694 15.694 0 0 1 2.762-.932 12.044 12.044 0 0 1 2.793-.338c3.703 0 6.408 1.195 8.114 3.584 1.706 2.39 2.56 6.102 2.56 11.138V51.4c0 .879-.012 1.655-.032 2.33a16.073 16.073 0 0 1-.219 2.138l4.026-.193v2.7h-13.045v-1.961c.978 0 1.721-.198 2.232-.595.51-.396.878-.948 1.107-1.655.23-.707.36-1.553.391-2.54.031-.985.046-2.067.046-3.246v-9.193c-.042-3.793-.645-6.648-1.81-8.566s-3.017-2.877-5.555-2.877c-.77 0-1.54.118-2.309.353-.77.237-1.509.542-2.216.917s-1.373.819-1.997 1.334a10.136 10.136 0 0 0-1.623 1.67c.021.387.031.8.031 1.239v1.334l-.062 16.81c0 .88-.01 1.656-.03 2.33a16.073 16.073 0 0 1-.22 2.139l4.026-.193v2.7H94.178v-1.961c.978 0 1.722-.198 2.232-.595.51-.396.874-.948 1.092-1.655.22-.707.343-1.553.374-2.54.032-.985.058-2.067.08-3.246l.061-15.011zM146.126 26.906c-1.685 0-3.126.387-4.322 1.159-1.197.772-2.18 1.802-2.95 3.089s-1.336 2.767-1.7 4.44a24.45 24.45 0 0 0-.546 5.214c0 2.038.203 4.022.608 5.952.406 1.93 1.025 3.642 1.857 5.133.832 1.49 1.877 2.686 3.137 3.588 1.258.9 2.73 1.35 4.415 1.35s3.105-.39 4.26-1.173c1.155-.783 2.09-1.818 2.809-3.106.718-1.286 1.233-2.756 1.545-4.408.312-1.652.468-3.346.468-5.084 0-1.974-.177-3.926-.531-5.857-.354-1.93-.916-3.657-1.685-5.18-.77-1.523-1.763-2.757-2.98-3.701s-2.68-1.416-4.385-1.416m0-2.507c2.247 0 4.348.423 6.304 1.27a15.76 15.76 0 0 1 5.102 3.504c1.446 1.489 2.59 3.257 3.433 5.303.843 2.047 1.264 4.259 1.264 6.638 0 2.55-.411 4.939-1.233 7.168-.822 2.229-1.956 4.168-3.401 5.818a16.06 16.06 0 0 1-5.118 3.905c-1.966.954-4.084 1.43-6.351 1.43-2.247 0-4.343-.412-6.288-1.237a15.504 15.504 0 0 1-5.087-3.455c-1.446-1.48-2.585-3.241-3.417-5.288-.833-2.046-1.25-4.291-1.25-6.734 0-2.592.412-5.01 1.234-7.248.822-2.24 1.95-4.18 3.386-5.818a15.634 15.634 0 0 1 5.087-3.858c1.955-.932 4.067-1.398 6.335-1.398M163.15 25.46a5.59 5.59 0 0 0 3.058-.949 10.072 10.072 0 0 0 2.419-2.282 14.827 14.827 0 0 0 1.763-2.974 23.167 23.167 0 0 0 1.124-3.02h2.184c0 1.756-.005 3.395-.015 4.917a596.274 596.274 0 0 0-.016 4.307h10.766v2.572l-10.766.128c-.021 2.85-.031 5.283-.031 7.297s-.006 3.696-.016 5.046a410.47 410.47 0 0 0-.016 3.198c0 .783-.005 1.378-.015 1.785-.011.407-.016.67-.016.787v.21c0 1.5.078 2.823.234 3.97.156 1.145.422 2.11.796 2.892.375.782.869 1.371 1.483 1.768.613.396 1.388.594 2.324.594 1.103 0 2.195-.342 3.277-1.028s2.039-1.66 2.87-2.925l1.718 1.446c-.937 1.457-1.868 2.6-2.793 3.423-.926.826-1.806 1.447-2.637 1.865-.833.417-1.608.68-2.325.787-.718.107-1.348.161-1.888.161-.646 0-1.306-.054-1.982-.16s-1.342-.317-1.997-.628a6.654 6.654 0 0 1-1.842-1.318c-.572-.567-1.076-1.3-1.513-2.2-.437-.9-.78-1.994-1.03-3.28s-.364-2.807-.343-4.564l.125-19.03-4.9.033V25.46zM206.385 27.999c-.811-.021-1.634.134-2.465.466-.833.333-1.65.82-2.45 1.463s-1.556 1.414-2.263 2.314c-.707.9-1.342 1.897-1.903 2.989l.062 16.169c0 .879-.011 1.655-.031 2.33a16.073 16.073 0 0 1-.22 2.138l4.027-.193v2.7h-13.107v-1.961c.978 0 1.72-.198 2.23-.595.51-.396.88-.948 1.109-1.655.229-.707.359-1.553.39-2.54.032-.985.047-2.067.047-3.246V33.335c0-.685.01-1.377.03-2.073.022-.696.095-1.42.22-2.17l-4.525.193v-2.7h1.966c.915 0 1.674-.048 2.278-.145.603-.096 1.108-.23 1.514-.402a4.772 4.772 0 0 0 1.014-.562c.27-.203.53-.423.78-.66h1.84c.064.687.12 1.539.173 2.556.05 1.018.098 2.33.14 3.938.479-.814 1.093-1.634 1.84-2.46a15.015 15.015 0 0 1 2.529-2.217 14.235 14.235 0 0 1 3.027-1.607 9.192 9.192 0 0 1 3.34-.627c.582 0 1.149.08 1.7.24.55.162 1.03.414 1.436.757.406.343.733.77.983 1.285.25.515.374 1.136.374 1.865 0 .3-.057.632-.171.996a3.125 3.125 0 0 1-.562 1.029c-.26.32-.588.589-.983.803-.395.215-.885.322-1.467.322-.48 0-.91-.107-1.296-.322a3.165 3.165 0 0 1-.967-.82 3.11 3.11 0 0 1-.562-1.157 3.668 3.668 0 0 1-.077-1.398M229.2 27.003c-2.496 0-4.556.752-6.18 2.258-1.623 1.506-2.695 3.946-3.214 7.32h16.29c0-1.153-.125-2.3-.375-3.444-.249-1.142-.65-2.167-1.2-3.075a6.815 6.815 0 0 0-2.138-2.21c-.875-.566-1.936-.85-3.184-.85m12.92 11.958l-22.5.386c-.022 2.533.166 4.83.561 6.892s1.02 3.822 1.873 5.28c.852 1.462 1.95 2.589 3.292 3.383 1.342.795 2.95 1.192 4.822 1.192.998 0 2.017-.141 3.058-.421 1.04-.28 2.044-.662 3.011-1.148a13.728 13.728 0 0 0 2.67-1.745 11.258 11.258 0 0 0 2.027-2.183l1.56 1.318c-.873 1.37-1.888 2.534-3.042 3.487a17.93 17.93 0 0 1-3.589 2.33 16.471 16.471 0 0 1-3.729 1.303c-1.249.267-2.414.4-3.496.4-2.205 0-4.259-.406-6.163-1.22a14.19 14.19 0 0 1-4.946-3.504c-1.395-1.521-2.492-3.353-3.293-5.496-.8-2.143-1.2-4.554-1.2-7.233 0-2.314.383-4.526 1.153-6.637.77-2.111 1.862-3.98 3.277-5.61a15.91 15.91 0 0 1 5.087-3.89c1.976-.963 4.171-1.445 6.585-1.445 1.768 0 3.437.3 5.008.9 1.571.6 2.95 1.5 4.135 2.7 1.186 1.2 2.123 2.716 2.81 4.548.686 1.832 1.03 3.97 1.03 6.413"/></g><path fill="#646363" d="M286.987 58.374h-9.362V38.901h-18.257v19.473h-9.362V12.936h9.362V31.35h18.257V12.937h9.362zM302.548 58.374h-9.05V24.608h9.05v33.766zm-9.58-42.504c0-1.352.451-2.465 1.357-3.339.905-.874 2.137-1.31 3.698-1.31 1.54 0 2.766.436 3.682 1.31.915.874 1.373 1.987 1.373 3.34 0 1.372-.463 2.496-1.388 3.37-.927.873-2.149 1.31-3.667 1.31-1.519 0-2.742-.437-3.667-1.31-.925-.874-1.389-1.998-1.389-3.37M326.301 49.043c0-1.102-.546-1.97-1.638-2.606-1.093-.634-2.846-1.2-5.259-1.7-8.031-1.686-12.046-5.097-12.046-10.237 0-2.995 1.243-5.497 3.729-7.505 2.486-2.008 5.737-3.01 9.753-3.01 4.285 0 7.713 1.008 10.282 3.026 2.57 2.018 3.855 4.64 3.855 7.864h-9.019c0-1.29-.417-2.356-1.249-3.199-.832-.842-2.132-1.264-3.901-1.264-1.519 0-2.694.344-3.526 1.03-.832.687-1.248 1.56-1.248 2.622 0 .998.473 1.805 1.42 2.418.946.614 2.543 1.144 4.79 1.592 2.247.447 4.14.952 5.68 1.513 4.764 1.748 7.146 4.775 7.146 9.082 0 3.08-1.321 5.57-3.963 7.474-2.643 1.903-6.054 2.855-10.236 2.855-2.83 0-5.342-.504-7.537-1.513-2.195-1.009-3.916-2.393-5.165-4.15-1.248-1.759-1.872-3.657-1.872-5.696h8.551c.083 1.602.676 2.83 1.779 3.682 1.102.854 2.579 1.28 4.431 1.28 1.727 0 3.032-.328 3.917-.983.884-.656 1.326-1.514 1.326-2.575M350.58 16.307v8.3h5.773v6.617h-5.773v16.852c0 1.249.239 2.143.718 2.684.478.54 1.393.81 2.746.81.999 0 1.883-.071 2.653-.217v6.835c-1.77.54-3.59.81-5.462.81-6.324 0-9.55-3.193-9.674-9.58V31.224h-4.931v-6.616h4.93v-8.301h9.02zM366.755 41.82c0 3.208.603 5.662 1.81 7.36 1.206 1.698 2.934 2.547 5.18 2.547 2.185 0 3.891-.839 5.118-2.516 1.228-1.677 1.842-4.36 1.842-8.048 0-3.146-.614-5.584-1.842-7.314-1.227-1.729-2.954-2.594-5.18-2.594-2.206 0-3.912.86-5.118 2.578-1.207 1.72-1.81 4.382-1.81 7.986m-9.019-.64c0-3.349.645-6.335 1.935-8.957 1.29-2.62 3.146-4.65 5.57-6.085 2.424-1.436 5.238-2.153 8.442-2.153 4.556 0 8.275 1.394 11.157 4.181 2.881 2.79 4.488 6.575 4.821 11.36l.062 2.31c0 5.18-1.445 9.336-4.337 12.467s-6.772 4.696-11.64 4.696c-4.869 0-8.754-1.56-11.657-4.68-2.902-3.122-4.353-7.366-4.353-12.733v-.406zM402.79 58.374h-9.05V24.608h9.05v33.766zm-9.58-42.504c0-1.352.451-2.465 1.356-3.339.905-.874 2.138-1.31 3.7-1.31 1.538 0 2.765.436 3.681 1.31.915.874 1.373 1.987 1.373 3.34 0 1.372-.463 2.496-1.389 3.37-.925.873-2.148 1.31-3.666 1.31-1.519 0-2.742-.437-3.667-1.31-.926-.874-1.389-1.998-1.389-3.37M427.46 33.065c-1.228-.166-2.31-.25-3.246-.25-3.412 0-5.648 1.155-6.71 3.464v22.095h-9.018V24.608h8.519l.25 4.026c1.81-3.1 4.317-4.65 7.52-4.65 1 0 1.936.135 2.81.405l-.125 8.676zM444.526 31.256c-1.79 0-3.241.606-4.353 1.818-1.114 1.212-1.826 2.947-2.138 5.203h12.545v-.721c-.042-2.006-.582-3.557-1.623-4.655-1.04-1.098-2.517-1.646-4.431-1.646M445.556 59c-4.952 0-8.983-1.519-12.093-4.557-3.11-3.037-4.666-7.083-4.666-12.14v-.873c0-3.392.656-6.424 1.966-9.098 1.31-2.673 3.168-4.732 5.57-6.179 2.404-1.445 5.145-2.169 8.224-2.169 4.619 0 8.255 1.457 10.907 4.37 2.653 2.913 3.979 7.042 3.979 12.39v3.681H437.94c.29 2.206 1.17 3.974 2.637 5.306 1.467 1.331 3.324 1.997 5.57 1.997 3.475 0 6.19-1.259 8.146-3.776l4.43 4.962c-1.351 1.915-3.182 3.408-5.491 4.479-2.31 1.07-4.868 1.606-7.677 1.606M462.664 52.543c0-1.436.484-2.6 1.451-3.495.967-.894 2.179-1.342 3.636-1.342 1.477 0 2.699.448 3.667 1.342.967.895 1.451 2.059 1.451 3.495 0 1.415-.479 2.564-1.436 3.449-.957.884-2.184 1.326-3.682 1.326-1.478 0-2.695-.442-3.65-1.326-.959-.885-1.437-2.034-1.437-3.449M491.433 51.727c1.664 0 3.016-.457 4.057-1.373 1.04-.915 1.581-2.133 1.623-3.65h8.457c-.02 2.287-.645 4.383-1.873 6.287-1.227 1.904-2.907 3.381-5.04 4.431-2.132 1.051-4.489 1.576-7.068 1.576-4.827 0-8.634-1.534-11.422-4.603-2.788-3.068-4.182-7.307-4.182-12.717v-.593c0-5.2 1.384-9.35 4.151-12.45s6.564-4.65 11.391-4.65c4.223 0 7.61 1.2 10.158 3.603 2.548 2.403 3.843 5.602 3.885 9.596h-8.457c-.042-1.756-.583-3.184-1.623-4.282-1.04-1.098-2.414-1.647-4.119-1.647-2.102 0-3.688.766-4.76 2.297-1.07 1.532-1.607 4.017-1.607 7.454v.938c0 3.48.531 5.981 1.592 7.501 1.061 1.522 2.673 2.282 4.837 2.282M518.229 28.29c2.392-2.87 5.399-4.306 9.019-4.306 7.323 0 11.037 4.255 11.14 12.764v21.627h-9.018V36.998c0-1.935-.416-3.365-1.248-4.291-.832-.926-2.216-1.39-4.151-1.39-2.642 0-4.556 1.02-5.742 3.06v23.998h-9.02V10.44h9.02v17.85zM43.1 78.431c-.276 0-.555-.055-.823-.169-.55-.234-13.523-5.88-18.462-17.732-2.866-6.878-2.974-13.112-.304-17.553 1.917-3.19 5.171-5.154 9.163-5.53 3.338-.31 6.174.476 8.425 2.346 3.846 3.196 4.503 8.452 4.596 9.473.006.072.857 7.39 8.135 6.846 2.866-.216 4.949-1.165 6.19-2.824 1.418-1.893 1.768-4.762 1.013-8.294-.796-3.726-5.87-22.313-27.58-22.313-9.007 0-16.952 3.664-21.798 10.052C6.295 39.8 5.04 49.756 8.123 60.764a2.1 2.1 0 0 1-4.045 1.133C.633 49.593 2.135 38.334 8.309 30.195 13.956 22.75 23.12 18.48 33.453 18.48c19.344 0 29.16 13.81 31.688 25.636 1.015 4.754.407 8.796-1.759 11.69-1.972 2.634-5.166 4.188-9.237 4.493-8.437.65-12.227-6.197-12.633-10.653-.04-.45-.473-4.442-3.097-6.622-1.38-1.147-3.128-1.6-5.348-1.395-2.667.251-4.726 1.465-5.957 3.512-1.935 3.22-1.724 8.241.582 13.773C31.98 69.206 43.805 74.348 43.924 74.4a2.1 2.1 0 0 1-.825 4.032zm-17.93-1.326a2.09 2.09 0 0 1-1.448-.58C16.274 69.435 13.34 61.82 12.19 56.68c-1.46-6.53-.883-12.772 1.585-17.127 2.728-4.81 10.806-15.534 26.865-11.252 10.432 2.81 14.274 14.456 15.442 19.337.057.163.095.336.11.517.092 1.094-.675 2.1-1.76 2.273-.194.031-1.94.251-2.433-1.81-.775-3.236-3.962-13.974-12.446-16.26-12.749-3.4-19.334 4.346-22.124 9.266-3.431 6.053-2.884 20.366 9.188 31.86a2.1 2.1 0 0 1-1.448 3.62zm27.061-7.387c-4.902 0-9.098-1.38-12.516-4.124-7.459-5.986-8.323-16.245-8.355-16.679a2.1 2.1 0 0 1 1.934-2.253 2.11 2.11 0 0 1 2.253 1.93c.01.131.797 8.93 6.818 13.744 3.406 2.721 7.927 3.702 13.438 2.915a2.097 2.097 0 0 1 2.376 1.783 2.1 2.1 0 0 1-1.782 2.376c-1.44.205-2.83.308-4.166.308zm14.884-38.52a2.097 2.097 0 0 1-1.807-1.027c-.4-.666-10.117-16.416-31.738-16.416-20.126 0-29.64 13.62-29.734 13.758a2.1 2.1 0 1 1-3.47-2.365C.797 24.51 11.245 9.555 33.57 9.555c24.074 0 34.897 17.714 35.346 18.468a2.1 2.1 0 0 1-1.802 3.174zM10.823 10.372a2.1 2.1 0 0 1-1.041-3.926c24.889-14.164 47.23-.659 48.17-.077a2.1 2.1 0 0 1-2.21 3.572c-.22-.135-21.218-12.743-43.883.155a2.09 2.09 0 0 1-1.037.276z"/></svg>