<svg id="XMLID_1_" xmlns="http://www.w3.org/2000/svg" viewBox="0 0 983.3386 353.6108"><g id="waves" fill="#F2D0D3"><path d="M308.75 151.258h.016c22.645 0 45.45 3.052 68.024 10.01 214.796 66.214 404.77 130.842 545.73 130.85h.02c21.428 0 41.717-1.51 60.8-4.724v-1.016c-19.07 3.223-39.364 4.738-60.82 4.74-140.67.007-330.634-64.58-545.435-130.805-22.677-6.99-45.584-10.056-68.32-10.056-81.115.006-160.013 38.995-218.647 77.958-43.995 29.237-76.582 58.47-90.118 71.25v1.378c14.126-13.395 51.486-47.065 101.88-79.08 57.182-36.332 131.14-70.505 206.87-70.505z"/><path d="M95.782 241.876c54.324-36.99 125.14-71.78 199.17-71.78h.015c23.042 0 46.4 3.366 69.68 11.08 219.478 72.733 414.736 132.565 556.576 132.57 22.03 0 42.767-1.45 62.116-4.516v-1.012c-19.33 3.073-40.068 4.528-62.117 4.53-141.572.005-336.806-59.788-556.262-132.52-23.387-7.75-46.854-11.133-69.993-11.133-79.32.006-154.772 39.71-210.41 79.385C43.303 277.903 12.946 307.315 0 320.563v1.433c13.52-13.902 48.37-47.84 95.782-80.12zM423.647 19.87h.015c13.012 0 25.762.65 38.152 2.037 78.33 8.77 151.404 40.548 223.722 70.16 72.317 29.606 143.884 57.05 219.224 57.054h.012c25.694 0 51.827-3.204 78.567-10.594v-1.04c-26.748 7.42-52.88 10.634-78.58 10.635-75.09.004-146.54-27.373-218.845-56.98-72.305-29.6-145.46-61.43-223.99-70.227-12.43-1.392-25.218-2.043-38.263-2.043-94.146.004-201.735 33.88-285.813 67.744C70.35 113.804 18.02 140.986 0 150.652v1.135c18.892-10.15 78.502-41.17 154.242-70.583C235.617 49.602 335.61 19.87 423.647 19.87z"/><path d="M385.467 57.372h.012c17.722 0 35.145 1.362 52.036 4.353 88.542 15.68 171.253 47.424 249.978 75.263 78.726 27.837 153.468 51.774 226.1 51.776h.015c23.444 0 46.668-2.504 69.73-8.172v-1.028c-23.06 5.69-46.286 8.2-69.747 8.2-72.408.002-147.057-23.884-225.765-51.72-78.71-27.83-161.473-59.6-250.138-75.303-16.956-3.002-34.436-4.368-52.21-4.368-90.43.004-188.483 35.348-263.95 70.678C62.024 154.908 16.574 182.76 0 193.302v1.184c17.35-11.058 69.21-42.914 136.347-73.14 73.21-32.964 164.59-63.974 249.12-63.974z"/><path d="M301.814 160.674h.013c22.86 0 45.953 3.21 68.89 10.55 217.263 69.504 409.97 131.655 551.3 131.662h.017c21.674 0 42.14-1.47 61.305-4.595v-1.015c-19.153 3.134-39.622 4.61-61.322 4.61-141.053.008-333.743-62.104-550.995-131.614-23.043-7.372-46.244-10.596-69.196-10.596-80.215.005-157.38 39.353-214.507 78.672C44.702 267.683 13.24 297.01 0 310.022v1.403c13.827-13.65 49.924-47.46 98.81-79.607 55.75-36.663 128.12-71.144 203.004-71.144zM446.235 1h.012c9.424 0 18.676.322 27.72.997 72.862 5.44 140.785 37.295 209.732 67.83 68.943 30.527 138.92 59.733 215.913 59.736h.01c26.964 0 54.787-3.597 83.716-11.96v-1.04c-28.942 8.394-56.764 12-83.727 12-76.733.002-146.575-29.123-215.51-59.652C615.17 38.39 547.152 6.464 474.04 1c-9.07-.677-18.346-1-27.793-1-95.81.003-209.042 33.175-298.346 66.337C75.53 93.213 18.883 120.085 0 129.31v1.115c19.822-9.698 84.295-40.33 165.253-69.357C251.563 30.118 356.626 1 446.235 1z"/><path d="M86.89 272.06c50.154-37.972 116.372-73.682 187.89-73.682h.013c23.43 0 47.43 3.83 71.64 12.662 224.704 81.983 426.563 135.876 570.658 135.88 23.702 0 45.825-1.474 66.25-4.508v-1.01c-20.407 3.04-42.53 4.518-66.244 4.518h-.005c-143.856.004-345.667-53.85-570.314-135.82-24.323-8.874-48.446-12.72-71.983-12.72-76.66.004-147.078 40.777-198.34 81.513-37.26 29.612-64.398 59.21-76.453 73.183v1.535c12.59-14.674 43.804-48.93 86.89-81.55z"/><path d="M92.787 251.936c52.92-37.318 122.19-72.416 195.378-72.416h.014c23.195 0 46.79 3.52 70.396 11.612C580.026 267.02 777.66 324.7 920.136 324.705c22.485 0 43.585-1.45 63.203-4.483v-1.012c-19.602 3.04-40.7 4.495-63.2 4.495h-.005c-142.22.005-339.82-57.635-561.236-133.52-23.716-8.127-47.423-11.665-70.72-11.665-78.43.005-152.187 40.067-206.35 80.096C41.92 288.112 12.65 317.598 0 331.086v1.465c13.208-14.15 46.83-48.208 92.787-80.614z"/><path d="M394.367 48.005h.014c16.778 0 33.247 1.183 49.21 3.766 86.098 13.93 166.494 45.665 243.664 73.934 77.17 28.266 151.116 53.074 224.34 53.077h.015c23.96 0 47.843-2.67 71.73-8.737v-1.032c-23.888 6.09-47.77 8.77-71.745 8.77-72.995.003-146.843-24.75-223.997-53.015-77.154-28.262-157.61-60.028-243.848-73.98-16.023-2.594-32.545-3.78-49.37-3.78-91.374.004-191.65 34.98-269.106 69.94C63.93 144.637 16.914 172.32 0 182.645v1.17c17.714-10.833 71.34-42.48 140.455-72.5 75.098-32.62 168.49-63.31 253.912-63.31zM89.824 261.998c51.53-37.646 119.268-73.05 191.62-73.05h.013c23.324 0 47.132 3.675 71.047 12.138 223.19 78.973 423.02 134.67 566.25 134.676 23.044 0 44.607-1.46 64.585-4.48v-1.012c-19.96 3.028-41.523 4.492-64.58 4.492h-.005c-142.983.004-342.774-55.655-565.917-134.62-24.027-8.5-47.952-12.195-71.38-12.194-77.544.005-149.624 40.423-202.33 80.806C40.553 298.314 12.355 327.862 0 341.592v1.498c12.898-14.41 45.307-48.573 89.824-81.092z"/><path d="M403.65 38.637h.014c15.692 0 31.08 1.003 46 3.18 83.577 12.19 161.592 43.93 237.175 72.638 75.58 28.706 148.733 54.39 222.61 54.393h.01c24.512 0 49.102-2.833 73.878-9.32v-1.036c-24.778 6.513-49.367 9.355-73.89 9.355-73.638.003-146.687-25.622-222.254-54.327-75.568-28.7-153.65-60.476-237.385-72.693-14.974-2.185-30.41-3.19-46.146-3.19-92.315.003-194.91 34.61-274.45 69.203C65.945 134.36 17.27 161.876 0 171.984v1.16c18.09-10.61 73.58-42.045 144.777-71.86 77.075-32.28 172.562-62.647 258.873-62.647z"/><path d="M337.512 113.64h.013c21.4 0 42.705 2.4 63.553 7.812 202.44 52.53 379.742 128.443 520.67 128.455h.02c21.374 0 41.91-1.758 61.57-5.604v-1.018c-19.652 3.858-40.192 5.62-61.59 5.622h-.033c-140.58.003-317.883-75.86-520.386-128.423-20.94-5.434-42.33-7.845-63.805-7.845-84.78.004-170.858 37.55-235.76 75.075C52.017 216.48 14.715 245.242 0 257.11v1.287c15.357-12.428 58.03-45.454 114.662-76.835 63.157-35 143.652-67.923 222.85-67.923z"/><path d="M345.017 104.248h.013c20.97 0 41.79 2.235 62.12 7.25 198.748 49.02 372.472 128.04 513.765 128.053h.018c21.567 0 42.377-1.853 62.406-5.93v-1.022c-20.022 4.09-40.835 5.952-62.425 5.953h-.037c-140.93.006-314.657-78.965-513.488-128.023-20.416-5.037-41.32-7.28-62.36-7.28-85.71.006-173.662 37.188-240.206 74.35C53.56 206.23 15.01 234.852 0 246.495v1.266c15.677-12.195 59.76-45.04 118.018-76.24 64.722-34.665 146.922-67.272 227-67.272z"/><path d="M360.532 85.483h.013c19.917 0 39.603 1.892 58.75 6.106 190.692 41.948 356.818 127.442 499.28 127.46h.018c22.154 0 43.735-2.08 64.746-6.71v-1.026c-21.006 4.646-42.59 6.734-64.765 6.735h-.042c-142.068.006-308.2-85.437-499.022-127.438-19.226-4.23-38.985-6.128-58.965-6.128-87.587.004-179.413 36.454-249.363 72.887C56.78 185.71 15.62 214.04 0 225.24v1.23c16.335-11.743 63.364-44.21 124.994-75.026 67.964-33.987 153.69-65.96 235.538-65.96z"/><path d="M413.383 29.26h.013c14.447 0 28.605.825 42.343 2.602 80.984 10.47 156.557 42.223 230.52 71.38 73.965 29.154 146.324 55.717 220.907 55.72h.012c25.09 0 50.43-3.02 76.16-9.95v-1.036c-25.734 6.957-51.074 9.985-76.173 9.986-74.34.002-146.588-26.497-220.54-55.65-73.95-29.15-149.597-60.945-230.76-71.442-13.785-1.783-27.986-2.61-42.47-2.61-93.243.004-198.27 34.243-280.007 68.47C68.072 124.084 17.635 151.432 0 161.32v1.147c18.478-10.38 75.954-41.607 149.354-71.22 79.16-31.938 176.844-61.986 264.03-61.986z"/><path d="M352.682 94.863h.014c20.477 0 40.762 2.064 60.527 6.68 194.828 45.49 364.824 127.708 506.63 127.724h.017c21.83 0 42.99-1.963 63.47-6.302v-1.022c-20.474 4.354-41.637 6.322-63.488 6.323h-.04c-141.425.006-311.427-82.162-506.36-127.696-19.85-4.636-40.212-6.707-60.756-6.707-86.646.004-176.512 36.822-244.737 73.62C55.145 195.97 15.31 224.45 0 235.87v1.25c16.003-11.972 61.536-44.63 121.458-75.64 66.323-34.327 150.264-66.617 231.224-66.617z"/><path d="M322.908 132.438h.014c22.108 0 44.24 2.73 66.012 8.922 209.113 59.46 393.09 129.478 533.738 129.487h.02c21.222 0 41.46-1.597 60.647-5.068v-1.02c-19.18 3.482-39.42 5.086-60.668 5.087-140.33.01-324.314-69.965-533.465-129.448-21.87-6.22-44.095-8.962-66.285-8.962-82.936.005-165.368 38.275-227.084 76.52C49.012 236.983 14.12 265.995 0 278.313v1.33c14.734-12.903 54.692-46.267 108.158-77.985 60.122-35.67 137.294-69.22 214.75-69.22z"/><path d="M315.78 141.845h.015c22.395 0 44.88 2.893 67.067 9.47 212.08 62.862 399.143 130.115 539.874 130.124h.02c21.28 0 41.493-1.553 60.582-4.882v-1.015c-19.078 3.338-39.297 4.895-60.602 4.896-140.427.008-327.49-67.205-539.59-130.084-22.286-6.607-44.87-9.51-67.35-9.51-82.025.004-162.678 38.635-222.84 77.24-45.402 29.135-79.13 58.26-92.956 70.81v1.352c14.43-13.146 53.074-46.668 104.995-78.54 58.642-36.002 134.19-69.863 210.786-69.863zM434.554 10.455h.013c11.352 0 22.482.48 33.322 1.497 75.62 7.093 146.142 38.905 216.787 68.976 70.644 30.065 141.416 58.392 217.562 58.394 26.323 0 53.287-3.393 81.1-11.263v-1.038c-27.82 7.9-54.778 11.3-81.1 11.3-75.89.002-146.538-28.25-217.172-58.315-70.63-30.06-141.242-61.932-217.085-69.05-10.875-1.02-22.036-1.502-33.416-1.502-95.01.004-205.323 33.523-291.91 67.03C72.818 103.515 18.433 130.538 0 139.983v1.123c19.34-9.924 81.266-40.744 159.51-69.96 83.747-31.27 186.192-60.69 275.044-60.69z"/><path d="M330.147 123.036h.014c21.78 0 43.52 2.568 64.846 8.37 205.898 56.014 386.62 128.92 527.333 128.932h.02c21.256 0 41.597-1.68 60.98-5.324v-1.02c-19.374 3.657-39.718 5.343-61 5.344-140.383.01-321.12-72.855-527.072-128.897-21.42-5.827-43.25-8.404-65.107-8.404-83.854.005-168.094 37.914-231.387 75.8C50.5 226.734 14.416 255.624 0 267.716v1.307c15.043-12.662 56.343-45.86 111.378-77.415 61.622-35.333 140.45-68.572 218.77-68.572z"/><path d="M368.59 76.11h.013c19.278 0 38.296 1.716 56.766 5.525 186.347 38.406 348.467 127.24 491.727 127.26h.015c22.537 0 44.606-2.213 66.226-7.16v-1.026c-21.616 4.965-43.687 7.184-66.24 7.185h-.048c-142.85.008-304.973-88.775-491.48-127.24-18.544-3.823-37.63-5.546-56.967-5.546-88.532.003-182.37 36.086-254.097 72.152C58.47 175.44 15.936 203.615 0 214.598v1.216c16.662-11.514 65.236-43.78 128.642-74.406 69.654-33.647 157.207-65.3 239.948-65.3z"/><path d="M376.888 66.74h.013c18.554 0 36.82 1.54 54.543 4.94 90.9 17.44 175.856 49.208 256.102 76.627C767.792 175.723 843.33 198.8 915.43 198.8h.017c22.97 0 45.587-2.354 67.892-7.65v-1.028c-22.303 5.315-44.923 7.678-67.91 7.68-71.882.002-147.334-23.028-227.562-50.442-80.228-27.41-165.228-59.2-256.237-76.662-17.79-3.414-36.12-4.96-54.73-4.96-89.478.005-185.39 35.72-258.952 71.417C60.21 165.177 16.248 193.192 0 203.953v1.2c17-11.285 67.18-43.35 132.42-73.777C203.82 98.07 293.252 66.74 376.887 66.74z"/></g></svg>