<svg id="XMLID_1_" xmlns="http://www.w3.org/2000/svg" viewBox="0 0 983.3386 353.6108"><g id="waves" fill="#F2D0D3"><path d="M308.751 151.258h.015c22.645 0 45.45 3.052 68.024 10.011 214.796 66.213 404.769 130.841 545.731 130.85h.019c21.428 0 41.717-1.51 60.799-4.725v-1.016c-19.07 3.223-39.363 4.738-60.818 4.74-140.67.007-330.635-64.58-545.436-130.805-22.677-6.99-45.584-10.056-68.319-10.056-81.116.006-160.014 38.995-218.648 77.958-43.995 29.237-76.582 58.47-90.118 71.25v1.378c14.126-13.395 51.486-47.065 101.881-79.08 57.181-36.332 131.139-70.505 206.87-70.505z"/><path d="M95.782 241.876c54.324-36.99 125.14-71.78 199.171-71.78h.014c23.042 0 46.399 3.366 69.68 11.081 219.478 72.732 414.736 132.564 556.576 132.57 22.029 0 42.767-1.45 62.116-4.517v-1.012c-19.329 3.073-40.067 4.528-62.116 4.529-141.572.006-336.806-59.787-556.262-132.519-23.388-7.75-46.855-11.133-69.994-11.133-79.319.006-154.772 39.71-210.409 79.385C43.302 277.903 12.945 307.315 0 320.563v1.433c13.52-13.902 48.37-47.841 95.782-80.12zM423.647 19.87h.015c13.012 0 25.762.65 38.152 2.037 78.33 8.771 151.404 40.548 223.722 70.16 72.317 29.606 143.884 57.051 219.224 57.054h.012c25.694 0 51.827-3.205 78.567-10.595v-1.04c-26.747 7.42-52.88 10.634-78.579 10.635-75.09.003-146.539-27.374-218.845-56.98-72.305-29.602-145.46-61.43-223.99-70.228-12.43-1.392-25.218-2.043-38.263-2.043-94.146.004-201.735 33.88-285.813 67.744C70.35 113.804 18.02 140.986 0 150.652v1.135c18.892-10.15 78.502-41.17 154.242-70.583C235.617 49.602 335.61 19.87 423.647 19.87z"/><path d="M385.467 57.372h.012c17.723 0 35.146 1.362 52.037 4.353 88.542 15.68 171.253 47.424 249.978 75.263 78.726 27.837 153.468 51.774 226.099 51.776h.016c23.445 0 46.67-2.504 69.73-8.172v-1.028c-23.06 5.69-46.285 8.2-69.746 8.2-72.408.002-147.057-23.884-225.765-51.719-78.709-27.83-161.473-59.6-250.138-75.304-16.956-3.003-34.436-4.369-52.21-4.369-90.43.004-188.483 35.348-263.95 70.678C62.024 154.908 16.574 182.76 0 193.302v1.184c17.35-11.058 69.21-42.914 136.347-73.14 73.211-32.964 164.59-63.974 249.12-63.974z"/><path d="M301.814 160.674h.013c22.86 0 45.953 3.21 68.891 10.55 217.262 69.504 409.968 131.655 551.3 131.662h.016c21.674 0 42.14-1.469 61.305-4.595v-1.016c-19.153 3.134-39.62 4.61-61.321 4.61-141.053.008-333.743-62.104-550.995-131.614-23.043-7.373-46.244-10.597-69.196-10.597-80.215.005-157.381 39.353-214.507 78.672C44.702 267.683 13.24 297.01 0 310.022v1.403c13.827-13.649 49.924-47.459 98.811-79.607 55.748-36.663 128.118-71.144 203.003-71.144zM446.235 1h.012c9.424 0 18.676.322 27.72.997 72.862 5.439 140.785 37.295 209.732 67.83 68.944 30.527 138.92 59.733 215.914 59.736h.009c26.965 0 54.788-3.597 83.717-11.961v-1.04c-28.941 8.395-56.763 12-83.726 12.001-76.733.002-146.575-29.123-215.509-59.652C615.17 38.39 547.151 6.463 474.04 1.001 464.971.322 455.694 0 446.247 0c-95.81.003-209.042 33.175-298.346 66.337C75.528 93.213 18.882 120.085 0 129.311v1.114c19.822-9.698 84.295-40.33 165.253-69.357C251.564 30.12 356.626 1 446.235 1z"/><path d="M86.89 272.061c50.154-37.973 116.372-73.683 187.89-73.683h.013c23.43.001 47.43 3.83 71.64 12.662 224.704 81.983 426.563 135.876 570.658 135.88 23.701 0 45.824-1.474 66.248-4.508v-1.01c-20.406 3.039-42.529 4.518-66.243 4.518h-.005c-143.857.004-345.668-53.851-570.315-135.82-24.323-8.874-48.446-12.72-71.983-12.72-76.661.004-147.078 40.777-198.34 81.513C39.194 308.505 12.055 338.104 0 352.076v1.535c12.59-14.675 43.804-48.932 86.89-81.55z"/><path d="M92.787 251.936c52.921-37.318 122.19-72.416 195.378-72.416h.014c23.196 0 46.79 3.521 70.397 11.612C580.026 267.02 777.66 324.7 920.135 324.705c22.486 0 43.586-1.451 63.204-4.483v-1.012c-19.6 3.039-40.7 4.495-63.2 4.495h-.004c-142.22.005-339.819-57.635-561.236-133.519-23.715-8.128-47.422-11.666-70.72-11.666-78.428.005-152.186 40.067-206.35 80.096C41.922 288.112 12.652 317.598 0 331.086v1.465c13.208-14.152 46.829-48.209 92.787-80.615z"/><path d="M394.367 48.005h.014c16.777 0 33.246 1.183 49.21 3.766 86.097 13.928 166.493 45.664 243.663 73.933 77.17 28.266 151.116 53.074 224.341 53.077h.014c23.96 0 47.844-2.672 71.73-8.738v-1.032c-23.887 6.089-47.77 8.769-71.744 8.77-72.995.002-146.843-24.751-223.997-53.016-77.154-28.262-157.61-60.028-243.848-73.981-16.023-2.593-32.545-3.78-49.369-3.78-91.375.005-191.65 34.98-269.107 69.94C63.93 144.638 16.914 172.322 0 182.645v1.172c17.714-10.834 71.34-42.481 140.455-72.5 75.098-32.62 168.49-63.31 253.912-63.31zM89.824 261.998c51.531-37.646 119.268-73.05 191.62-73.05h.013c23.324 0 47.132 3.675 71.047 12.138 223.19 78.973 423.02 134.671 566.251 134.676 23.043 0 44.606-1.459 64.584-4.48v-1.012c-19.96 3.028-41.522 4.492-64.58 4.492h-.004c-142.983.004-342.774-55.655-565.917-134.619-24.027-8.502-47.952-12.196-71.381-12.195-77.543.005-149.623 40.423-202.329 80.806C40.553 298.313 12.355 327.862 0 341.592v1.498c12.898-14.41 45.307-48.573 89.824-81.092z"/><path d="M403.65 38.637h.014c15.692 0 31.081 1.003 46 3.18 83.577 12.191 161.592 43.93 237.175 72.638 75.581 28.706 148.734 54.39 222.61 54.393h.011c24.512 0 49.102-2.833 73.878-9.32v-1.036c-24.778 6.513-49.367 9.355-73.889 9.355-73.639.003-146.688-25.622-222.255-54.327-75.568-28.7-153.651-60.476-237.385-72.693-14.973-2.185-30.41-3.19-46.145-3.19-92.315.003-194.91 34.61-274.449 69.203C65.943 134.36 17.269 161.876 0 171.984v1.159c18.09-10.608 73.58-42.044 144.777-71.859C221.852 69.005 317.34 38.637 403.65 38.637z"/><path d="M337.512 113.64h.013c21.4 0 42.705 2.401 63.553 7.812 202.441 52.53 379.742 128.443 520.67 128.455h.021c21.373 0 41.908-1.758 61.57-5.604v-1.018c-19.653 3.858-40.193 5.621-61.59 5.622h-.034c-140.579.003-317.883-75.86-520.386-128.423-20.938-5.434-42.33-7.845-63.804-7.845-84.78.005-170.858 37.551-235.76 75.076C52.017 216.481 14.715 245.242 0 257.111v1.286c15.357-12.428 58.03-45.454 114.662-76.835 63.157-35 143.652-67.923 222.85-67.923z"/><path d="M345.017 104.248h.013c20.969 0 41.791 2.235 62.12 7.25 198.748 49.019 372.472 128.04 513.765 128.053h.018c21.567 0 42.377-1.854 62.406-5.932v-1.021c-20.021 4.09-40.834 5.952-62.424 5.953h-.037c-140.929.005-314.657-78.966-513.488-128.024-20.416-5.037-41.32-7.279-62.36-7.279-85.709.005-173.662 37.187-240.206 74.35C53.56 206.228 15.01 234.851 0 246.494v1.266c15.677-12.196 59.76-45.042 118.018-76.242 64.722-34.664 146.922-67.271 227-67.271z"/><path d="M360.532 85.483h.013c19.917 0 39.603 1.892 58.751 6.106 190.691 41.95 356.817 127.443 499.28 127.46h.017c22.154 0 43.735-2.08 64.746-6.71v-1.025c-21.006 4.646-42.589 6.734-64.764 6.735h-.042c-142.068.007-308.2-85.436-499.022-127.437-19.227-4.23-38.986-6.128-58.966-6.128-87.587.004-179.413 36.454-249.363 72.887C56.78 185.708 15.62 214.038 0 225.238v1.231c16.335-11.744 63.364-44.21 124.994-75.027 67.964-33.987 153.69-65.959 235.538-65.959z"/><path d="M413.383 29.26h.013c14.447 0 28.605.825 42.343 2.602 80.985 10.471 156.558 42.223 230.522 71.381 73.964 29.153 146.323 55.716 220.906 55.72h.012c25.091 0 50.432-3.022 76.16-9.952v-1.035c-25.733 6.957-51.073 9.985-76.172 9.986-74.339.002-146.588-26.497-220.539-55.65-73.95-29.149-149.598-60.945-230.76-71.442-13.786-1.783-27.987-2.61-42.472-2.61-93.242.004-198.268 34.243-280.006 68.47C68.072 124.084 17.635 151.432 0 161.32v1.147c18.478-10.38 75.954-41.607 149.354-71.219 79.16-31.939 176.844-61.988 264.03-61.988z"/><path d="M352.682 94.863h.014c20.477 0 40.762 2.064 60.527 6.68 194.828 45.49 364.824 127.708 506.629 127.724h.018c21.83 0 42.989-1.963 63.469-6.302v-1.022c-20.473 4.354-41.636 6.322-63.487 6.323h-.04c-141.425.006-311.427-82.162-506.36-127.696-19.85-4.636-40.212-6.707-60.756-6.707-86.646.004-176.512 36.822-244.737 73.62C55.146 195.971 15.311 224.451 0 235.871v1.248c16.003-11.97 61.536-44.629 121.458-75.64 66.323-34.326 150.264-66.616 231.224-66.616z"/><path d="M322.908 132.438h.014c22.108 0 44.24 2.731 66.012 8.922 209.113 59.461 393.09 129.478 533.738 129.487h.021c21.221 0 41.458-1.597 60.646-5.068v-1.019c-19.179 3.482-39.42 5.086-60.667 5.087-140.331.01-324.314-69.965-533.465-129.448-21.869-6.219-44.095-8.96-66.285-8.96-82.936.004-165.368 38.274-227.084 76.52C49.012 236.982 14.12 265.994 0 278.312v1.33c14.734-12.903 54.692-46.267 108.158-77.985 60.122-35.669 137.294-69.219 214.75-69.219z"/><path d="M315.781 141.845h.014c22.395 0 44.881 2.893 67.067 9.47 212.08 62.862 399.143 130.115 539.874 130.124h.021c21.278 0 41.492-1.552 60.581-4.881v-1.015c-19.078 3.338-39.297 4.895-60.602 4.896-140.427.01-327.49-67.204-539.59-130.083-22.286-6.607-44.87-9.51-67.351-9.51-82.024.004-162.677 38.635-222.84 77.24-45.4 29.135-79.128 58.261-92.955 70.809v1.353c14.429-13.146 53.074-46.668 104.995-78.54 58.642-36.002 134.191-69.863 210.786-69.863zM434.554 10.455h.013c11.352 0 22.482.48 33.322 1.497 75.621 7.093 146.143 38.905 216.788 68.976 70.644 30.065 141.416 58.392 217.562 58.394 26.324 0 53.288-3.393 81.1-11.263v-1.037c-27.818 7.9-54.777 11.3-81.1 11.3-75.89.002-146.537-28.249-217.17-58.315-70.632-30.06-141.243-61.932-217.086-69.05-10.875-1.02-22.036-1.502-33.416-1.502-95.009.004-205.323 33.523-291.909 67.03C72.818 103.515 18.432 130.538 0 139.983v1.123c19.339-9.924 81.266-40.744 159.511-69.959 83.746-31.27 186.191-60.692 275.043-60.692z"/><path d="M330.147 123.036h.014c21.778 0 43.518 2.568 64.845 8.37 205.898 56.014 386.62 128.921 527.333 128.932h.02c21.257 0 41.598-1.68 60.98-5.324v-1.019c-19.373 3.656-39.717 5.342-61 5.343-140.382.011-321.118-72.855-527.07-128.897-21.422-5.828-43.252-8.405-65.108-8.405-83.855.005-168.095 37.914-231.388 75.8C50.5 226.734 14.416 255.624 0 267.716v1.307c15.043-12.662 56.343-45.861 111.378-77.415 61.622-35.333 140.45-68.572 218.77-68.572z"/><path d="M368.59 76.11h.013c19.278 0 38.296 1.716 56.766 5.525 186.348 38.406 348.468 127.241 491.728 127.26h.015c22.537 0 44.606-2.213 66.226-7.161v-1.025c-21.616 4.966-43.687 7.185-66.241 7.186h-.047c-142.849.008-304.973-88.775-491.48-127.24-18.544-3.823-37.629-5.546-56.967-5.546-88.532.004-182.37 36.087-254.097 72.153C58.471 175.44 15.936 203.615 0 214.598v1.216c16.662-11.514 65.236-43.78 128.642-74.406 69.654-33.647 157.207-65.299 239.948-65.299z"/><path d="M376.888 66.74h.013c18.553 0 36.82 1.54 54.542 4.94 90.901 17.441 175.856 49.208 256.102 76.627 80.247 27.416 155.786 50.492 227.886 50.494h.016c22.969 0 45.587-2.355 67.892-7.65v-1.029c-22.302 5.315-44.922 7.678-67.908 7.679-71.883.003-147.335-23.027-227.563-50.441-80.228-27.41-165.228-59.2-256.237-76.662-17.792-3.414-36.122-4.959-54.73-4.959-89.479.004-185.39 35.718-258.953 71.416C60.21 165.177 16.25 193.192 0 203.953v1.2c17-11.285 67.18-43.349 132.42-73.777 71.4-33.305 160.833-64.637 244.468-64.637z"/></g></svg>