<?xml version="1.0" encoding="utf-8"?>
<!-- Generator: Adobe Illustrator 19.0.0, SVG Export Plug-In . SVG Version: 6.00 Build 0)  -->
<svg version="1.1" id="XMLID_1_" xmlns="http://www.w3.org/2000/svg" xmlns:xlink="http://www.w3.org/1999/xlink" x="0px" y="0px"
	 viewBox="0 0 302.8 302.8" enable-background="new 0 0 302.8 302.8" xml:space="preserve">
<g id="warning">
	<rect fill="none" width="302.8" height="302.8"/>
	<g>
		<path fill="#BE1622" d="M171.24,257.3319h-42.2743c-5.4605,0-9.8869-4.4269-9.8869-9.8869v-28.4539
			c0-5.46,4.4264-9.8869,9.8869-9.8869H171.24c5.46,0,9.8869,4.4269,9.8869,9.8869v28.4539
			C181.1269,252.905,176.7,257.3319,171.24,257.3319z M138.8526,237.5581h22.5005v-8.68h-22.5005V237.5581z"/>
	</g>
	<g>
		<path fill="#BE1622" d="M165.9557,207.3344h-26.8279c-4.5539,0-8.5188-3.1099-9.6026-7.533l-20.3242-82.9227
			c-0.7232-2.9492-0.0507-6.0668,1.8239-8.456c1.8741-2.3892,4.7421-3.7844,7.7787-3.7844h62.5985
			c2.939,0,5.7255,1.3078,7.6044,3.5681c1.8779,2.2608,2.6533,5.2399,2.1155,8.1292l-15.4464,82.9222
			C174.8037,203.9397,170.7176,207.3344,165.9557,207.3344z M146.8842,187.5606h10.8558l11.7629-63.1483h-38.0965L146.8842,187.5606
			z"/>
	</g>
	<g>
		<path fill="#BE1622" d="M283.328,281.075H19.317c-6.9044,0-13.0881-3.5686-16.5422-9.5471
			c-3.4541-5.9775-3.4575-13.1176-0.0097-19.0989L134.7708,23.4455c3.4527-5.9881,9.6402-9.563,16.5514-9.563c0.001,0,0,0,0.001,0
			c6.9112,0,13.0982,3.5748,16.55,9.563L299.879,252.429c3.4489,5.9814,3.445,13.1214-0.0096,19.0989
			C296.4156,277.5064,290.2315,281.075,283.328,281.075z M282.7478,262.3043h0.0106H282.7478z M20.4746,261.3011h261.6948
			L151.3223,34.3269L20.4746,261.3011z"/>
	</g>
</g>
</svg>
