<?xml version="1.0" encoding="UTF-8" standalone="no"?>
<svg width="101px" height="79px" viewBox="0 0 101 79" version="1.1" xmlns="http://www.w3.org/2000/svg" xmlns:xlink="http://www.w3.org/1999/xlink">
    <!-- Generator: Sketch 3.7 (28169) - http://www.bohemiancoding.com/sketch -->
    <title>camera</title>
    <desc>Created with Sketch.</desc>
    <defs></defs>
    <g id="Page-1" stroke="none" stroke-width="1" fill="none" fill-rule="evenodd">
        <g id="camera" fill="#E84914">
            <path d="M32.408,2.7299 L28.965,11.6739 L6.687,11.6739 C3.047,11.6739 0,14.7089 0,18.3329 L0,71.7609 C0,75.3869 3.047,78.4199 6.687,78.4199 L93.817,78.4199 C97.457,78.4199 100.505,75.3849 100.505,71.7609 L100.505,18.3339 C100.505,14.7089 97.458,11.6759 93.817,11.6759 L71.541,11.6759 L68.097,2.7309 C67.622,1.4699 66.277,0.5649 64.933,0.5649 L35.572,0.5649 C34.187,0.5629 32.842,1.6669 32.408,2.7299 L32.408,2.7299 Z M37.868,7.2629 L62.637,7.2629 L64.3,11.6759 L36.206,11.6759 L37.868,7.2629 L37.868,7.2629 Z M6.687,71.7619 L93.816,71.7619 L93.816,18.3339 L6.687,18.3339 L6.687,71.7619 L6.687,71.7619 Z M50.489,20.6189 C39.569,20.5009 29.518,27.7899 26.55,38.7449 C23.069,51.7859 30.824,65.2229 43.881,68.7299 C56.978,72.1969 70.472,64.4359 73.993,51.3929 C77.475,38.3899 69.719,24.9149 56.623,21.4479 C54.605,20.8949 52.509,20.6189 50.489,20.6189 L50.489,20.6189 Z M87.09,20.6189 C84.637,20.6189 82.619,22.5899 82.619,25.0709 C82.619,27.5139 84.637,29.5229 87.09,29.5229 C89.584,29.5229 91.562,27.5139 91.562,25.0709 C91.562,22.5899 89.584,20.6189 87.09,20.6189 L87.09,20.6189 Z M49.541,27.2769 C51.321,27.1979 53.102,27.3959 54.883,27.8689 C64.459,30.4299 70.077,40.1219 67.544,49.6579 C64.973,59.1919 55.199,64.8279 45.663,62.2659 C36.088,59.7049 30.469,49.9719 33.001,40.4379 C35.098,32.7159 41.942,27.5529 49.541,27.2769 L49.541,27.2769 Z" id="Fill-1"></path>
        </g>
    </g>
</svg>