<?xml version="1.0" encoding="utf-8"?>
<!-- Generator: Adobe Illustrator 19.0.0, SVG Export Plug-In . SVG Version: 6.00 Build 0)  -->
<svg version="1.1" id="Layer_1" xmlns="http://www.w3.org/2000/svg" xmlns:xlink="http://www.w3.org/1999/xlink" x="0px" y="0px"
	 viewBox="-448 129.203 302.797 302.797" style="enable-background:new -448 129.203 302.797 302.797;" xml:space="preserve">
<style type="text/css">
	.st0{fill:#BE1622;}
</style>
<g id="photo">
	<g>
		<path class="st0" d="M-160.76,196.747h-66.628l-12.751-28.955c-1.598-3.628-5.188-5.97-9.152-5.97h-90.643
			c-3.964,0-7.554,2.342-9.152,5.97l-12.751,28.955h-70.828c-8.64,0-15.669,7.029-15.669,15.669v171.296
			c0,8.64,7.029,15.669,15.669,15.669h271.905c8.641,0,15.67-7.029,15.67-15.669V212.416
			C-145.09,203.776-152.119,196.747-160.76,196.747z M-333.411,181.822h77.597l6.573,14.925h-90.742L-333.411,181.822z
			 M-165.09,379.381h-263.244V216.747h73.021h121.402h68.821V379.381z"/>
		<path class="st0" d="M-296.712,233.995c-35.328,0-64.069,28.741-64.069,64.068c0,35.328,28.741,64.069,64.069,64.069
			c35.327,0,64.068-28.741,64.068-64.069C-232.643,262.736-261.385,233.995-296.712,233.995z M-296.712,342.133
			c-24.3,0-44.069-19.77-44.069-44.069c0-24.299,19.769-44.068,44.069-44.068s44.068,19.769,44.068,44.068
			C-252.643,322.363-272.412,342.133-296.712,342.133z"/>
		<circle class="st0" cx="-196.66" cy="243.995" r="11.535"/>
	</g>
</g>
</svg>
