<?xml version="1.0" encoding="utf-8"?>
<!-- Generator: Adobe Illustrator 19.0.0, SVG Export Plug-In . SVG Version: 6.00 Build 0)  -->
<svg version="1.1" id="XMLID_1_" xmlns="http://www.w3.org/2000/svg" xmlns:xlink="http://www.w3.org/1999/xlink" x="0px" y="0px"
	 viewBox="0 0 302.8 303.4648" enable-background="new 0 0 302.8 303.4648" xml:space="preserve">
<g id="collection">
	<rect y="0.3338" fill="none" width="302.8" height="302.8"/>
	<path fill="#BE1622" d="M281.6848,67.1631c-0.1084-2.3486-1.0264-4.4854-2.4814-6.1382c-0.001-0.001-0.001-0.0015-0.002-0.0019
		c-0.002-0.0024-0.0039-0.0044-0.0059-0.0068c-0.002-0.0019-0.0039-0.0044-0.0059-0.0064c-0.001-0.001-0.001-0.0015-0.002-0.0024
		c-0.1357-0.1528-0.2754-0.3022-0.4209-0.4478L221.1506,2.9458c-1.7129-1.7217-4.0498-2.8228-6.6426-2.936
		C214.3332,0.0015,214.1623,0.002,213.9855,0H84.3962c-5.5229,0-10,4.477-10,10v16.4707H57.924c-5.5229,0-10,4.4771-10,10v16.4707
		H31.4518c-5.5229,0-10,4.4771-10,10v230.5234c0,5.5225,4.4771,10,10,10h187.3022c5.5225,0,10-4.4775,10-10v-16.4707h16.4688
		c5.5225,0,10-4.4775,10-10v-16.4707h16.4727c5.5225,0,10-4.4775,10-10V67.7109C281.6965,67.5278,281.6935,67.3452,281.6848,67.1631
		z M224.0627,34.1416l23.4902,23.4893h-23.4902V34.1416z M208.7541,283.4648H41.4518V72.9414h6.4722v194.0527
		c0,5.5225,4.4771,10,10,10h150.8301V283.4648z M235.2228,256.9941h-16.4688H67.924V62.9414V46.4707h6.4722v16.4707v177.582
		c0,5.5225,4.4771,10,10,10h134.3579h16.4688V256.9941z M261.6955,230.5235h-16.4727h-26.4688H94.3962V62.9414V36.4707V20h109.6665
		v47.6309c0,5.5229,4.4775,10,10,10h47.6328V230.5235z"/>
</g>
</svg>
