<?xml version="1.0" encoding="utf-8"?>
<!-- Generator: Adobe Illustrator 19.0.0, SVG Export Plug-In . SVG Version: 6.00 Build 0)  -->
<svg version="1.1" id="XMLID_2_" xmlns="http://www.w3.org/2000/svg" xmlns:xlink="http://www.w3.org/1999/xlink" x="0px" y="0px"
	 viewBox="0 0 303.4648 302.8" enable-background="new 0 0 303.4648 302.8" xml:space="preserve">
<g id="comment">
	<rect x="0.3338" fill="none" width="302.8" height="302.8"/>
	<g>
		<path fill="#BE1622" d="M56.8794,290.8605c-1.2886,0-2.5874-0.249-3.8247-0.7607c-3.7368-1.5479-6.1733-5.1943-6.1733-9.2393
			v-64.9141H20.9604C9.4028,215.9465,0,206.5441,0,194.9865V33.2468c0-11.5576,9.4028-20.9604,20.9604-20.9604h261.5435
			c11.5576,0,20.9609,9.4028,20.9609,20.9604v161.7397c0,11.5576-9.4033,20.96-20.9609,20.96H135.9375l-71.9849,71.9854
			C62.0396,289.8449,59.4815,290.8605,56.8794,290.8605z M20.9605,32.2863C20.4307,32.2863,20,32.717,20,33.2468v161.7397
			c0,0.5293,0.4307,0.96,0.9604,0.96h35.9209c5.5229,0,10,4.4775,10,10v50.7715l57.8428-57.8428
			c1.8755-1.875,4.419-2.9287,7.0713-2.9287h150.7085c0.5303,0,0.9609-0.4307,0.9609-0.96V33.2468
			c0-0.5298-0.4307-0.9604-0.9609-0.9604H20.9605z"/>
	</g>
</g>
</svg>
