<?xml version="1.0" encoding="utf-8"?>
<!-- Generator: Adobe Illustrator 19.0.0, SVG Export Plug-In . SVG Version: 6.00 Build 0)  -->
<svg version="1.1" id="XMLID_1_" xmlns="http://www.w3.org/2000/svg" xmlns:xlink="http://www.w3.org/1999/xlink" x="0px" y="0px"
	 viewBox="0 0 303.1339 302.8" enable-background="new 0 0 303.1339 302.8" xml:space="preserve">
<g id="view">
	<rect x="0.3339" fill="none" width="302.8" height="302.8"/>
	<path fill="#BE1622" d="M299.2003,148.2184c-11.4443-32.1348-33.4746-60.2334-62.0322-79.1196
		c-0.0013-0.001-0.0028-0.0016-0.0042-0.0024c-25.9104-17.1335-56.0889-26.1899-87.2742-26.1899
		c-31.1865,0-61.3667,9.0571-87.2773,26.1924C34.0538,87.985,12.0236,116.0837,0.5797,148.2184
		c-0.7729,2.1699-0.7729,4.5405,0,6.7095c22.4326,62.9912,82.4361,105.3125,149.3101,105.3125
		c66.875,0,126.8779-42.3213,149.3105-105.3125C299.9728,152.758,299.9728,150.3884,299.2003,148.2184z M223.6082,84.1494
		c0.0887,0.2207,0.1864,0.4391,0.2732,0.6605c0.2042,0.5214,0.3951,1.0461,0.5878,1.5704c0.2651,0.7211,0.5244,1.4436,0.7679,2.1704
		c0.1823,0.5438,0.3551,1.09,0.5253,1.637c0.2234,0.7186,0.4375,1.4396,0.6399,2.1633c0.1553,0.5549,0.3054,1.1108,0.4485,1.6687
		c0.1865,0.728,0.3594,1.459,0.5249,2.1919c0.1257,0.5571,0.251,1.1143,0.3645,1.6742c0.152,0.7489,0.2859,1.5016,0.416,2.2551
		c0.0945,0.548,0.1934,1.0952,0.2764,1.6456c0.1189,0.7889,0.2152,1.5823,0.3103,2.376c0.0623,0.52,0.1337,1.0386,0.1858,1.5605
		c0.0878,0.8805,0.1477,1.7661,0.2061,2.6519c0.0291,0.4397,0.0718,0.8772,0.0935,1.3184c0.0658,1.3286,0.103,2.6621,0.103,4.0012
		c0,43.8037-35.6377,79.4404-79.4414,79.4404s-79.4409-35.6367-79.4409-79.4404c0-1.3396,0.0372-2.6735,0.103-4.0027
		c0.0217-0.4368,0.064-0.87,0.0925-1.3055c0.0588-0.8905,0.1191-1.7806,0.2073-2.666c0.0518-0.5176,0.1226-1.0316,0.1843-1.5472
		c0.0955-0.7983,0.1924-1.5964,0.312-2.39c0.0823-0.5456,0.1804-1.0881,0.274-1.6315c0.131-0.7594,0.266-1.5181,0.4192-2.2727
		c0.1124-0.554,0.2365-1.1055,0.3608-1.6567c0.1666-0.7383,0.3407-1.4746,0.5287-2.208c0.1422-0.5549,0.2917-1.1081,0.446-1.6602
		c0.2026-0.7241,0.4167-1.4456,0.6404-2.1646c0.1709-0.5493,0.3445-1.0979,0.5276-1.644c0.2406-0.7179,0.4968-1.4316,0.7585-2.144
		c0.1973-0.5369,0.3928-1.0745,0.6021-1.6083c0.0845-0.2154,0.1794-0.4281,0.2659-0.6432
		c22.0542-13.9082,47.4744-21.2434,73.7185-21.2434C176.1334,62.9064,201.5533,70.2415,223.6082,84.1494z M149.8898,240.2404
		c-57.2412,0-108.7197-35.4805-129.2246-88.6655c6.7515-17.4771,17.1079-33.4902,30.188-46.9131
		c-0.0106,0.1177-0.0137,0.2368-0.0239,0.3547c-0.1125,1.3003-0.202,2.6045-0.2637,3.9135c-0.01,0.212-0.016,0.4248-0.0247,0.6371
		c-0.0559,1.3718-0.092,2.7469-0.092,4.1274c0,54.832,44.6089,99.4404,99.4409,99.4404s99.4414-44.6084,99.4414-99.4404
		c0-1.3805-0.0361-2.7556-0.092-4.1274c-0.0087-0.2123-0.0146-0.425-0.0247-0.6371c-0.0616-1.3098-0.1514-2.6149-0.2639-3.9161
		c-0.01-0.1169-0.0132-0.2351-0.0237-0.3521c13.0801,13.4229,23.4365,29.436,30.1875,46.9131
		C258.6095,204.7599,207.131,240.2404,149.8898,240.2404z"/>
</g>
</svg>
