<?xml version="1.0" encoding="utf-8"?>
<!-- Generator: Adobe Illustrator 19.0.0, SVG Export Plug-In . SVG Version: 6.00 Build 0)  -->
<svg version="1.1" id="XMLID_2_" xmlns="http://www.w3.org/2000/svg" xmlns:xlink="http://www.w3.org/1999/xlink" x="0px" y="0px"
	 viewBox="0 0 302.8 303.4639" enable-background="new 0 0 302.8 303.4639" xml:space="preserve">
<g id="file">
	<rect y="0.3338" fill="none" width="302.8" height="302.8"/>
	<g>
		<path fill="#BE1622" d="M266.5549,303.4639H36.2419c-5.5229,0-10-4.4775-10-10V10c0-5.523,4.4771-10,10-10h159.3726
			c0.168,0.0019,0.3467,0.0015,0.5205,0.0098c2.4941,0.1089,4.752,1.1323,6.4453,2.7422c0.001,0.0005,0.002,0.0015,0.002,0.002
			c0.0029,0.0029,0.0068,0.0064,0.0098,0.0088c0,0.001,0.001,0.001,0.001,0.002c0.0039,0.0029,0.0068,0.0059,0.0098,0.0088
			c0.001,0.001,0.002,0.002,0.0029,0.0029c0.0029,0.0024,0.0059,0.0054,0.0078,0.0078c0.002,0.001,0.0029,0.002,0.0039,0.0029
			c0.002,0.0024,0.0049,0.0054,0.0078,0.0073c0.001,0.0015,0.002,0.0024,0.0039,0.0039c0.002,0.0024,0.0049,0.0049,0.0068,0.0073
			c0.002,0.001,0.0029,0.0024,0.0039,0.0034c0.002,0.0024,0.0049,0.0049,0.0068,0.0068c0.002,0.0015,0.0029,0.0029,0.0049,0.0044
			c0.002,0.002,0.0039,0.0044,0.0068,0.0064c0.001,0.002,0.0029,0.0029,0.0039,0.0044c0.0029,0.0024,0.0049,0.0044,0.0068,0.0064
			c0.001,0.0015,0.0029,0.0029,0.0049,0.0044c0.002,0.0024,0.0039,0.0049,0.0068,0.0068c0.001,0.0015,0.0029,0.0029,0.0039,0.0039
			c0.002,0.0024,0.0049,0.0044,0.0068,0.0068c0.001,0.0015,0.0029,0.0029,0.0039,0.0044c0.002,0.002,0.0049,0.0044,0.0068,0.0068
			c0.002,0.001,0.0029,0.0024,0.0049,0.0039c0.002,0.0024,0.0039,0.0044,0.0068,0.0068c0.001,0.0015,0.002,0.0024,0.0039,0.0039
			c0.002,0.0024,0.0049,0.0049,0.0068,0.0073c0.002,0.001,0.0029,0.0024,0.0039,0.0034c0.0029,0.0029,0.0059,0.0054,0.0088,0.0083
			c0,0.001,0.001,0.002,0.002,0.0024c0.0039,0.0039,0.0068,0.0073,0.0107,0.0107c0,0,0,0,0,0.0005
			c0.0039,0.0039,0.0078,0.0073,0.0117,0.0112l0,0l70.8643,70.8662c0.1094,0.1094,0.2158,0.2212,0.3193,0.335
			c0.001,0.0005,0.001,0.0005,0.002,0.0015c0.0029,0.0029,0.0059,0.0063,0.0088,0.0098c0.002,0.002,0.0029,0.0034,0.0049,0.0054
			c0.0039,0.0044,0.0078,0.0083,0.0117,0.0127c0.002,0.0024,0.0049,0.0054,0.0068,0.0083c0.002,0.002,0.0039,0.0039,0.0059,0.0063
			c0.0049,0.0044,0.0088,0.0093,0.0127,0.0137c0.001,0.0015,0.002,0.0024,0.0029,0.0034c0.0049,0.0049,0.0088,0.0093,0.0127,0.0142
			c0.001,0.0005,0.001,0.001,0.001,0.0015c1.4844,1.6611,2.4209,3.8198,2.5293,6.1953c0.0088,0.1807,0.0117,0.3613,0.0107,0.542
			v212.5195C276.5549,298.9863,272.0773,303.4639,266.5549,303.4639z M46.2419,283.4639h210.313V90.8662h-60.8643
			c-5.5225,0-10-4.4771-10-10V20H46.2419V283.4639z M205.6906,70.8662h36.7227l-36.7227-36.7236V70.8662z"/>
	</g>
</g>
</svg>
