<?xml version="1.0" encoding="utf-8"?>
<!-- Generator: Adobe Illustrator 19.0.0, SVG Export Plug-In . SVG Version: 6.00 Build 0)  -->
<svg version="1.1" id="XMLID_2_" xmlns="http://www.w3.org/2000/svg" xmlns:xlink="http://www.w3.org/1999/xlink" x="0px" y="0px"
	 viewBox="0 0 302.8 303.8905" enable-background="new 0 0 302.8 303.8905" xml:space="preserve">
<g id="bolt">
	<rect y="0.7595" fill="none" width="302.8" height="302.8"/>
	<g>
		<g>
			<path fill="#BE1622" d="M101.4709,303.8905c-1.7358,0-3.4854-0.4512-5.0664-1.3809c-4.0698-2.3945-5.9102-7.3096-4.4136-11.7881
				l35.3198-105.6963H50.6769c-3.9639,0-7.5537-2.3418-9.1519-5.9688c-1.5977-3.6279-0.9019-7.8574,1.7739-10.7822L194.2932,3.2499
				c3.1885-3.4839,8.3779-4.2632,12.4482-1.8687s5.9111,7.3096,4.4141,11.7886l-35.3193,105.6953h76.6338
				c3.9639,0,7.5537,2.3413,9.1514,5.9692c1.5977,3.6274,0.9023,7.8569-1.7734,10.7812L108.8532,300.6405
				C106.9035,302.7714,104.2043,303.8905,101.4709,303.8905z M73.381,165.0253h67.8149c3.2158,0,6.2354,1.5469,8.1147,4.1562
				s2.3892,5.9629,1.3696,9.0127l-24.7969,74.2061l103.8823-113.5352h-67.8145c-3.2158,0-6.2354-1.5464-8.1143-4.1558
				c-1.8799-2.6094-2.3892-5.9634-1.3701-9.0137l24.7969-74.2061L73.381,165.0253z"/>
		</g>
	</g>
</g>
</svg>
