<?xml version="1.0" encoding="utf-8"?>
<!-- Generator: Adobe Illustrator 19.0.0, SVG Export Plug-In . SVG Version: 6.00 Build 0)  -->
<svg version="1.1" id="XMLID_2_" xmlns="http://www.w3.org/2000/svg" xmlns:xlink="http://www.w3.org/1999/xlink" x="0px" y="0px"
	 viewBox="0 0 303.1338 302.8" enable-background="new 0 0 303.1338 302.8" xml:space="preserve">
<g id="dossier">
	<rect x="0.3338" fill="none" width="302.8" height="302.8"/>
	<path fill="#BE1622" d="M280.7148,92.7399h-17.3755c-1.2363-11.0645-10.6364-19.6963-22.0171-19.6963H117.3906v-1.4346
		c0-12.2368-9.9526-22.1919-22.1865-22.1919H22.1865C9.9526,49.4172,0,59.3723,0,71.6091v159.5942
		c0,12.2285,9.9395,22.1768,22.1562,22.1768h133.9316h85.2344c9.1373,0,16.9991-5.5642,20.384-13.484L263,240.3127l39.874-123.8262
		v-1.5703C302.874,102.6882,292.9336,92.7399,280.7148,92.7399z M243.4814,231.2033c0,1.2207-0.9482,2.1768-2.1592,2.1768h-85.2344
		H22.1562c-1.189,0-2.1562-0.9766-2.1562-2.1768V71.6091c0-1.2085,0.981-2.1919,2.1865-2.1919h73.0176
		c1.2261,0,2.1865,0.9629,2.1865,2.1919v21.4346h143.9316c1.1904,0,2.1592,0.9761,2.1592,2.1763V231.2033z M263.4814,173.5676
		v-60.8276h17.2334c0.8613,0,1.6064,0.5107,1.9521,1.2476L263.4814,173.5676z"/>
</g>
</svg>
