<?xml version="1.0" encoding="utf-8"?>
<!-- Generator: Adobe Illustrator 19.0.0, SVG Export Plug-In . SVG Version: 6.00 Build 0)  -->
<svg version="1.1" id="XMLID_1_" xmlns="http://www.w3.org/2000/svg" xmlns:xlink="http://www.w3.org/1999/xlink" x="0px" y="0px"
	 viewBox="0 0 303.4648 303.4644" enable-background="new 0 0 303.4648 303.4644" xml:space="preserve">
<g id="fullscreen">
	<rect x="0.3338" y="0.3333" fill="none" width="302.8" height="302.8"/>
	<g>
		<path fill="#BE1622" d="M93.7134,144.1006c-2.5591,0-5.1187-0.9761-7.0713-2.9287L41.2105,95.7397l-24.1392,24.1396
			c-2.8599,2.8594-7.1602,3.7163-10.898,2.1675C2.4365,120.499,0,116.8525,0,112.8081V10c0-5.523,4.477-10,10-10h102.8081
			c4.0444,0,7.6909,2.4365,9.2388,6.1733s0.6924,8.0376-2.1675,10.898L95.7393,41.2109l45.4321,45.4316
			c3.9048,3.9053,3.9048,10.2373,0,14.1426l-40.3867,40.3867C98.832,143.1245,96.2725,144.1006,93.7134,144.1006z M41.2105,71.5977
			c2.5591,0,5.1186,0.9761,7.0713,2.9287l45.4316,45.4321l26.2446-26.2446L74.5259,48.2822c-3.9053-3.9053-3.9053-10.2373,0-14.1426
			L88.666,20H20v68.666l14.1392-14.1396C36.0918,72.5737,38.6514,71.5977,41.2105,71.5977z"/>
	</g>
	<g>
		<path fill="#BE1622" d="M112.8081,303.4644H10c-5.523,0-10-4.4775-10-10V190.6558c0-4.0449,2.4365-7.6914,6.1733-9.2393
			c3.7363-1.5449,8.0371-0.6924,10.8979,2.168l24.1392,24.1396l45.4316-45.4316c3.9053-3.9043,10.2373-3.9043,14.1426,0
			l40.3867,40.3867c3.9048,3.9053,3.9048,10.2373,0,14.1426l-45.4321,45.4316l24.1401,24.1396
			c2.8599,2.8604,3.7153,7.1611,2.1675,10.8984C120.499,301.0278,116.8525,303.4644,112.8081,303.4644z M20,283.4644h68.666
			l-14.1401-14.1396c-3.9053-3.9053-3.9053-10.2373,0-14.1426l45.4321-45.4316l-26.2446-26.2441L48.2817,228.938
			c-1.8755,1.875-4.4189,2.9287-7.0713,2.9287s-5.1958-1.0537-7.0713-2.9287L20,214.7983V283.4644z"/>
	</g>
	<g>
		<path fill="#BE1622" d="M209.751,144.1006c-2.5596,0-5.1182-0.9761-7.0713-2.9287l-40.3867-40.3867
			c-3.9053-3.9053-3.9053-10.2373,0-14.1426l45.4316-45.4316L183.585,17.0713c-2.8594-2.8603-3.7148-7.1611-2.168-10.8979
			C182.9648,2.4365,186.6113,0,190.6562,0h102.8086c5.5225,0,10,4.477,10,10v102.8081c0,4.0444-2.4365,7.6909-6.1729,9.2388
			c-3.7373,1.5469-8.0391,0.6924-10.8984-2.1675l-24.1396-24.1397l-45.4316,45.4321
			C214.8691,143.1245,212.3105,144.1006,209.751,144.1006z M183.5068,93.7139l26.2441,26.2446l45.4316-45.4321
			c3.9062-3.9043,10.2363-3.9053,14.1426,0l14.1396,14.1396V20h-68.666l14.1396,14.1397c3.9053,3.9053,3.9053,10.2373,0,14.1426
			L183.5068,93.7139z"/>
	</g>
	<g>
		<path fill="#BE1622" d="M293.4648,303.4644L293.4648,303.4644l-102.8086-0.001c-4.0449,0-7.6914-2.4365-9.2393-6.1729
			c-1.5479-3.7373-0.6914-8.0381,2.168-10.8984l24.1396-24.1387l-45.4316-45.4316c-3.9053-3.9053-3.9053-10.2373,0-14.1426
			l40.3867-40.3867c3.9062-3.9043,10.2363-3.9043,14.1426,0l45.4316,45.4316l24.1396-24.1396
			c2.8604-2.8604,7.1621-3.7129,10.8984-2.168c3.7363,1.5479,6.1729,5.1943,6.1729,9.2393v102.8086
			c0,2.6523-1.0537,5.1953-2.9287,7.0713C298.6602,302.4106,296.1172,303.4644,293.4648,303.4644z M214.7988,283.4634l68.666,0.001
			v-68.666l-14.1396,14.1396c-3.9062,3.9043-10.2363,3.9043-14.1426,0l-45.4316-45.4316l-26.2441,26.2441l45.4316,45.4316
			c1.875,1.876,2.9287,4.4189,2.9287,7.0713s-1.0537,5.1963-2.9287,7.0713L214.7988,283.4634z"/>
	</g>
</g>
</svg>
