<?xml version="1.0" encoding="utf-8"?>
<!-- Generator: Adobe Illustrator 19.0.0, SVG Export Plug-In . SVG Version: 6.00 Build 0)  -->
<svg version="1.1" id="XMLID_1_" xmlns="http://www.w3.org/2000/svg" xmlns:xlink="http://www.w3.org/1999/xlink" x="0px" y="0px"
	 viewBox="0 0 304.1201 302.8" enable-background="new 0 0 304.1201 302.8" xml:space="preserve">
<g id="like_x5F_full">
	<rect x="0.3338" fill="none" width="302.8" height="302.8"/>
	<path fill="#BE1622" d="M216.2012,11.1398c-24.4717,0-47.6367,10.208-64.1411,27.8096
		c-16.5039-17.6016-39.6699-27.8096-64.1411-27.8096C39.4404,11.1398,0,50.5798,0,99.0583c0,21.7026,7.9829,42.5498,22.4785,58.7017
		c0.022,0.0244,0.0483,0.0537,0.0757,0.083c0.5049,0.5596,1.0234,1.1074,1.5435,1.6543l120.6592,128.9912
		c1.8911,2.0215,4.5352,3.1689,7.3032,3.1689s5.4126-1.1475,7.3032-3.1689l120.2695-128.582
		c15.792-16.4585,24.4873-38.0649,24.4873-60.8481C304.1201,50.5798,264.6797,11.1398,216.2012,11.1398z"/>
</g>
</svg>
