<?xml version="1.0" encoding="utf-8"?>
<!-- Generator: Adobe Illustrator 19.0.0, SVG Export Plug-In . SVG Version: 6.00 Build 0)  -->
<svg version="1.1" id="XMLID_2_" xmlns="http://www.w3.org/2000/svg" xmlns:xlink="http://www.w3.org/1999/xlink" x="0px" y="0px"
	 viewBox="0 0 304.1201 302.8" enable-background="new 0 0 304.1201 302.8" xml:space="preserve">
<g id="like_x5F_empty">
	<rect x="0.3338" fill="none" width="302.8" height="302.8"/>
	<g>
		<path fill="#BE1622" d="M152.0601,291.6574c-2.7681,0-5.4121-1.1475-7.3032-3.1689L24.0976,159.4973
			c-0.52-0.5469-1.0386-1.0947-1.5435-1.6543c-0.0273-0.0293-0.0537-0.0586-0.0757-0.083C7.9829,141.6081,0,120.7609,0,99.0583
			c0-48.4785,39.4404-87.9185,87.919-87.9185c24.4712,0,47.6372,10.208,64.1411,27.8096
			c16.5044-17.6016,39.6694-27.8096,64.1411-27.8096c48.4785,0,87.9189,39.4399,87.9189,87.9185
			c0,22.7832-8.6953,44.3896-24.4873,60.8481l-120.2695,128.582C157.4727,290.5099,154.8281,291.6574,152.0601,291.6574z
			 M37.4219,144.4655c0.3814,0.4229,0.7744,0.8345,1.167,1.2471l0.1631,0.1714l113.3081,121.1348l113.0093-120.8213
			c0.0312-0.0327,0.0625-0.0654,0.0938-0.0981c12.2246-12.7207,18.957-29.4268,18.957-47.041
			c0-37.4502-30.4688-67.9185-67.9189-67.9185c-22.3037,0-43.2061,10.9819-55.9131,29.3765
			c-1.8672,2.7026-4.9434,4.3159-8.228,4.3159c-3.2852,0-6.3604-1.6133-8.2275-4.3159
			c-12.7075-18.3945-33.6099-29.3765-55.9136-29.3765C50.4683,31.1398,20,61.6081,20,99.0583
			c0,16.7642,6.167,32.8672,17.3643,45.3428C37.3838,144.4225,37.4028,144.444,37.4219,144.4655z"/>
	</g>
</g>
</svg>
