<?xml version="1.0" encoding="utf-8"?>
<!-- Generator: Adobe Illustrator 19.0.0, SVG Export Plug-In . SVG Version: 6.00 Build 0)  -->
<svg version="1.1" id="XMLID_1_" xmlns="http://www.w3.org/2000/svg" xmlns:xlink="http://www.w3.org/1999/xlink" x="0px" y="0px"
	 viewBox="0 0 302.8 303.4648" enable-background="new 0 0 302.8 303.4648" xml:space="preserve">
<g id="hourglass">
	<rect y="0.3338" fill="none" width="302.8" height="302.8"/>
	<path fill="#BE1622" d="M243.6965,68.6758c5.5225,0,10-4.4771,10-10V10c0-5.523-4.4775-10-10-10H59.0998c-5.5229,0-10,4.477-10,10
		v48.6758c0,5.5229,4.4771,10,10,10h17.2705l61.8618,72.234l-80.4863,93.9816c-4.8809,0.6624-8.646,4.8357-8.646,9.8977v48.6758
		c0,5.5225,4.4771,10,10,10h184.5967c5.5225,0,10-4.4775,10-10v-48.6758c0-5.0615-3.7649-9.2346-8.6448-9.8976l-80.4871-93.9816
		l61.8622-72.2341H243.6965z M69.0998,20h164.5967v28.6758H69.0998V20z M233.6965,283.4648H69.0998v-28.6758h164.5967V283.4648z
		 M218.6309,234.7891H84.1655l67.2329-78.5054L218.6309,234.7891z M151.3984,125.536l-48.6958-56.8602h97.3912L151.3984,125.536z"/>
</g>
</svg>
