<?xml version="1.0" encoding="utf-8"?>
<!-- Generator: Adobe Illustrator 19.0.0, SVG Export Plug-In . SVG Version: 6.00 Build 0)  -->
<svg version="1.1" id="XMLID_1_" xmlns="http://www.w3.org/2000/svg" xmlns:xlink="http://www.w3.org/1999/xlink" x="0px" y="0px"
	 viewBox="0 0 303.4648 303.4648" enable-background="new 0 0 303.4648 303.4648" xml:space="preserve">
<g id="info">
	<rect x="0.3338" y="0.3338" fill="none" width="302.8" height="302.8"/>
	<g>
		<path fill="#BE1622" d="M167.9435,152.9083v58.5294h25.9381v22.6958h-84.2987v-22.6958h20.5343v-39.5319h-20.5343v-18.9976
			H167.9435 M167.9435,132.9083h-58.3606c-11.0456,0-20,8.9543-20,20v18.9976c0,10.0021,7.3419,18.2892,16.9307,19.766
			c-9.5888,1.4767-16.9307,9.7638-16.9307,19.7659v22.6958c0,11.0457,8.9544,20,20,20h84.2987c11.0457,0,20-8.9543,20-20v-22.6958
			c0-11.0457-8.9543-20-20-20h-5.9381v-38.5294C187.9435,141.8627,178.9891,132.9083,167.9435,132.9083L167.9435,132.9083z"/>
	</g>
	<g>
		<path fill="#BE1622" d="M169.0243,63.6616v38.907h-42.1494v-38.907H169.0243 M169.0243,43.6616h-42.1494
			c-11.0458,0-20,8.9542-20,20v38.907c0,11.0458,8.9542,20,20,20h42.1494c11.0458,0,20-8.9542,20-20v-38.907
			C189.0243,52.6158,180.0701,43.6616,169.0243,43.6616L169.0243,43.6616z"/>
	</g>
	<g>
		<path fill="#BE1622" d="M151.7324,303.4648C68.0669,303.4648,0,235.3984,0,151.7324C0,68.0669,68.0669,0,151.7324,0
			c83.666,0,151.7324,68.0669,151.7324,151.7324C303.4648,235.3984,235.3984,303.4648,151.7324,303.4648z M151.7324,20
			C79.0947,20,20,79.0947,20,151.7324s59.0947,131.7324,131.7324,131.7324s131.7324-59.0947,131.7324-131.7324
			S224.3701,20,151.7324,20z"/>
	</g>
</g>
</svg>
