<?xml version="1.0" encoding="utf-8"?>
<!-- Generator: Adobe Illustrator 19.0.0, SVG Export Plug-In . SVG Version: 6.00 Build 0)  -->
<svg version="1.1" id="XMLID_1_" xmlns="http://www.w3.org/2000/svg" xmlns:xlink="http://www.w3.org/1999/xlink" x="0px" y="0px"
	 viewBox="0 0 302.8 303.4648" enable-background="new 0 0 302.8 303.4648" xml:space="preserve">
<g id="location">
	<rect y="0.3338" fill="none" width="302.8" height="302.8"/>
	<g>
		<path fill="#BE1622" d="M151.3986,188.3867c-38.8018,0-70.3691-31.5674-70.3691-70.3686s31.5674-70.3687,70.3691-70.3687
			c38.8008,0,70.3682,31.5674,70.3682,70.3687S190.1994,188.3867,151.3986,188.3867z M151.3986,67.6494
			c-27.7734,0-50.3691,22.5952-50.3691,50.3687s22.5957,50.3686,50.3691,50.3686s50.3682-22.5952,50.3682-50.3686
			S179.1721,67.6494,151.3986,67.6494z"/>
	</g>
	<g>
		<path fill="#BE1622" d="M151.3986,303.4648c-2.7725,0-5.4209-1.1514-7.312-3.1787c-1.1187-1.1982-27.6992-29.7783-54.7285-66.2158
			c-37.144-50.0732-55.9775-89.1191-55.9775-116.0522C33.3806,52.9429,86.3234,0,151.3986,0s118.0176,52.9429,118.0176,118.0181
			c0,26.9331-18.833,65.979-55.9775,116.0523c-27.0283,36.4375-53.6094,65.0175-54.7275,66.2158
			C156.8195,302.3135,154.1711,303.4648,151.3986,303.4648z M151.3986,20c-54.0474,0-98.0181,43.9707-98.0181,98.0181
			c0,22.2309,17.9951,58.2407,52.0405,104.1372c18.0352,24.3125,36.209,45.4072,45.9766,56.3994
			c9.7939-11.0234,28.0352-32.1973,46.0869-56.5459c33.9736-45.8262,51.9316-81.7856,51.9316-103.9907
			C249.4162,63.9707,205.4455,20,151.3986,20z"/>
	</g>
</g>
</svg>
