<?xml version="1.0" encoding="utf-8"?>
<!-- Generator: Adobe Illustrator 19.0.0, SVG Export Plug-In . SVG Version: 6.00 Build 0)  -->
<svg version="1.1" id="XMLID_1_" xmlns="http://www.w3.org/2000/svg" xmlns:xlink="http://www.w3.org/1999/xlink" x="0px" y="0px"
	 viewBox="0 0 303.25 302.8" enable-background="new 0 0 303.25 302.8" xml:space="preserve">
<g id="volume">
	<rect x="0.3338" fill="none" width="302.8" height="302.8"/>
	<g>
		<g>
			<path fill="#BE1622" d="M148.0747,246.6545c-1.647,0-3.2949-0.4062-4.7896-1.2217l-79.0112-43.1064H10c-5.523,0-10-4.4775-10-10
				v-80.8535c0-5.5229,4.477-10,10-10h54.2739l79.0112-43.1064c3.0996-1.6909,6.8584-1.6226,9.8936,0.1792
				c3.0352,1.8013,4.8955,5.0698,4.8955,8.5991v169.5098c0,3.5293-1.8604,6.7979-4.8955,8.5996
				C151.6079,246.1867,149.8418,246.6545,148.0747,246.6545z M20,182.3264h46.8242c1.6733,0,3.3203,0.4199,4.7896,1.2217
				l66.4609,36.2588V83.9919l-66.4609,36.2593c-1.4692,0.8018-3.1162,1.2217-4.7896,1.2217H20V182.3264z"/>
		</g>
		<g>
			<path fill="#BE1622" d="M260.752,267.7814c-1.9258,0-3.8711-0.5547-5.5869-1.7129c-4.5771-3.0908-5.7822-9.3066-2.6924-13.8838
				c6.5244-9.6621,12.1143-19.9639,16.6162-30.6191c4.5967-10.8652,8.1299-22.2461,10.501-33.8311
				c2.4287-11.8721,3.6602-24.0977,3.6602-36.3359c0-12.2466-1.2314-24.4741-3.6602-36.3428
				c-2.3691-11.5786-5.9014-22.9595-10.499-33.8276c-4.501-10.6548-10.0918-20.9536-16.6172-30.6147
				c-3.0908-4.5767-1.8867-10.793,2.6904-13.8843c4.5742-3.0908,10.792-1.8872,13.8838,2.6899
				c7.249,10.7329,13.4619,22.1797,18.4648,34.0215c5.1094,12.0801,9.0371,24.7339,11.6709,37.6055
				c2.6982,13.1855,4.0664,26.7617,4.0664,40.3525c0,13.582-1.3682,27.1562-4.0664,40.3457
				c-2.6367,12.8799-6.5635,25.5332-11.6729,37.6094c-5.0029,11.8418-11.2158,23.29-18.4619,34.0225
				C267.1162,266.2375,263.9629,267.7814,260.752,267.7814z"/>
		</g>
		<g>
			<path fill="#BE1622" d="M188.4697,212.4055c-1.9277,0-3.875-0.5557-5.5918-1.7168c-4.5752-3.0928-5.7773-9.3096-2.6836-13.8848
				c2.8955-4.2832,5.3857-8.8721,7.4004-13.6387c2.0488-4.8418,3.624-9.9121,4.6836-15.0723
				c1.0801-5.2832,1.6279-10.7354,1.6279-16.1958c0-5.4561-0.5488-10.9087-1.6299-16.2065
				c-1.0557-5.1406-2.6309-10.2114-4.6816-15.0605c-2.0146-4.7661-4.5049-9.355-7.4014-13.6401
				c-3.0928-4.5757-1.8906-10.792,2.6846-13.8848c4.5752-3.0933,10.793-1.8926,13.8857,2.6846
				c3.6211,5.3574,6.7344,11.0947,9.2529,17.0527c2.5615,6.0596,4.5312,12.3975,5.8535,18.8369
				c1.3516,6.6226,2.0361,13.4209,2.0361,20.2178c0,6.8022-0.6846,13.6011-2.0342,20.2085
				c-1.3262,6.46-3.2969,12.7988-5.8574,18.8496c-2.5176,5.9561-5.6309,11.6934-9.252,17.0498
				C194.8311,210.8635,191.6787,212.4055,188.4697,212.4055z"/>
		</g>
		<g>
			<path fill="#BE1622" d="M225.3105,239.1076c-1.9248,0-3.8701-0.5547-5.585-1.7119c-4.5781-3.0898-5.7852-9.3057-2.6953-13.8828
				c4.6709-6.9199,8.6768-14.2988,11.9072-21.9316c3.293-7.793,5.8213-15.9434,7.5146-24.2197
				c1.7402-8.499,2.6221-17.2559,2.6221-26.0293c0-8.7749-0.8818-17.5322-2.6221-26.0293
				c-1.6934-8.2798-4.2227-16.4307-7.5166-24.228c-3.2256-7.6216-7.2324-15.0015-11.9062-21.9292
				c-3.0889-4.5781-1.8809-10.7935,2.6973-13.8823s10.793-1.8818,13.8828,2.6968c5.3926,7.9937,10.0176,16.5146,13.7461,25.3257
				c3.8105,9.0161,6.7334,18.4375,8.6904,28.0073c2.0098,9.812,3.0283,19.9194,3.0283,30.0391
				c0,10.1182-1.0186,20.2246-3.0283,30.0391c-1.957,9.5664-4.8799,18.9873-8.6885,28c-3.7344,8.8232-8.3594,17.3428-13.749,25.3291
				C231.6768,237.5637,228.5225,239.1076,225.3105,239.1076z"/>
		</g>
	</g>
</g>
</svg>
