<?xml version="1.0" encoding="UTF-8" standalone="no"?>
<svg width="51px" height="91px" viewBox="0 0 51 91" version="1.1" xmlns="http://www.w3.org/2000/svg" xmlns:xlink="http://www.w3.org/1999/xlink">
    <!-- Generator: Sketch 3.7 (28169) - http://www.bohemiancoding.com/sketch -->
    <title>microphone</title>
    <desc>Created with Sketch.</desc>
    <defs></defs>
    <g id="Page-1" stroke="none" stroke-width="1" fill="none" fill-rule="evenodd">
        <g id="microphone" fill="#E84914">
            <path d="M25.7386,0.1206 C17.4776,0.1206 10.7706,7.0156 10.7706,15.4476 L10.7706,45.3136 C10.7706,53.7086 17.4776,60.6046 25.7386,60.6046 C33.9636,60.6046 40.6706,53.7096 40.6706,45.3136 L40.6706,15.4476 C40.6686,7.0156 33.9626,0.1206 25.7386,0.1206 M25.7386,6.1576 C30.7156,6.1576 34.7046,10.2316 34.7046,15.4476 L34.7046,45.3136 C34.7046,50.4936 30.7156,54.5656 25.7386,54.5656 C20.7256,54.5656 16.7716,50.4916 16.7716,45.3136 L16.7716,15.4476 C16.7716,10.2316 20.7256,6.1576 25.7386,6.1576 M3.7816,20.2696 C2.1936,20.2696 0.8166,21.7336 0.8166,23.3066 L0.8166,45.4926 C0.8166,58.3896 10.3826,68.9986 22.7376,70.4986 L22.7376,74.7156 L13.5946,74.7156 C6.5706,74.7156 0.8516,80.5396 0.8166,87.6476 C0.8166,88.5046 1.2056,89.2566 1.5926,89.7916 C2.0876,90.4706 2.9696,90.8636 3.8166,90.8636 L47.6226,90.8636 C48.5396,90.8636 49.4226,90.4346 49.9516,89.7206 C50.4466,89.0046 50.6226,88.3976 50.6226,87.6476 C50.6226,80.5396 44.8676,74.7156 37.8786,74.7156 L28.7006,74.7156 L28.7006,70.4986 C41.0576,68.9986 50.6236,58.3896 50.6236,45.4926 L50.6236,23.3066 C50.6586,21.6996 49.2126,20.2336 47.6226,20.2336 C46.0686,20.2336 44.6216,21.6976 44.6586,23.3066 L44.6586,45.4926 C44.6586,56.1746 36.2566,64.6406 25.7376,64.6406 C15.1816,64.6406 6.7806,56.1746 6.7806,45.4926 L6.7806,23.3066 C6.8176,21.6996 5.3696,20.2336 3.7816,20.2696 M13.5946,80.7886 L37.8806,80.7886 C40.6706,80.7886 42.9996,82.4316 44.0586,84.8256 L7.4166,84.8256 C8.4766,82.4316 10.7706,80.7886 13.5946,80.7886" id="Fill-5"></path>
        </g>
    </g>
</svg>