<?xml version="1.0" encoding="UTF-8" standalone="no"?>
<svg width="67px" height="93px" viewBox="0 0 67 93" version="1.1" xmlns="http://www.w3.org/2000/svg" xmlns:xlink="http://www.w3.org/1999/xlink">
    <!-- Generator: Sketch 3.7 (28169) - http://www.bohemiancoding.com/sketch -->
    <title>newspaper</title>
    <desc>Created with Sketch.</desc>
    <defs></defs>
    <g id="Page-1" stroke="none" stroke-width="1" fill="none" fill-rule="evenodd">
        <g id="newspaper" fill="#E84914">
            <path d="M64.1714,12.693 L60.3314,12.693 L60.3314,2.743 C60.3314,1.905 59.9484,1.113 59.2904,0.593 C58.6344,0.072 57.7734,-0.119 56.9594,0.073 L3.0824,12.766 C2.9974,12.786 2.9204,12.82 2.8394,12.848 C2.7654,12.873 2.6894,12.891 2.6194,12.922 C2.5064,12.971 2.4034,13.033 2.3004,13.095 C2.2574,13.121 2.2114,13.14 2.1704,13.168 C2.0284,13.264 1.8964,13.373 1.7754,13.493 C1.7524,13.516 1.7344,13.545 1.7114,13.569 C1.6194,13.668 1.5304,13.771 1.4534,13.882 C1.4164,13.935 1.3894,13.994 1.3564,14.05 C1.3034,14.141 1.2484,14.231 1.2064,14.327 C1.1774,14.392 1.1584,14.46 1.1344,14.527 C1.1004,14.623 1.0674,14.719 1.0434,14.82 C1.0274,14.889 1.0194,14.96 1.0094,15.031 C0.9934,15.136 0.9804,15.24 0.9774,15.347 C0.9764,15.377 0.9684,15.406 0.9684,15.436 L0.9684,90.241 C0.9684,91.756 2.1964,92.984 3.7114,92.984 L64.1714,92.984 C65.6864,92.984 66.9144,91.756 66.9144,90.241 L66.9144,15.436 C66.9144,13.921 65.6864,12.693 64.1714,12.693 L64.1714,12.693 Z M54.8454,6.208 L54.8454,12.693 L27.3164,12.693 L54.8454,6.208 Z M61.4284,87.498 L6.4544,87.498 L6.4544,18.179 L57.5884,18.179 L61.4284,18.179 L61.4284,87.498 Z" id="Fill-11"></path>
            <path d="M11.714,82.921 L29.675,82.921 L29.675,62.216 L11.714,62.216 L11.714,82.921 Z M15.255,79.38 L26.134,79.38 L26.134,65.757 L15.255,65.757 L15.255,79.38 Z" id="Fill-14"></path>
            <path d="M11.899,40.802 L55.984,40.802 L55.984,23.162 L11.899,23.162 L11.899,40.802 Z M15.623,37.077 L52.259,37.077 L52.259,26.886 L15.623,26.886 L15.623,37.077 Z" id="Fill-16"></path>
            <path d="M54.1213,45.0168 L14.1423,45.0168 C13.1143,45.0168 12.2803,45.8508 12.2803,46.8788 C12.2803,47.9078 13.1143,48.7408 14.1423,48.7408 L54.1213,48.7408 C55.1503,48.7408 55.9833,47.9078 55.9833,46.8788 C55.9833,45.8508 55.1503,45.0168 54.1213,45.0168" id="Fill-17"></path>
            <path d="M54.1213,53.5849 L14.1423,53.5849 C13.1143,53.5849 12.2803,54.4189 12.2803,55.4469 C12.2803,56.4759 13.1143,57.3089 14.1423,57.3089 L54.1213,57.3089 C55.1503,57.3089 55.9833,56.4759 55.9833,55.4469 C55.9833,54.4189 55.1503,53.5849 54.1213,53.5849" id="Fill-18"></path>
            <path d="M54.1213,62.1532 L35.9743,62.1532 C34.9453,62.1532 34.1113,62.9872 34.1113,64.0152 C34.1113,65.0442 34.9453,65.8772 35.9743,65.8772 L54.1213,65.8772 C55.1503,65.8772 55.9833,65.0442 55.9833,64.0152 C55.9833,62.9872 55.1503,62.1532 54.1213,62.1532" id="Fill-19"></path>
            <path d="M54.1213,70.7211 L35.9743,70.7211 C34.9453,70.7211 34.1113,71.5551 34.1113,72.5831 C34.1113,73.6121 34.9453,74.4451 35.9743,74.4451 L54.1213,74.4451 C55.1503,74.4451 55.9833,73.6121 55.9833,72.5831 C55.9833,71.5551 55.1503,70.7211 54.1213,70.7211" id="Fill-20"></path>
            <path d="M54.1213,79.2892 L35.9743,79.2892 C34.9453,79.2892 34.1113,80.1232 34.1113,81.1512 C34.1113,82.1802 34.9453,83.0132 35.9743,83.0132 L54.1213,83.0132 C55.1503,83.0132 55.9833,82.1802 55.9833,81.1512 C55.9833,80.1232 55.1503,79.2892 54.1213,79.2892" id="Fill-21"></path>
        </g>
    </g>
</svg>