<?xml version="1.0" encoding="utf-8"?>
<!-- Generator: Adobe Illustrator 19.0.0, SVG Export Plug-In . SVG Version: 6.00 Build 0)  -->
<svg version="1.1" id="XMLID_1_" xmlns="http://www.w3.org/2000/svg" xmlns:xlink="http://www.w3.org/1999/xlink" x="0px" y="0px"
	 viewBox="0 0 303.501 302.8" enable-background="new 0 0 303.501 302.8" xml:space="preserve">
<g id="press">
	<rect x="0.701" fill="none" width="302.8" height="302.8"/>
	<g>
		<g>
			<path fill="#BE1622" d="M137.8452,161.1525H10.3672c-5.523,0-10-4.4775-10-10V44.1984c0-5.5229,4.477-10,10-10h127.478
				c5.5229,0,10,4.4771,10,10v106.9541C147.8452,156.675,143.3682,161.1525,137.8452,161.1525z M20.3672,141.1525h107.478V54.1984
				H20.3672V141.1525z"/>
		</g>
		<g>
			<path fill="#BE1622" d="M293.4648,107.5388H180.9072c-5.5225,0-10-4.4771-10-10s4.4775-10,10-10h112.5576
				c5.5225,0,10,4.4771,10,10S298.9873,107.5388,293.4648,107.5388z"/>
		</g>
		<g>
			<path fill="#BE1622" d="M293.4648,53.9255H180.9072c-5.5225,0-10-4.4771-10-10s4.4775-10,10-10h112.5576
				c5.5225,0,10,4.4771,10,10S298.9873,53.9255,293.4648,53.9255z"/>
		</g>
		<g>
			<path fill="#BE1622" d="M293.4648,268.382H10c-5.523,0-10-4.4775-10-10s4.477-10,10-10h283.4648c5.5225,0,10,4.4775,10,10
				S298.9873,268.382,293.4648,268.382z"/>
		</g>
		<g>
			<path fill="#BE1622" d="M293.4648,214.7687H10c-5.523,0-10-4.4775-10-10s4.477-10,10-10h283.4648c5.5225,0,10,4.4775,10,10
				S298.9873,214.7687,293.4648,214.7687z"/>
		</g>
		<g>
			<path fill="#BE1622" d="M293.4648,161.1525H180.9072c-5.5225,0-10-4.4775-10-10c0-5.5229,4.4775-10,10-10h112.5576
				c5.5225,0,10,4.4771,10,10C303.4648,156.675,298.9873,161.1525,293.4648,161.1525z"/>
		</g>
	</g>
</g>
</svg>
