<?xml version="1.0" encoding="utf-8"?>
<!-- Generator: Adobe Illustrator 19.0.0, SVG Export Plug-In . SVG Version: 6.00 Build 0)  -->
<svg version="1.1" id="XMLID_2_" xmlns="http://www.w3.org/2000/svg" xmlns:xlink="http://www.w3.org/1999/xlink" x="0px" y="0px"
	 viewBox="0 0 303.338 302.8" enable-background="new 0 0 303.338 302.8" xml:space="preserve">
<g id="check">
	<rect x="0.3339" fill="none" width="302.8" height="302.8"/>
	<g>
		<path fill="#BE1622" d="M105.775,277.6623c-2.6523,0-5.1958-1.0537-7.0713-2.9287L2.9288,178.9592
			c-3.9048-3.9053-3.9053-10.2373,0-14.1426l44.9644-44.9644c1.8755-1.8755,4.4189-2.9292,7.0713-2.9292
			s5.1958,1.0537,7.0713,2.9287l43.7393,43.7393L241.3018,28.0637c1.876-1.8755,4.4189-2.9292,7.0713-2.9292
			s5.1953,1.0537,7.0713,2.9287l44.9648,44.9648c1.875,1.8755,2.9287,4.419,2.9287,7.0713s-1.0537,5.1958-2.9287,7.0713
			l-187.563,187.563C110.9708,276.6086,108.4273,277.6623,105.775,277.6623z M24.1422,171.8879l81.6328,81.6318L279.1954,80.0993
			l-30.8223-30.8228L112.8463,184.8049c-1.8755,1.875-4.419,2.9287-7.0713,2.9287s-5.1958-1.0537-7.0713-2.9287l-43.7393-43.7397
			L24.1422,171.8879z"/>
	</g>
</g>
</svg>
