<?xml version="1.0" encoding="UTF-8" standalone="no"?>
<svg width="90px" height="89px" viewBox="0 0 90 89" version="1.1" xmlns="http://www.w3.org/2000/svg" xmlns:xlink="http://www.w3.org/1999/xlink">
    <!-- Generator: Sketch 3.7 (28169) - http://www.bohemiancoding.com/sketch -->
    <title>pen</title>
    <desc>Created with Sketch.</desc>
    <defs></defs>
    <g id="Page-1" stroke="none" stroke-width="1" fill="none" fill-rule="evenodd">
        <g id="pen" transform="translate(0.000000, -1.000000)" fill="#E84914">
            <path d="M88.7531,15.2718 L75.4871,1.9948 C74.1361,0.6438 71.9661,0.6438 70.6151,1.9948 L63.0291,9.5798 L60.0511,12.5588 L57.5191,15.0908 L54.5401,18.0698 L5.2631,67.3568 L0.9231,89.9208 L23.4871,85.5908 L72.7851,36.3038 L75.7641,33.3248 L78.2951,30.7928 L81.2741,27.8148 L88.8591,20.2288 C90.0191,18.8778 90.1151,16.6228 88.7531,15.2718 L88.7531,15.2718 Z M6.6141,82.2508 L8.5081,72.5908 L18.1681,82.2508 L8.5081,84.1448 L6.6141,82.2508 Z M10.0401,68.3468 L57.3381,21.0488 L62.0291,25.7398 L14.7321,73.0378 L10.0401,68.3468 Z M22.3171,80.6228 L17.6251,75.9318 L64.9231,28.6338 L69.6151,33.3248 L22.3171,80.6228 Z M72.6041,30.3458 L60.3271,18.0698 L62.8591,15.5378 L75.1251,27.8148 L72.6041,30.3458 Z M65.8271,12.5588 L72.9551,5.4308 L85.2321,17.7078 L78.1041,24.8358 L65.8271,12.5588 Z" id="Fill-7"></path>
        </g>
    </g>
</svg>