<?xml version="1.0" encoding="utf-8"?>
<!-- Generator: Adobe Illustrator 19.0.0, SVG Export Plug-In . SVG Version: 6.00 Build 0)  -->
<svg version="1.1" id="XMLID_2_" xmlns="http://www.w3.org/2000/svg" xmlns:xlink="http://www.w3.org/1999/xlink" x="0px" y="0px"
	 viewBox="0 0 302.8 303.3137" enable-background="new 0 0 302.8 303.3137" xml:space="preserve">
<g id="pen">
	<rect fill="none" width="302.8" height="302.8"/>
	<path fill="#BE1622" d="M296.5764,43.6193L262.634,9.6784c-7.8799-7.8784-20.6982-7.8765-28.5762,0.0005L36.3771,207.3596
		c-0.5005,0.5005-0.9346,1.0417-1.3066,1.6117c-0.0075,0.0114-0.0134,0.0238-0.0207,0.0352c-0.1792,0.277-0.3435,0.5604-0.4925,0.85
		c-0.0226,0.0441-0.0406,0.0905-0.0626,0.1349c-0.1282,0.2585-0.2479,0.5199-0.3523,0.7865
		c-0.0061,0.0156-0.0144,0.03-0.0205,0.0457L3.6144,289.7062c-1.4282,3.6924-0.5435,7.8789,2.2559,10.6787
		c1.9106,1.9102,4.4673,2.9287,7.0728,2.9287c1.2114,0,2.4336-0.2197,3.605-0.6729l78.8828-30.5078
		c0.0169-0.0065,0.0325-0.0154,0.0491-0.022c0.2617-0.1027,0.5183-0.2207,0.7722-0.3462c0.0486-0.0239,0.0992-0.0435,0.1473-0.0684
		c0.2919-0.1501,0.5778-0.3157,0.8568-0.4966c0.0085-0.0056,0.0178-0.0101,0.0264-0.0157c0.5703-0.3722,1.1118-0.8065,1.6125-1.307
		c0.0017-0.0017,0.0029-0.0034,0.0046-0.0051L262.228,106.5432c0.0044-0.0044,0.009-0.0078,0.0134-0.0122
		s0.0078-0.0092,0.0122-0.0134l34.3208-34.321C304.4533,64.319,304.4543,51.4997,296.5764,43.6193z M91.8242,248.664
		l-34.2336-34.2332L206.7944,65.2275L241.0273,99.46L91.8242,248.664z M47.2361,232.3605l26.6583,26.658l-43.47,16.8118
		L47.2361,232.3605z M282.4328,58.0544l-27.2629,27.2631L220.937,51.0849l27.2634-27.2634c0.0801-0.0811,0.2119-0.0815,0.292-0.0005
		l33.9404,33.9399C282.5139,57.8415,282.5139,57.9728,282.4328,58.0544z"/>
</g>
</svg>
