<?xml version="1.0" encoding="utf-8"?>
<!-- Generator: Adobe Illustrator 19.0.0, SVG Export Plug-In . SVG Version: 6.00 Build 0)  -->
<svg version="1.1" id="XMLID_2_" xmlns="http://www.w3.org/2000/svg" xmlns:xlink="http://www.w3.org/1999/xlink" x="0px" y="0px"
	 viewBox="0 0 303.2441 302.8" enable-background="new 0 0 303.2441 302.8" xml:space="preserve">
<g id="photo">
	<rect x="0.3338" fill="none" width="302.8" height="302.8"/>
	<g>
		<path fill="#BE1622" d="M287.5742,67.5436h-66.6279l-12.751-28.9551c-1.5977-3.6279-5.1885-5.9697-9.1523-5.9697h-90.6431
			c-3.9644,0-7.5542,2.3418-9.1519,5.9697L86.4974,67.5436h-70.828C7.0293,67.5436,0,74.5729,0,83.2131V254.509
			c0,8.6396,7.0293,15.6689,15.6694,15.6689h271.9048c8.6406,0,15.6699-7.0293,15.6699-15.6689V83.2131
			C303.2441,74.5729,296.2148,67.5436,287.5742,67.5436z M114.9228,52.6188h77.5967l6.5732,14.9248h-90.7422L114.9228,52.6188z
			 M283.2441,250.1779H20V87.5436h73.0205h121.4023h68.8213V250.1779z"/>
		<path fill="#BE1622" d="M151.6221,104.7922c-35.3276,0-64.0688,28.7407-64.0688,64.0684
			c0,35.3281,28.7412,64.0693,64.0688,64.0693c35.3271,0,64.0684-28.7412,64.0684-64.0693
			C215.6904,133.5329,186.9492,104.7922,151.6221,104.7922z M151.6221,212.9299c-24.2998,0-44.0688-19.7695-44.0688-44.0693
			c0-24.2993,19.769-44.0684,44.0688-44.0684s44.0684,19.769,44.0684,44.0684
			C195.6904,193.1603,175.9219,212.9299,151.6221,212.9299z"/>
		<circle fill="#BE1622" cx="251.6739" cy="114.7922" r="11.5348"/>
	</g>
</g>
</svg>
