<?xml version="1.0" encoding="utf-8"?>
<!-- Generator: Adobe Illustrator 19.0.0, SVG Export Plug-In . SVG Version: 6.00 Build 0)  -->
<svg version="1.1" id="XMLID_2_" xmlns="http://www.w3.org/2000/svg" xmlns:xlink="http://www.w3.org/1999/xlink" x="0px" y="0px"
	 viewBox="0 0 303.4648 303.4648" enable-background="new 0 0 303.4648 303.4648" xml:space="preserve">
<g id="plus">
	<rect x="0.3338" y="0.3338" fill="none" width="302.8" height="302.8"/>
	<g>
		<path fill="#BE1622" d="M199.7656,303.4648h-96.0669c-5.5229,0-10-4.4775-10-10v-83.6992H10c-5.523,0-10-4.4775-10-10v-96.0669
			c0-5.5229,4.477-10,10-10h83.6987V10c0-5.523,4.4771-10,10-10h96.0669c5.5225,0,10,4.477,10,10v83.6987h83.6992
			c5.5225,0,10,4.4771,10,10v96.0669c0,5.5225-4.4775,10-10,10h-83.6992v83.6992
			C209.7656,298.9873,205.2881,303.4648,199.7656,303.4648z M113.6987,283.4648h76.0669v-83.6992c0-5.5225,4.4775-10,10-10h83.6992
			v-76.0669h-83.6992c-5.5225,0-10-4.4771-10-10V20h-76.0669v83.6987c0,5.5229-4.4771,10-10,10H20v76.0669h83.6987
			c5.5229,0,10,4.4775,10,10V283.4648z"/>
	</g>
</g>
</svg>
