<?xml version="1.0" encoding="utf-8"?>
<!-- Generator: Adobe Illustrator 19.0.0, SVG Export Plug-In . SVG Version: 6.00 Build 0)  -->
<svg version="1.1" id="XMLID_1_" xmlns="http://www.w3.org/2000/svg" xmlns:xlink="http://www.w3.org/1999/xlink" x="0px" y="0px"
	 viewBox="0 0 303.1338 303.4648" enable-background="new 0 0 303.1338 303.4648" xml:space="preserve">
<g id="search">
	<rect x="0.3338" y="0.3338" fill="none" width="302.8" height="302.8"/>
	<path fill="#BE1622" d="M294.4141,286.3936l-76.8027-76.8027c-0.8063-0.8059-1.7192-1.4357-2.6893-1.9089
		c20.3346-22.0735,32.7743-51.5262,32.7743-83.8337C247.6963,55.5581,192.1387,0,123.8482,0C55.5581,0,0,55.5581,0,123.8481
		c0,68.2905,55.5581,123.8482,123.8481,123.8482c29.2756,0,56.2056-10.217,77.4274-27.2635
		c0.4882,1.2009,1.219,2.3264,2.1932,3.3007l76.8027,76.8027c1.9531,1.9521,4.5117,2.9287,7.0713,2.9287
		s5.1182-0.9766,7.0713-2.9287C298.3193,296.6309,298.3193,290.2988,294.4141,286.3936z M123.8481,227.6963
		C66.5859,227.6963,20,181.1104,20,123.8481S66.5859,20,123.8481,20s103.8481,46.5859,103.8481,103.8481
		S181.1104,227.6963,123.8481,227.6963z"/>
</g>
</svg>
