<?xml version="1.0" encoding="utf-8"?>
<!-- Generator: Adobe Illustrator 19.0.0, SVG Export Plug-In . SVG Version: 6.00 Build 0)  -->
<svg version="1.1" id="XMLID_2_" xmlns="http://www.w3.org/2000/svg" xmlns:xlink="http://www.w3.org/1999/xlink" x="0px" y="0px"
	 viewBox="0 0 302.8 302.8" enable-background="new 0 0 302.8 302.8" xml:space="preserve">
<g id="send">
	<rect fill="none" width="302.8" height="302.8"/>
	<path fill="#BE1622" d="M295.3943,24.6755c-0.0027-0.1338-0.0089-0.2672-0.017-0.4009c-0.0054-0.0886-0.0066-0.178-0.0142-0.266
		c-0.0061-0.0691-0.0175-0.1373-0.0249-0.2062c-0.0137-0.1266-0.0295-0.2527-0.0481-0.3788
		c-0.0134-0.0924-0.0254-0.1849-0.0415-0.2765c-0.0127-0.0718-0.0291-0.1425-0.0432-0.2139
		c-0.0232-0.1172-0.0474-0.2339-0.0747-0.3503c-0.0217-0.092-0.0442-0.1836-0.0684-0.2749
		c-0.0214-0.0801-0.0453-0.1594-0.0686-0.2391c-0.0303-0.1035-0.0601-0.2069-0.0938-0.3097
		c-0.0291-0.0884-0.0608-0.1753-0.0923-0.2626c-0.0341-0.0949-0.0698-0.1888-0.1069-0.2827
		c-0.0334-0.0851-0.0647-0.1705-0.1006-0.2548c-0.035-0.0821-0.0748-0.1616-0.1121-0.2425
		c-0.0526-0.1151-0.1069-0.2291-0.1641-0.3424c-0.031-0.0615-0.0576-0.1245-0.0901-0.1856c-0.04-0.0752-0.0868-0.1465-0.1288-0.2207
		c-0.0687-0.1218-0.1376-0.2432-0.2115-0.3623c-0.0292-0.0469-0.0565-0.0949-0.0864-0.1414
		c-0.0498-0.0772-0.106-0.1514-0.1582-0.2275c-0.0778-0.1138-0.1536-0.2284-0.2363-0.3392
		c-0.0375-0.0502-0.0768-0.0987-0.1151-0.1481c-0.0219-0.0282-0.0399-0.0581-0.0621-0.0862
		c-0.0468-0.0588-0.0991-0.1108-0.147-0.1685c-0.0718-0.0864-0.1387-0.176-0.2139-0.2603c-0.0453-0.051-0.0953-0.0977-0.1416-0.1477
		c-0.084-0.0907-0.1694-0.1786-0.2561-0.2655c-0.0642-0.0644-0.1257-0.1315-0.1918-0.1942c-0.0551-0.052-0.1146-0.1006-0.171-0.1516
		c-0.093-0.0847-0.1865-0.1683-0.2823-0.2489c-0.0736-0.0619-0.1476-0.1229-0.223-0.1827c-0.0265-0.021-0.0497-0.0444-0.0764-0.0652
		c-0.0388-0.0301-0.0803-0.0547-0.1196-0.0841c-0.087-0.0655-0.1733-0.132-0.2622-0.1945
		c-0.0862-0.0606-0.1753-0.1172-0.2634-0.1751c-0.0801-0.0527-0.1602-0.105-0.2412-0.155c-0.0715-0.0439-0.1417-0.09-0.2141-0.1321
		c-0.0947-0.0552-0.1937-0.1041-0.2905-0.1562c-0.1022-0.055-0.2037-0.1108-0.3071-0.162c-0.052-0.0258-0.1027-0.0546-0.155-0.0792
		c-0.1001-0.0474-0.2048-0.0864-0.3069-0.1306c-0.1245-0.054-0.2485-0.1093-0.3745-0.1578
		c-0.0193-0.0075-0.0376-0.0167-0.0569-0.024c-0.1196-0.0452-0.2419-0.0812-0.363-0.1217c-0.136-0.0455-0.271-0.0941-0.4082-0.1337
		c-0.0178-0.0051-0.0344-0.0121-0.0522-0.0171c-0.0094-0.0027-0.0189-0.0042-0.0283-0.0067
		c-0.116-0.0323-0.2341-0.0554-0.3511-0.0835c-0.0084-0.0021-0.0168-0.004-0.0254-0.006c-0.1267-0.03-0.2523-0.0654-0.3799-0.0903
		c-0.0281-0.0056-0.0564-0.0098-0.0845-0.0151c-0.114-0.0214-0.229-0.0347-0.3435-0.0521c-0.1387-0.0211-0.2773-0.0475-0.416-0.0627
		c-0.0178-0.002-0.0359-0.0018-0.0537-0.0038c-0.0117-0.0012-0.0234-0.0012-0.0352-0.0024
		c-0.1176-0.0117-0.2356-0.0166-0.3538-0.0243c-0.1406-0.0092-0.2815-0.0214-0.4218-0.0244c-0.0333-0.0007-0.0664,0-0.0997-0.0004
		c-0.1162-0.0015-0.2324,0.0034-0.3489,0.0061c-0.1361,0.003-0.2722,0.0049-0.4078,0.0137
		c-0.0421,0.0027-0.0844,0.005-0.1265,0.0082c-0.1105,0.0084-0.2206,0.0226-0.3309,0.0347c-0.129,0.0143-0.2577,0.029-0.3857,0.0482
		c-0.0563,0.0084-0.1127,0.0149-0.1687,0.0243c-0.0985,0.0165-0.1963,0.0377-0.2946,0.057
		c-0.1218,0.0242-0.2427,0.0508-0.3634,0.0795c-0.0753,0.0178-0.1512,0.0328-0.2263,0.0524
		c-0.079,0.0208-0.1573,0.0447-0.2361,0.0674c-0.1163,0.0336-0.2311,0.0713-0.3459,0.1091c-0.0979,0.032-0.1963,0.061-0.2933,0.0962
		c-0.0548,0.0198-0.1093,0.041-0.1638,0.0619c-0.1133,0.0433-0.224,0.0927-0.3356,0.1401c-0.1194,0.0507-0.2393,0.099-0.3569,0.1544
		c-0.0292,0.0138-0.0586,0.0261-0.0879,0.0403c-0.1182,0.0571-0.2322,0.1227-0.3481,0.1843
		c-0.1138,0.0608-0.229,0.1177-0.3411,0.1829c-0.0264,0.0154-0.0525,0.0312-0.0786,0.0469
		c-0.0093,0.0054-0.019,0.0095-0.0283,0.0151L9.6764,178.7297c-3.7383,2.2441-5.5918,6.6523-4.5801,10.8936
		c1.0112,4.2412,4.6538,7.3389,9.0029,7.6543l96.4883,7.0061v82.3621c0,4.4111,2.8901,8.3008,7.1133,9.5742
		c0.9546,0.2881,1.9258,0.4268,2.8862,0.4268c3.2886,0,6.4468-1.6289,8.334-4.4736l52.0283-78.4426l99.3447,59.0374
		c1.5732,0.9346,3.3398,1.4033,5.1084,1.4033c1.7051,0,3.4111-0.4355,4.9453-1.3086c3.125-1.7773,5.0547-5.0967,5.0547-8.6914
		V24.8839C295.4025,24.8141,295.3958,24.7451,295.3943,24.6755z M225.1102,72.7363L116.6542,184.6721l-69.5974-5.0537
		L225.1102,72.7363z M130.5876,199.0338l66.3956-68.5262l32.4923-33.5349l-6.4238,10.4783l-53.6082,87.4419l-38.856,58.584V199.0338
		z M275.4025,246.5959l-83.7019-49.7411l67.7047-110.4367l15.9972-26.0938V246.5959z"/>
</g>
</svg>
