<?xml version="1.0" encoding="utf-8"?>
<!-- Generator: Adobe Illustrator 19.0.0, SVG Export Plug-In . SVG Version: 6.00 Build 0)  -->
<svg version="1.1" id="XMLID_1_" xmlns="http://www.w3.org/2000/svg" xmlns:xlink="http://www.w3.org/1999/xlink" x="0px" y="0px"
	 viewBox="0 0 303.1341 302.8" enable-background="new 0 0 303.1341 302.8" xml:space="preserve">
<g id="share">
	<rect x="0.3341" fill="none" width="302.8" height="302.8"/>
	<g>
		<path fill="#BE1622" d="M155.1536,272.9973c-1.4414,0-2.8906-0.3115-4.2461-0.9473c-3.5103-1.6475-5.752-5.1748-5.752-9.0527
			v-65.8721c-7.6621,0.1055-26.0103,1.0459-47.0396,7.0059c-36.1611,10.249-62.9053,29.7891-79.4883,58.0781
			c-2.2744,3.8789-6.8545,5.7646-11.2046,4.6045c-4.3452-1.1592-7.3823-5.0762-7.4219-9.5732
			c-0.0254-2.8398-0.1001-70.0713,44.75-115.3203c24.9936-25.2158,58.7564-38.4072,100.4043-39.2417V36.7507
			c0-3.8774,2.2417-7.4058,5.752-9.0527c3.5107-1.6479,7.6572-1.1162,10.6387,1.3613l136.1445,113.123
			c2.2871,1.8999,3.6094,4.7188,3.6094,7.6914c0,2.9731-1.3223,5.7915-3.6094,7.6909l-136.1445,113.124
			C159.7152,272.2101,157.4456,272.9973,155.1536,272.9973z M155.1556,173.9592c1.7354,0,3.4697,0.4512,5.0225,1.3525
			c3.0811,1.79,4.9775,5.084,4.9775,8.6475v57.7275l110.4971-91.813L165.1556,58.0612v54.623c0,2.6792-1.0752,5.2466-2.9844,7.1265
			c-1.9092,1.8789-4.501,2.9043-7.1719,2.8721c-1.8184-0.0283-3.6724-0.0469-5.5986-0.0469
			c-38.0713,0-68.5015,11.2251-90.4448,33.3633c-20.0947,20.2734-29.8257,46.2861-34.5366,66.8438
			c18.147-17.4971,41.4556-30.4619,68.8935-38.1367c24.9507-6.9795,46.125-7.6064,53.623-7.5986
			c0.8721-0.4824,1.9761-1.0996,3.2646-1.835C151.7366,174.3967,153.4466,173.9592,155.1556,173.9592z"/>
	</g>
</g>
</svg>
