<?xml version="1.0" encoding="utf-8"?>
<!-- Generator: Adobe Illustrator 19.0.0, SVG Export Plug-In . SVG Version: 6.00 Build 0)  -->
<svg version="1.1" id="XMLID_2_" xmlns="http://www.w3.org/2000/svg" xmlns:xlink="http://www.w3.org/1999/xlink" x="0px" y="0px"
	 viewBox="0 0 303.131 303.4648" enable-background="new 0 0 303.131 303.4648" xml:space="preserve">
<g id="list">
	<rect y="0.3338" fill="none" width="302.8" height="302.8"/>
	<g>
		<path fill="#BE1622" d="M81.7424,91.6841H10.0578c-5.523,0-10-4.4771-10-10V10c0-5.523,4.477-10,10-10h71.6846
			c5.5229,0,10,4.477,10,10v71.6841C91.7424,87.207,87.2653,91.6841,81.7424,91.6841z M20.0578,71.6841h51.6846V20H20.0578V71.6841z
			"/>
	</g>
	<g>
		<path fill="#BE1622" d="M293.131,91.6841H115.7521c-5.5229,0-10-4.4771-10-10V10c0-5.523,4.4771-10,10-10H293.131
			c5.5225,0,10,4.477,10,10v71.6841C303.131,87.207,298.6535,91.6841,293.131,91.6841z M125.7521,71.6841H283.131V20H125.7521
			V71.6841z"/>
	</g>
	<g>
		<path fill="#BE1622" d="M81.7424,197.5742H10.0578c-5.523,0-10-4.4775-10-10v-71.6841c0-5.5229,4.477-10,10-10h71.6846
			c5.5229,0,10,4.4771,10,10v71.6841C91.7424,193.0967,87.2653,197.5742,81.7424,197.5742z M20.0578,177.5742h51.6846v-51.6841
			H20.0578V177.5742z"/>
	</g>
	<g>
		<path fill="#BE1622" d="M293.131,197.5742H115.7521c-5.5229,0-10-4.4775-10-10v-71.6841c0-5.5229,4.4771-10,10-10H293.131
			c5.5225,0,10,4.4771,10,10v71.6841C303.131,193.0967,298.6535,197.5742,293.131,197.5742z M125.7521,177.5742H283.131v-51.6841
			H125.7521V177.5742z"/>
	</g>
	<g>
		<path fill="#BE1622" d="M81.7424,303.4648H10.0578c-5.523,0-10-4.4775-10-10v-71.6846c0-5.5225,4.477-10,10-10h71.6846
			c5.5229,0,10,4.4775,10,10v71.6846C91.7424,298.9873,87.2653,303.4648,81.7424,303.4648z M20.0578,283.4648h51.6846v-51.6846
			H20.0578V283.4648z"/>
	</g>
	<g>
		<path fill="#BE1622" d="M293.131,303.4648H115.7521c-5.5229,0-10-4.4775-10-10v-71.6846c0-5.5225,4.4771-10,10-10H293.131
			c5.5225,0,10,4.4775,10,10v71.6846C303.131,298.9873,298.6535,303.4648,293.131,303.4648z M125.7521,283.4648H283.131v-51.6846
			H125.7521V283.4648z"/>
	</g>
</g>
</svg>
