<?xml version="1.0" encoding="utf-8"?>
<!-- Generator: Adobe Illustrator 19.0.0, SVG Export Plug-In . SVG Version: 6.00 Build 0)  -->
<svg version="1.1" id="XMLID_2_" xmlns="http://www.w3.org/2000/svg" xmlns:xlink="http://www.w3.org/1999/xlink" x="0px" y="0px"
	 viewBox="0 0 302.8 302.8" enable-background="new 0 0 302.8 302.8" xml:space="preserve">
<g id="trash">
	<rect fill="none" width="302.8" height="302.8"/>
	<g>
		<path fill="#BE1622" d="M248.9191,89.0202H54.2277c-5.2021,0-9.4189,4.2168-9.4189,9.419v189.022
			c0,8.3203,6.7686,15.0889,15.0884,15.0889h183.353c8.3193,0,15.0879-6.7686,15.0879-15.0889V98.4391
			C258.3381,93.237,254.1213,89.0202,248.9191,89.0202z M160.9924,107.8581h28.8857v175.854h-28.8857V107.8581z M142.1545,283.7121
			h-28.8857v-175.854h28.8857V283.7121z M63.6467,107.8581h30.7842v175.854H63.6467V107.8581z M239.5002,283.7121H208.716v-175.854
			h30.7842V283.7121z"/>
		<path fill="#BE1622" d="M267.7424,44.4953H208.716V11.2141c0-5.2021-4.2168-9.419-9.4189-9.419h-95.4473
			c-5.2021,0-9.419,4.2168-9.419,9.419v33.2812H35.404c-5.2022,0-9.4189,4.2168-9.4189,9.4189s4.2168,9.4189,9.4189,9.4189h68.4458
			h95.4473h68.4453c5.2021,0,9.4189-4.2168,9.4189-9.4189S272.9445,44.4953,267.7424,44.4953z M113.2687,44.4953V20.633h76.6094
			v23.8623H113.2687z"/>
	</g>
</g>
</svg>
