<?xml version="1.0" encoding="utf-8"?>
<!-- Generator: Adobe Illustrator 19.0.0, SVG Export Plug-In . SVG Version: 6.00 Build 0)  -->
<svg version="1.1" id="XMLID_2_" xmlns="http://www.w3.org/2000/svg" xmlns:xlink="http://www.w3.org/1999/xlink" x="0px" y="0px"
	 viewBox="0 0 302.8 303.4648" enable-background="new 0 0 302.8 303.4648" xml:space="preserve">
<g id="user">
	<rect y="0.3338" fill="none" width="302.8" height="302.8"/>
	<g>
		<path fill="#BE1622" d="M287.0685,303.4648H16.0778c-5.523,0-10-4.4775-10-10v-28.8691c0-3.2871,1.6157-6.3643,4.3213-8.2314
			l84.7676-58.4805v-10.751c-16.1851-6.2539-21.5586-27.4131-22.0317-39.481c-0.0054-0.1309-0.0078-0.2612-0.0078-0.3921V78.4463
			C73.1271,35.1909,108.3181,0,151.5734,0c43.2559,0,78.4463,35.1909,78.4463,78.4463v68.8135c0,0.1309-0.0029,0.2612-0.0078,0.3921
			c-0.4736,12.0679-5.8467,33.2271-22.0312,39.481v10.751l84.7666,58.4805c2.7061,1.8672,4.3213,4.9443,4.3213,8.2314v28.8691
			C297.0685,298.9873,292.591,303.4648,287.0685,303.4648z M26.0778,283.4648h250.9907v-13.6191l-84.7666-58.4805
			c-2.7061-1.8672-4.3213-4.9443-4.3213-8.2314v-24.2119c0-5.5225,4.4775-10,10-10c10.1445,0,11.9043-20.1294,12.0391-21.9536
			v-68.522C210.0197,46.2188,183.801,20,151.5734,20S93.1271,46.2188,93.1271,78.4463V146.98
			c0.125,1.6997,1.8662,21.9419,12.0396,21.9419c5.5229,0,10,4.4775,10,10v24.2119c0,3.2871-1.6157,6.3643-4.3213,8.2314
			l-84.7676,58.4805V283.4648z"/>
	</g>
</g>
</svg>
