<?xml version="1.0" encoding="utf-8"?>
<!-- Generator: Adobe Illustrator 19.0.0, SVG Export Plug-In . SVG Version: 6.00 Build 0)  -->
<svg version="1.1" id="XMLID_1_" xmlns="http://www.w3.org/2000/svg" xmlns:xlink="http://www.w3.org/1999/xlink" x="0px" y="0px"
	 viewBox="0 0 303.231 302.8" enable-background="new 0 0 303.231 302.8" xml:space="preserve">
<g id="video">
	<rect x="0.0999" fill="none" width="302.8" height="302.8"/>
	<path fill="#BE1622" d="M298.9761,29.4894c-2.668-1.8716-6.0801-2.3272-9.1445-1.2197l-93.4561,33.7798V51.197
		c0-11.5508-9.3975-20.9478-20.9482-20.9478H31.896C14.3086,30.2492,0,44.5578,0,62.1457V167.049
		c0,17.5879,14.3086,31.8965,31.896,31.8965h38.0117L9.877,258.9767c-3.9053,3.9053-3.9048,10.2373,0,14.1426
		c1.9526,1.9521,4.5122,2.9287,7.0713,2.9287s5.1187-0.9766,7.0713-2.9287l71.4517-71.4521
		c0.8149-0.8149,1.4495-1.7394,1.9243-2.7217h1.3196c0.4749,0.9823,1.1096,1.9067,1.9246,2.7217l71.4517,71.4521
		c1.9531,1.9521,4.5117,2.9287,7.0713,2.9287c2.5586,0,5.1191-0.9766,7.0713-2.9287c3.9053-3.9053,3.9053-10.2373,0-14.1426
		l-60.0308-60.0312h49.2241c11.5508,0,20.9482-9.3975,20.9482-20.9482v-10.8522l93.4561,33.7789
		c1.1045,0.3994,2.2549,0.5957,3.3984,0.5957c2.0293,0,4.04-0.6172,5.7461-1.8145c2.667-1.8721,4.2549-4.9268,4.2549-8.1855V37.6745
		C303.231,34.4157,301.6431,31.3615,298.9761,29.4894z M176.3755,177.9973c0,0.4961-0.4521,0.9482-0.9482,0.9482H31.896
		c-6.5596,0-11.896-5.3369-11.896-11.8965V62.1457c0-6.5596,5.3364-11.8965,11.896-11.8965h143.5312
		c0.4961,0,0.9482,0.4517,0.9482,0.9478v25.1001v76.6006V177.9973z M283.231,177.2717l-86.8555-31.3926V83.3156l86.8555-31.3936
		V177.2717z"/>
</g>
</svg>
