<?xml version="1.0" encoding="UTF-8" standalone="no"?>
<svg width="101px" height="57px" viewBox="0 0 101 57" version="1.1" xmlns="http://www.w3.org/2000/svg" xmlns:xlink="http://www.w3.org/1999/xlink">
    <!-- Generator: Sketch 3.7 (28169) - http://www.bohemiancoding.com/sketch -->
    <title>video</title>
    <desc>Created with Sketch.</desc>
    <defs></defs>
    <g id="Page-1" stroke="none" stroke-width="1" fill="none" fill-rule="evenodd">
        <g id="video" fill="#E84914">
            <path d="M9.1927,0.9084 C4.4047,0.9084 0.4087,4.8574 0.4087,9.5884 L0.4087,47.3964 C0.4087,52.1284 4.4047,56.0774 9.1927,56.0774 L64.0727,56.0774 C65.8137,56.0774 67.3977,54.5134 67.3977,52.7524 L67.3977,46.3004 L96.5197,55.9204 C98.4987,56.5444 100.9127,54.8644 100.9127,52.7524 L100.9127,4.2314 C100.9127,2.4324 99.2497,0.8684 97.4697,0.9084 C97.1527,0.9084 96.8367,0.9864 96.5197,1.0644 L67.3977,10.6824 L67.3977,4.2304 C67.3977,2.4704 65.8147,0.9074 64.0727,0.9074 L9.1927,0.9074 L9.1927,0.9084 Z M9.1927,7.5164 L60.7097,7.5164 L60.7097,49.4694 L9.1927,49.4694 C7.9657,49.4694 7.0957,48.6094 7.0957,47.3964 L7.0957,9.5894 C7.0957,8.3764 7.9667,7.5164 9.1927,7.5164 L9.1927,7.5164 Z M94.2247,8.8064 L94.2247,48.1784 L67.3977,39.3434 L67.3977,17.6424 L94.2247,8.8064 Z" id="Fill-3"></path>
        </g>
    </g>
</svg>